<svg xmlns="http://www.w3.org/2000/svg" width="21.147" height="24.5" viewBox="0 0 21.147 24.5">
  <g id="bell_1_" data-name="bell (1)" transform="translate(0.25 0.25)">
    <path id="Контур_8" data-name="Контур 8" d="M158.539,420.227a3.713,3.713,0,0,1-3.871-3.522.778.778,0,0,1,1.549,0,2.333,2.333,0,0,0,4.646,0,.778.778,0,0,1,1.549,0A3.713,3.713,0,0,1,158.539,420.227Zm0,0" transform="translate(-148.216 -396.227)" fill="#fff" stroke="#fff" stroke-width="0.5"/>
    <path id="Контур_9" data-name="Контур 9" d="M40.172,81.806H23.139a1.772,1.772,0,0,1-1.807-1.731,1.7,1.7,0,0,1,.632-1.316,6.521,6.521,0,0,0,2.465-5.077V70.925a7.233,7.233,0,0,1,14.453,0v2.758a6.519,6.519,0,0,0,2.455,5.07,1.7,1.7,0,0,1,.642,1.323,1.772,1.772,0,0,1-1.807,1.731ZM31.656,65.484a5.569,5.569,0,0,0-5.678,5.441v2.758a7.974,7.974,0,0,1-3,6.2.243.243,0,0,0-.093.19.256.256,0,0,0,.258.247H40.172a.256.256,0,0,0,.258-.247.24.24,0,0,0-.091-.188,7.976,7.976,0,0,1-3.006-6.2V70.925a5.569,5.569,0,0,0-5.678-5.441Zm0,0" transform="translate(-21.332 -60.903)" fill="#fff" stroke="#fff" stroke-width="0.5"/>
    <path id="Контур_10" data-name="Контур 10" d="M219.442,3.971a.725.725,0,0,1-.774-.662V.662a.784.784,0,0,1,1.549,0V3.309A.725.725,0,0,1,219.442,3.971Zm0,0" transform="translate(-209.119)" fill="#fff" stroke="#fff" stroke-width="0.5"/>
  </g>
</svg>
