<svg xmlns="http://www.w3.org/2000/svg" width="1064.885" height="527.214" viewBox="0 0 1064.885 527.214">
  <g id="Group_9" data-name="Group 9" transform="translate(-404.135 -149)">
    <path id="Path_38" data-name="Path 38" d="M179.006,381.942H152.533a3.42,3.42,0,0,0-3.416,3.416v52.163a3.42,3.42,0,0,0,3.416,3.416h26.473a3.419,3.419,0,0,0,3.416-3.416V385.358a3.419,3.419,0,0,0-3.416-3.416m-26.473,1.708h26.473a1.709,1.709,0,0,1,1.708,1.708v3.416H150.825v-3.416a1.709,1.709,0,0,1,1.708-1.708m28.181,47.574H150.825V390.482h29.889Zm-1.708,8.005H152.533a1.71,1.71,0,0,1-1.708-1.708v-4.589h29.889v4.589a1.71,1.71,0,0,1-1.708,1.708m-17.634-52.91a.854.854,0,0,1,.854-.854h7.235a.854.854,0,1,1,0,1.707h-7.235a.854.854,0,0,1-.854-.853M159,422.256h13.967a2.565,2.565,0,0,0,2.562-2.562v-8.089a2.565,2.565,0,0,0-2.562-2.562h-.712v-4.694a2.357,2.357,0,0,0-2.354-2.355h-7.732a2.357,2.357,0,0,0-2.355,2.355v4.694H159a2.564,2.564,0,0,0-2.562,2.562v8.089A2.565,2.565,0,0,0,159,422.256m2.522-17.907a.647.647,0,0,1,.647-.647H169.9a.647.647,0,0,1,.646.647v4.694h-9.025Zm-3.376,7.256a.856.856,0,0,1,.854-.855h13.967a.856.856,0,0,1,.854.855v8.089a.855.855,0,0,1-.854.854H159a.855.855,0,0,1-.854-.854Zm5.991,2.823a1.9,1.9,0,1,1,2.752,1.686V418.3a.854.854,0,0,1-1.708,0v-2.183a1.891,1.891,0,0,1-1.044-1.686" transform="translate(391.57 207.221)" fill="#231f20"/>
    <path id="Path_39" data-name="Path 39" d="M131.922,40.134c-1.77,0-3.339,1.57-3.339,5.239s1.569,5.239,3.339,5.239,3.365-1.578,3.365-5.239-1.587-5.239-3.365-5.239m0,9.42c-1.058,0-2.09-1.11-2.09-4.181s1.032-4.181,2.09-4.181,2.116,1.1,2.116,4.181-1.058,4.181-2.116,4.181m12.412-22.69c0-.156.1-.235.269-.278l3.417-.746c.217,0,.451.13.451.3v8.968h2.178c.208,0,.294.13.294.443v.173c0,.313-.086.442-.294.442h-5.977c-.2,0-.294-.129-.294-.442v-.173c0-.313.1-.443.294-.443h2.568V27.176l-2.611.442c-.2,0-.295-.486-.295-.754m-9.133,37.7v.174c0,.312-.087.442-.295.442h-5.977c-.2,0-.286-.13-.286-.442v-.174c0-.312.087-.442.286-.442H131.5V56.19l-2.611.442c-.2,0-.295-.486-.295-.755,0-.156.1-.234.269-.277l3.417-.746c.217,0,.452.129.452.3v8.969h2.177c.208,0,.295.13.295.442m-6.61-37.7c0-.156.1-.235.269-.278l3.417-.746c.217,0,.452.13.452.3v8.968h2.177c.208,0,.295.13.295.443v.173c0,.313-.087.442-.295.442h-5.977c-.2,0-.286-.129-.286-.442v-.173c0-.313.087-.443.286-.443H131.5V27.176l-2.611.442c-.2,0-.295-.486-.295-.754m11.2-1.085c-1.761,0-3.339,1.571-3.339,5.24s1.578,5.238,3.339,5.238c1.787,0,3.374-1.578,3.374-5.238s-1.587-5.24-3.374-5.24m0,9.42c-1.058,0-2.09-1.1-2.09-4.18s1.032-4.182,2.09-4.182,2.125,1.1,2.125,4.182-1.058,4.18-2.125,4.18m11.154,29.369v.174c0,.312-.086.442-.294.442h-5.977c-.2,0-.294-.13-.294-.442v-.174c0-.312.1-.442.294-.442h2.568V56.19l-2.611.442c-.2,0-.295-.486-.295-.755,0-.156.1-.234.269-.277l3.417-.746c.217,0,.451.129.451.3v8.969h2.178c.208,0,.294.13.294.442M139.794,54.79c-1.761,0-3.339,1.57-3.339,5.239s1.578,5.239,3.339,5.239c1.787,0,3.374-1.579,3.374-5.239s-1.587-5.239-3.374-5.239m0,9.419c-1.058,0-2.09-1.1-2.09-4.18s1.032-4.181,2.09-4.181,2.125,1.1,2.125,4.181-1.058,4.18-2.125,4.18M140.6,40.5v8.968h2.177c.208,0,.295.13.295.434v.182c0,.3-.087.442-.295.442H136.8c-.208,0-.295-.138-.295-.442V49.9c0-.3.087-.434.295-.434h2.559V41.531l-2.6.442c-.208,0-.295-.486-.295-.754,0-.156.087-.235.26-.278l3.418-.746c.225,0,.459.13.459.3m55.442,29.03-8.769-8.769a4.845,4.845,0,0,0-4.484-1.3l-2.836-2.836v-.674a16.362,16.362,0,0,0,2.585-8.85c0-.392-.031-.78-.058-1.168.01-.188.031-.358.031-.558a6.768,6.768,0,0,0-1-3.956,16.383,16.383,0,0,0-3.154-5.247h3.771c.208,0,.295-.129.295-.442v-.173c0-.313-.087-.443-.295-.443h-2.177V26.144c0-.174-.235-.3-.46-.3l-3.409.746c-.182.043-.269.122-.269.278,0,.268.087.754.295.754l2.611-.442v7.936h-1.389a16.443,16.443,0,0,0-2.871-2.161,9.668,9.668,0,0,0,.184-1.932c0-3.669-1.588-5.24-3.374-5.24-1.715,0-3.246,1.5-3.325,4.972a16.61,16.61,0,0,0-3.736-.008v-4.6c0-.174-.234-.3-.451-.3l-3.418.746c-.182.043-.268.122-.268.278,0,.268.086.754.295.754l2.611-.442v3.745a16.442,16.442,0,0,0-4.15,1.387,10.727,10.727,0,0,0,.073-1.289c0-3.669-1.588-5.24-3.374-5.24-1.761,0-3.34,1.571-3.34,5.24,0,2.583.794,4.117,1.877,4.8a16.356,16.356,0,0,0-3.673,6.2,3,3,0,0,0-2.731-1.891c-1.77,0-3.34,1.57-3.34,5.239s1.57,5.239,3.34,5.239a2.787,2.787,0,0,0,2.129-.99,16.378,16.378,0,0,0,2.97,7.191,7.982,7.982,0,0,0-.572,3.219c0,3.66,1.579,5.239,3.34,5.239,1.457,0,2.769-1.057,3.206-3.421a16.437,16.437,0,0,0,4.245,1.43v.846H160.41c-.2,0-.295.13-.295.442v.174c0,.312.1.442.295.442h5.976c.208,0,.295-.13.295-.442v-.174c0-.312-.087-.442-.295-.442h-2.177v-.669a16.546,16.546,0,0,0,1.848.114,16.732,16.732,0,0,0,2.517-.2,2.967,2.967,0,0,0,2.7,1.9c1.583,0,3-1.249,3.3-4.075a16.264,16.264,0,0,0,1.544-1.043l2.6,2.6v1.371h-2.567c-.2,0-.295.13-.295.442v.174c0,.312.1.442.295.442H179.1a4.8,4.8,0,0,0,1.312,2.446l8.769,8.769a4.857,4.857,0,1,0,6.869-6.87M171.275,26.837c1.058,0,2.125,1.1,2.125,4.182a10.257,10.257,0,0,1-.079,1.308,16.391,16.391,0,0,0-4.133-1.4c.021-3.006,1.039-4.092,2.087-4.092m-15.743,0c1.058,0,2.125,1.1,2.125,4.182a8.911,8.911,0,0,1-.211,2.052,16.38,16.38,0,0,0-2.575,1.957c-.788-.4-1.429-1.586-1.429-4.009,0-3.08,1.031-4.182,2.09-4.182m-7.867,22.717c-1.058,0-2.091-1.11-2.091-4.181s1.033-4.181,2.091-4.181c.992,0,1.972.991,2.092,3.649a16.548,16.548,0,0,0-.162,2.5c-.349,1.6-1.139,2.217-1.93,2.217m7.867,14.658c-1.059,0-2.09-1.1-2.09-4.18a8.77,8.77,0,0,1,.223-2.093c.241.275.476.555.739.818a16.491,16.491,0,0,0,3.2,2.461c-.241,2.176-1.155,2.992-2.063,2.992m15.743,0a1.727,1.727,0,0,1-1.512-1.067,16.367,16.367,0,0,0,3.453-1.212c-.343,1.634-1.139,2.279-1.941,2.279m-15.639-6.687a14.746,14.746,0,1,1,20.851,0,14.746,14.746,0,0,1-20.851,0m22.074,1.232c.321-.321.633-.659.919-1.006l2.455,2.454a4.508,4.508,0,0,0-.676.555,4.918,4.918,0,0,0-.555.668l-2.411-2.411c.1-.087.182-.174.268-.26m17.113,16.419a3.213,3.213,0,0,1-4.415,0l-8.769-8.769a3.058,3.058,0,0,1-.739-1.223l-.165-1.058a3.118,3.118,0,0,1,5.319-2.143l8.769,8.77a3.14,3.14,0,0,1,0,4.423M172.456,42.12l2.782-2.783-1.227-1.226-2.379,2.378a6.17,6.17,0,0,0-11.17-.07L158.547,38.5l-1.226,1.227,2.308,2.307a13.147,13.147,0,0,0-.972,4.754H155.28v1.735h3.445a12.624,12.624,0,0,0,1.255,4.4L157.715,55.2l1.227,1.226,1.974-1.975a6.474,6.474,0,0,0,5.109,2.853c2.339,0,4.428-1.516,5.779-3.874l2.6,2.6L175.63,54.8l-3.012-3.012-.078.078a13.024,13.024,0,0,0,.783-3.339H176.1V46.793h-2.7a13.213,13.213,0,0,0-.938-4.673m-6.431-3.48c2.076,0,3.894,1.694,4.872,4.209h-9.744c.979-2.515,2.8-4.209,4.872-4.209m0,16.925c-3.108,0-5.637-3.8-5.637-8.463a12.435,12.435,0,0,1,.255-2.519h10.764a12.364,12.364,0,0,1,.255,2.519c0,4.667-2.529,8.463-5.637,8.463" transform="translate(393.57 123.221)" fill="#231f20"/>
    <path id="Path_40" data-name="Path 40" d="M559.125,430.817h61.219V391.425H559.125Zm1.547-37.844h58.123v36.3H560.672ZM623.4,432.849V391.183a3.036,3.036,0,0,0-3.021-3.114h-61.66a3.036,3.036,0,0,0-3.021,3.114v41.666h-9.483v1.93a3.07,3.07,0,0,0,3.019,3.112h80.63a3.07,3.07,0,0,0,3.019-3.112v-1.93Zm-66.154-41.666a1.487,1.487,0,0,1,1.473-1.566h61.66a1.488,1.488,0,0,1,1.473,1.566v41.659H557.244Zm74.09,43.6a1.523,1.523,0,0,1-1.472,1.564h-80.63a1.521,1.521,0,0,1-1.471-1.564V434.4h83.573Zm-27.289-31.728h-6.191a3.873,3.873,0,0,0-3.869,3.869v.309H576.194v-5.176h4.51V400.51h-6.058v21.17H580.7v-1.548h-4.51v-5.511h2.3v1.626h1.547v-1.626H582.6v1.626h1.548v-1.626h2.566v1.626h1.548v-1.626h2.566v1.626h1.547v-1.626h1.6v.917a3.874,3.874,0,0,0,3.869,3.87h6.191a3.875,3.875,0,0,0,3.87-3.87V406.92a3.874,3.874,0,0,0-3.87-3.869m-27.851,5.726h17.791v4.3H576.194Zm30.173,6.761a2.324,2.324,0,0,1-2.322,2.322h-6.191a2.324,2.324,0,0,1-2.321-2.322V406.92a2.324,2.324,0,0,1,2.321-2.321h6.191a2.324,2.324,0,0,1,2.322,2.321Zm-3.9-7.745h1.548v6.6H602.46ZM589.35,411.7H579.332v-1.547h10.027Z" transform="translate(454.57 212.221)" fill="#231f20"/>
    <path id="Path_41" data-name="Path 41" d="M392.43,402.355h-.753v-3a6.048,6.048,0,0,0-12.091,0v3h-.752a1.862,1.862,0,0,0-1.864,1.863v8.888a1.862,1.862,0,0,0,1.864,1.863h13.6a1.863,1.863,0,0,0,1.864-1.863v-8.888a1.863,1.863,0,0,0-1.864-1.863m-11.209-3a4.414,4.414,0,0,1,8.822,0v4.636h2.387a.234.234,0,0,1,.229.228v8.888a.234.234,0,0,1-.229.228h-13.6a.233.233,0,0,1-.229-.228v-8.888a.233.233,0,0,1,.229-.228h2.387Zm7.84-.139a3.443,3.443,0,0,0-6.859,0v4.775h6.859Zm-5.224,0a1.822,1.822,0,0,1,3.589,0v3.14h-3.589Zm1.8,5.756a2.378,2.378,0,0,0-1.864,3.866v1.137a1.86,1.86,0,1,0,3.72,0v-1.137a2.378,2.378,0,0,0-1.856-3.866m1.038,3.548v1.455a1.042,1.042,0,0,1-2.084,0V408.52a1.565,1.565,0,1,1,2.084,0m27.208-1.848a3.222,3.222,0,0,0-3.123,2.412h-9.32a16.24,16.24,0,0,0,.556-3.6h3.532a3.23,3.23,0,1,0,0-1.635H402a15.911,15.911,0,0,0-.449-3.009h9.213a3.229,3.229,0,1,0,0-1.636h-9.7a16.456,16.456,0,0,0-9.672-9.81v-9.557a3.222,3.222,0,1,0-1.635,0v9.042a16.28,16.28,0,0,0-3.589-.523v-3.3a3.229,3.229,0,1,0-1.635,0v3.328a15.946,15.946,0,0,0-3.009.49v-9.042a3.23,3.23,0,1,0-1.635,0V389.4a16.455,16.455,0,0,0-9.671,9.81H360.5a3.23,3.23,0,1,0,0,1.636h9.214a16.211,16.211,0,0,0-.474,3.589h-3.507a3.229,3.229,0,1,0,0,1.635h3.556a16.7,16.7,0,0,0,.531,3.017H360.5a3.222,3.222,0,1,0,0,1.635h9.868a16.437,16.437,0,0,0,9.508,9.369v10a3.222,3.222,0,1,0,1.635,0V420.6a16.232,16.232,0,0,0,3.589.523v3.729a3.229,3.229,0,1,0,1.635,0v-3.761a15.852,15.852,0,0,0,3.009-.491v9.484a3.23,3.23,0,1,0,1.635,0v-10a16.434,16.434,0,0,0,9.508-9.369h9.868a3.226,3.226,0,1,0,3.123-4.047m-5.232-3.6a1.594,1.594,0,1,1-1.594,1.594,1.594,1.594,0,0,1,1.594-1.594m5.232-4.644a1.589,1.589,0,1,1-1.131.468,1.594,1.594,0,0,1,1.131-.468m-56.5,3.189a1.594,1.594,0,1,1,1.594-1.594,1.594,1.594,0,0,1-1.594,1.594m5.232,5.224a1.592,1.592,0,1,1,1.134-.466,1.594,1.594,0,0,1-1.134.466m-5.232,4.644a1.591,1.591,0,1,1,1.594-1.586,1.591,1.591,0,0,1-1.594,1.586m31.6-34.771a1.59,1.59,0,1,1,1.586,1.586,1.59,1.59,0,0,1-1.586-1.586m-5.233,5.224a1.594,1.594,0,1,1,1.594,1.6,1.594,1.594,0,0,1-1.594-1.6M379.1,376.71a1.59,1.59,0,1,1,1.6,1.59,1.59,1.59,0,0,1-1.6-1.59m3.18,56.493a1.59,1.59,0,1,1-1.586-1.594,1.59,1.59,0,0,1,1.586,1.594m5.232-5.232a1.594,1.594,0,1,1-1.594-1.586,1.594,1.594,0,0,1,1.594,1.586m4.644,5.232a1.59,1.59,0,1,1-1.594-1.594,1.59,1.59,0,0,1,1.594,1.594m-6.524-13.694A14.774,14.774,0,1,1,400.4,404.744a14.774,14.774,0,0,1-14.762,14.769m28.246-8.028a1.591,1.591,0,1,1,1.586-1.586,1.591,1.591,0,0,1-1.586,1.586m-21.452-9.132h-.753v-3a6.048,6.048,0,0,0-12.091,0v3h-.752a1.862,1.862,0,0,0-1.864,1.863v8.888a1.862,1.862,0,0,0,1.864,1.863h13.6a1.863,1.863,0,0,0,1.864-1.863v-8.888a1.863,1.863,0,0,0-1.864-1.863m-11.209-3a4.414,4.414,0,0,1,8.822,0v4.636h2.387a.234.234,0,0,1,.229.228v8.888a.234.234,0,0,1-.229.228h-13.6a.233.233,0,0,1-.229-.228v-8.888a.233.233,0,0,1,.229-.228h2.387Zm7.84-.139a3.443,3.443,0,0,0-6.859,0v4.775h6.859Zm-5.224,0a1.822,1.822,0,0,1,3.589,0v3.14H383.84Zm1.8,5.756a2.378,2.378,0,0,0-1.864,3.866v1.137a1.86,1.86,0,1,0,3.72,0v-1.137a2.378,2.378,0,0,0-1.856-3.866m1.038,3.548v1.455a1.042,1.042,0,0,1-2.084,0V408.52a1.55,1.55,0,0,1-.524-1.161,1.566,1.566,0,1,1,2.608,1.161m-1.038-12.443a3.339,3.339,0,0,0-3.434,3.139v4.775h6.859v-4.775a3.336,3.336,0,0,0-3.425-3.139m-1.8,3.139a1.822,1.822,0,0,1,3.589,0v3.14H383.84Zm1.8,5.756a2.378,2.378,0,0,0-1.864,3.866v1.137a1.86,1.86,0,1,0,3.72,0v-1.137a2.378,2.378,0,0,0-1.856-3.866m1.038,3.548v1.455a1.042,1.042,0,0,1-2.084,0V408.52a1.55,1.55,0,0,1-.524-1.161,1.565,1.565,0,1,1,2.608,1.161m5.756-6.164h-.753v-3a6.048,6.048,0,0,0-12.091,0v3h-.752a1.862,1.862,0,0,0-1.864,1.863v8.888a1.862,1.862,0,0,0,1.864,1.863h13.6a1.863,1.863,0,0,0,1.864-1.863v-8.888a1.863,1.863,0,0,0-1.864-1.863m-11.209-3a4.414,4.414,0,0,1,8.822,0v4.636h2.387a.234.234,0,0,1,.229.228v8.888a.234.234,0,0,1-.229.228h-13.6a.233.233,0,0,1-.229-.228V404.22a.233.233,0,0,1,.229-.228h2.387Zm7.84-.139a3.443,3.443,0,0,0-6.859,0v4.775h6.859Zm-5.224,0a1.822,1.822,0,0,1,3.589,0v3.14h-3.589Zm1.8,5.756a2.378,2.378,0,0,0-1.864,3.866v1.137a1.86,1.86,0,1,0,3.72,0v-1.137a2.378,2.378,0,0,0-1.856-3.866m1.038,3.548v1.455a1.042,1.042,0,0,1-2.084,0v-1.455a1.55,1.55,0,0,1-.524-1.161,1.566,1.566,0,1,1,2.608,1.161m-1.038-12.443a3.339,3.339,0,0,0-3.434,3.139v4.775h6.859v-4.775a3.336,3.336,0,0,0-3.425-3.139m-1.8,3.139a1.822,1.822,0,0,1,3.589,0v3.14h-3.589Zm1.8,5.756a2.378,2.378,0,0,0-1.864,3.866v1.137a1.86,1.86,0,1,0,3.72,0v-1.137a2.378,2.378,0,0,0-1.856-3.866m1.038,3.548v1.455a1.042,1.042,0,0,1-2.084,0v-1.455a1.55,1.55,0,0,1-.524-1.161,1.566,1.566,0,1,1,2.608,1.161" transform="translate(510.57 214.221)" fill="#231f20"/>
    <path id="Path_42" data-name="Path 42" d="M327.731,240.612a7.245,7.245,0,1,0,7.245,7.245,7.245,7.245,0,0,0-7.245-7.245m0,12.835a5.59,5.59,0,1,1,5.589-5.589,5.59,5.59,0,0,1-5.589,5.589m36.228-21.392h-32.59a2.486,2.486,0,0,0-2.484,2.484v1.933h-37.8a2.487,2.487,0,0,0-2.484,2.484v27.327a2.487,2.487,0,0,0,2.484,2.483h47.2a2.487,2.487,0,0,0,2.485-2.483V246.409h24.014v6.624a.829.829,0,0,1-.828.828H359.83v1.656h4.126a2.486,2.486,0,0,0,2.484-2.484V234.539a2.486,2.486,0,0,0-2.484-2.484m-24.843,34.228a.829.829,0,0,1-.828.828h-47.2a.83.83,0,0,1-.828-.828V238.956a.829.829,0,0,1,.828-.828h47.2a.828.828,0,0,1,.828.828Zm25.671-21.53H340.773v-4.141h24.014Zm0-5.8H340.773a2.487,2.487,0,0,0-2.485-2.484h-7.747v-1.933a.829.829,0,0,1,.828-.828h32.59a.829.829,0,0,1,.828.828Zm-55.075,3.036H294.42V252.2h15.292Zm-1.656,8.557H296.077v-6.9h11.979Zm-12.111,9.937h6v1.656h-6Zm19.874,0h6v1.656h-6Zm9.937,0h6v1.656h-6Zm-19.874,0h6v1.656h-6Zm45.714-1.368a2.55,2.55,0,0,0-.828,4.961v1.545a.828.828,0,0,0,1.656,0v-1.545a2.55,2.55,0,0,0-.828-4.961m0,3.443a.894.894,0,1,1,.893-.893.894.894,0,0,1-.893.893m6.421-5.867h-.653V253.91a5.77,5.77,0,0,0-11.536,0v2.784h-.653a1.818,1.818,0,0,0-1.816,1.816v8.4a1.818,1.818,0,0,0,1.816,1.816h12.842a1.819,1.819,0,0,0,1.816-1.816v-8.4a1.819,1.819,0,0,0-1.816-1.816m-10.532-2.784a4.114,4.114,0,0,1,8.222,0v2.784h-8.222Zm10.692,13a.16.16,0,0,1-.16.16H345.175a.161.161,0,0,1-.161-.16v-8.4a.161.161,0,0,1,.161-.16h12.842a.16.16,0,0,1,.16.16Z" transform="translate(410.57 149.221)" fill="#231f20"/>
    <path id="Path_43" data-name="Path 43" d="M527.574,74.669a3.6,3.6,0,1,0,0-1.486h-8.96A8.222,8.222,0,0,0,517.4,69.9h3.61l3.889-5.716h2.673a3.6,3.6,0,1,0,0-1.485h-3.459l-3.89,5.715H516.2a8.256,8.256,0,0,0-5.777-2.357h-.574a13.313,13.313,0,0,0-26.53.235,8.2,8.2,0,0,0-3.816,2.122H475.52L471.748,62.7h-3.465a3.6,3.6,0,1,0,0,1.485h2.666l3.772,5.716h3.564a8.171,8.171,0,0,0-1.215,3.278h-8.787a3.6,3.6,0,1,0,0,1.486h8.712a8.217,8.217,0,0,0,.816,3.277h-2.965l-3.891,5.715h-2.672a3.6,3.6,0,1,0,0,1.486h3.458l3.89-5.715h3.1a8.27,8.27,0,0,0,6.531,3.2h25.154a8.254,8.254,0,0,0,5.857-2.432,8.592,8.592,0,0,0,.673-.772h3.388l3.772,5.715h3.465a3.6,3.6,0,1,0,0-1.486h-2.666l-3.771-5.715H517.87a8.211,8.211,0,0,0,.817-3.277ZM531.1,71.81a2.115,2.115,0,1,1-2.115,2.116A2.115,2.115,0,0,1,531.1,71.81m0-10.479a2.115,2.115,0,1,1-2.115,2.115,2.115,2.115,0,0,1,2.115-2.115m-66.34,4.231a2.115,2.115,0,1,1,2.114-2.116,2.115,2.115,0,0,1-2.114,2.116m0,10.478a2.115,2.115,0,1,1,2.114-2.114,2.115,2.115,0,0,1-2.114,2.114m0,10.48a2.115,2.115,0,1,1,2.114-2.116,2.115,2.115,0,0,1-2.114,2.116m66.34-4.231a2.115,2.115,0,1,1-2.115,2.115,2.115,2.115,0,0,1,2.115-2.115m-15.873-3.136a6.771,6.771,0,0,1-4.806,2H485.265a6.792,6.792,0,0,1-4.8-11.607,6.7,6.7,0,0,1,3.68-1.9l.605-.1.018-.613a11.827,11.827,0,0,1,23.638-.1l.027.714h1.985a6.8,6.8,0,0,1,4.806,11.6" transform="translate(456.57 126.221)" fill="#231f20"/>
    <path id="Path_44" data-name="Path 44" d="M496.656,69.56a2.287,2.287,0,0,0-.743,4.45V75.4a.743.743,0,1,0,1.485,0V74.01a2.287,2.287,0,0,0-.742-4.45m0,3.089a.8.8,0,1,1,.8-.8.8.8,0,0,1-.8.8m5.76-5.263h-.587v-2.5a5.175,5.175,0,0,0-10.347,0v2.5h-.587a1.63,1.63,0,0,0-1.629,1.628v7.533a1.631,1.631,0,0,0,1.629,1.629h11.521a1.631,1.631,0,0,0,1.629-1.629V69.014a1.63,1.63,0,0,0-1.629-1.628m-9.448-2.5a3.691,3.691,0,0,1,7.376,0v2.5h-7.376Zm9.591,11.659a.144.144,0,0,1-.143.144H490.895a.144.144,0,0,1-.143-.144V69.014a.142.142,0,0,1,.143-.142h11.521a.142.142,0,0,1,.143.142Z" transform="translate(456.57 126.221)" fill="#231f20"/>
    <path id="Path_45" data-name="Path 45" d="M893.513,70.379a11.069,11.069,0,0,0-1.632-4.413m.633,10.825a11.032,11.032,0,0,0,1.1-4.412m-3.357-8.413a13.175,13.175,0,0,0-7.778-3.174h-.772a17.922,17.922,0,0,0-35.715.317c-1.931.463-1.9.1-5.137,2.857-5.562,5.079-3.068,13.06-1.03,14.825,1.287,1.561,5.221,4.313,8.792,4.313H882.48a11.118,11.118,0,0,0,7.886-3.273c.327-.329-1.147,1.723.9-1.04,4.213-5.422,2.052-12.572-1.012-14.825M837.48,72.379a11.057,11.057,0,0,0,1.1,4.412m.637-10.825a10.993,10.993,0,0,0-1.635,4.413m51.365,8.037A9.119,9.119,0,0,1,882.48,81.1H848.618a9.144,9.144,0,0,1-6.461-15.626,9.025,9.025,0,0,1,4.955-2.555l.815-.132.024-.825a15.921,15.921,0,0,1,31.821-.134l.037.96h2.671a9.149,9.149,0,0,1,6.471,15.624" transform="translate(521.57 128.221)" fill="#231f20"/>
    <path id="Path_46" data-name="Path 46" d="M863.806,65.683a2.976,2.976,0,0,0-2.95,2.994,3.012,3.012,0,0,0,.716,1.944v1.691a2.234,2.234,0,1,0,4.467,0V70.621a3.013,3.013,0,0,0,.716-1.944,2.976,2.976,0,0,0-2.949-2.994m.9,4.005-.265.242v2.382a.632.632,0,1,1-1.263,0V69.93l-.265-.242a1.348,1.348,0,1,1,1.793,0" transform="translate(521.57 128.221)" fill="#231f20"/>
    <path id="Path_47" data-name="Path 47" d="M873.117,62.047H871.77v-4.5a7.965,7.965,0,1,0-15.929,0v4.5h-1.348a2.253,2.253,0,0,0-2.233,2.266V76.674a2.253,2.253,0,0,0,2.233,2.267h18.623a2.253,2.253,0,0,0,2.234-2.267V64.313a2.253,2.253,0,0,0-2.234-2.266m-15.674-4.5a6.363,6.363,0,1,1,12.726,0v4.5h-1.98V57.355a4.4,4.4,0,0,0-8.764,0v4.692h-1.981Zm9.144-.188v4.692h-5.562v-4.7a2.808,2.808,0,0,1,5.562,0m7.163,19.319a.637.637,0,0,1-.633.641H854.494a.638.638,0,0,1-.633-.641V64.313a.639.639,0,0,1,.633-.641h18.623a.638.638,0,0,1,.633.641Z" transform="translate(521.57 128.221)" fill="#231f20"/>
    <text id="Threat_modelling" data-name="Threat modelling" transform="translate(901.92 237.074)" font-size="12" font-family="OpenSans-Bold, Open Sans" font-weight="700"><tspan x="0" y="0">Threat modelling</tspan></text>
    <text id="Cloud_Security" data-name="Cloud Security" transform="translate(1345.988 237.126)" font-size="12" font-family="OpenSans-Bold, Open Sans" font-weight="700"><tspan x="0" y="0">Cloud Security</tspan></text>
    <text id="Secrets_Management" data-name="Secrets Management" transform="translate(973.023 672.198)" font-size="12" font-family="OpenSans-Bold, Open Sans" font-weight="700"><tspan x="0" y="0">Secrets Management</tspan></text>
    <text id="ExamplePost" transform="translate(857.036 671.934)" font-size="12" font-family="OpenSans-Bold, Open Sans" font-weight="700"><tspan x="0" y="0">ExamplePost</tspan></text>
    <text id="DAST" transform="translate(708.536 444.846)" font-size="12" font-family="OpenSans-Bold, Open Sans" font-weight="700"><tspan x="0" y="0">DAST</tspan></text>
    <text id="Mobile_Security" data-name="Mobile Security" transform="translate(510.96 672.214)" font-size="12" font-family="OpenSans-Bold, Open Sans" font-weight="700"><tspan x="0" y="0">Mobile Security</tspan></text>
    <text id="SAST_Open_" data-name="SAST Open " transform="translate(418.62 443.218)" font-size="12" font-family="OpenSans-Bold, Open Sans" font-weight="700"><tspan x="0" y="0">SAST Open</tspan></text>
    <text id="Source_Security" data-name="Source Security" transform="translate(404.135 460.618)" font-size="12" font-family="OpenSans-Bold, Open Sans" font-weight="700"><tspan x="0" y="0">Source Security</tspan></text>
    <text id="SAST_Source_" data-name="SAST Source " transform="translate(514.367 219.142)" font-size="12" font-family="OpenSans-Bold, Open Sans" font-weight="700"><tspan x="0" y="0">SAST Source</tspan></text>
    <text id="Code_Analysis" data-name="Code Analysis" transform="translate(509.279 236.542)" font-size="12" font-family="OpenSans-Bold, Open Sans" font-weight="700"><tspan x="0" y="0">Code Analysis</tspan></text>
    <text id="Bug_Bounty_" data-name="Bug Bounty " transform="translate(1064.554 445.118)" font-size="12" font-family="OpenSans-Bold, Open Sans" font-weight="700"><tspan x="0" y="0">Bug Bounty</tspan></text>
    <text id="Hunting" transform="translate(1074.886 459.518)" font-size="12" font-family="OpenSans-Bold, Open Sans" font-weight="700"><tspan x="0" y="0">Hunting</tspan></text>
    <text id="Serverless" transform="translate(1374.138 672.202)" font-size="12" font-family="OpenSans-Bold, Open Sans" font-weight="700"><tspan x="0" y="0">Serverless</tspan></text>
    <path id="Path_48" data-name="Path 48" d="M611.563,207.089a26.261,26.261,0,0,0,0,52.523c.266,0,.525,0,.784-.007V234.134h25.47c.007-.258.007-.517.007-.783a26.288,26.288,0,0,0-26.261-26.262m-2.908,1.748a29.989,29.989,0,0,0-6.546,6.515,30.254,30.254,0,0,1-4.876-2.094,24.576,24.576,0,0,1,11.422-4.421M595.868,214.3a32.12,32.12,0,0,0,5.3,2.4,30.322,30.322,0,0,0-4.923,15.866h-9.352a24.674,24.674,0,0,1,8.975-18.265m-8.975,19.833h9.352a30.253,30.253,0,0,0,4.178,14.652,31.616,31.616,0,0,0-5.565,2.728,24.6,24.6,0,0,1-7.965-17.38m9.219,18.462a30.952,30.952,0,0,1,5.158-2.446,30.142,30.142,0,0,0,7.385,7.722,24.614,24.614,0,0,1-12.543-5.276m14.668,4.829a28.7,28.7,0,0,1-7.957-7.784,30.215,30.215,0,0,1,7.957-1.255Zm0-10.607a31.8,31.8,0,0,0-8.835,1.466,28.756,28.756,0,0,1-4.132-14.15H610.78Zm0-14.252H597.813a28.668,28.668,0,0,1,4.93-15.388,31.479,31.479,0,0,0,8.037,1.231Zm0-15.725a30.517,30.517,0,0,1-7.072-1,28.806,28.806,0,0,1,7.072-6.553Zm15.114-3.583a30.427,30.427,0,0,1-4.595,2.007,30.287,30.287,0,0,0-6.435-6.381,24.6,24.6,0,0,1,11.03,4.374m-13.547-4.193a28.579,28.579,0,0,1,7.346,6.694,30.41,30.41,0,0,1-7.346,1.082Zm0,23.5V218.409a32.335,32.335,0,0,0,8.317-1.309,28.715,28.715,0,0,1,4.987,15.466Zm14.871,0a30.245,30.245,0,0,0-4.993-15.968,31.949,31.949,0,0,0,5.032-2.3,24.676,24.676,0,0,1,8.984,18.265Zm8.033,15.19h-1.32V243.41a7.8,7.8,0,1,0-15.6,0v4.345h-1.32a2.188,2.188,0,0,0-2.187,2.186v11.924a2.189,2.189,0,0,0,2.187,2.187h18.237a2.19,2.19,0,0,0,2.187-2.187V249.942a2.189,2.189,0,0,0-2.187-2.186M619.9,243.411a6.234,6.234,0,0,1,12.46,0v4.345h-1.94V243.23a4.31,4.31,0,0,0-8.581,0v4.526H619.9Zm8.953,4.345h-5.447V243.23a2.756,2.756,0,0,1,5.447,0Zm7.013,14.11a.619.619,0,0,1-.618.619H617.014a.619.619,0,0,1-.619-.619V249.942a.619.619,0,0,1,.619-.618h18.237a.618.618,0,0,1,.618.618Zm-9.736-10.6a2.879,2.879,0,0,0-2.187,4.763v1.632a2.187,2.187,0,0,0,4.374,0v-1.632a2.88,2.88,0,0,0-2.187-4.763m.878,3.864-.26.233v2.3a.618.618,0,1,1-1.237,0v-2.3l-.26-.233a1.3,1.3,0,0,1-.442-.976,1.32,1.32,0,0,1,2.64,0,1.3,1.3,0,0,1-.441.976" transform="translate(481.57 164.221)" fill="#231f20"/>
    <g id="Group_6" data-name="Group 6" transform="translate(-76 -10)">
      <rect id="Rectangle_8" data-name="Rectangle 8" width="1.942" height="9.709" transform="translate(510.886 409.388)" fill="#231f20"/>
      <path id="Path_49" data-name="Path 49" d="M77.688,261.262H66.729l-.1-.853-.96-7.811v-.236a3.953,3.953,0,0,1,.49-1.518,2.1,2.1,0,0,1,1.24-1.012h0c.167-.044,2.724-.067,5.241-.067s5.081.023,5.248.067h0a2.1,2.1,0,0,1,1.24,1.012,3.953,3.953,0,0,1,.491,1.518v.236l-.96,7.811-.105.853Zm-9.242-1.942H76.83l.839-6.832a1.9,1.9,0,0,0-.217-.658c-.048-.081-.062-.124-.068-.125H67.9a1.022,1.022,0,0,1-.067.125,1.914,1.914,0,0,0-.217.659Z" transform="translate(454.57 167.221)" fill="#231f20"/>
      <path id="Path_50" data-name="Path 50" d="M62.153,240.872H51.194l-.1-.854-.96-7.811v-.235a3.953,3.953,0,0,1,.49-1.518,2.1,2.1,0,0,1,1.24-1.012h0c.167-.045,2.724-.067,5.241-.067s5.081.022,5.247.067h0a2.106,2.106,0,0,1,1.24,1.011,3.959,3.959,0,0,1,.491,1.519v.235l-.96,7.811-.1.854Zm-9.242-1.942h8.383l.84-6.832a1.9,1.9,0,0,0-.217-.658c-.048-.081-.062-.124-.068-.125H52.362c-.006,0-.019.043-.067.125a1.917,1.917,0,0,0-.217.658Z" transform="translate(454.57 167.221)" fill="#231f20"/>
      <path id="Path_51" data-name="Path 51" d="M61.684,224.415A4.582,4.582,0,0,1,57.1,229h0a4.576,4.576,0,1,1,4.582-4.579m-2.715,1.868a2.635,2.635,0,1,0-1.867.776h0a2.628,2.628,0,0,0,1.867-.773" transform="translate(454.57 167.221)" fill="#231f20"/>
      <path id="Path_52" data-name="Path 52" d="M45.027,261.262H34.068l-.1-.853L33,252.6v-.236a3.953,3.953,0,0,1,.49-1.518,2.1,2.1,0,0,1,1.24-1.012h0c.167-.044,2.724-.067,5.241-.067s5.081.023,5.247.067h0a2.1,2.1,0,0,1,1.24,1.012,3.953,3.953,0,0,1,.491,1.518v.236l-.96,7.811-.1.853Zm-9.242-1.942h8.383l.84-6.832a1.9,1.9,0,0,0-.217-.658c-.048-.081-.062-.124-.068-.125H35.236c-.006,0-.019.044-.067.125a1.894,1.894,0,0,0-.217.659Z" transform="translate(454.57 167.221)" fill="#231f20"/>
      <path id="Path_53" data-name="Path 53" d="M44.557,244.8a4.582,4.582,0,0,1-4.582,4.582h0a4.575,4.575,0,1,1,4.582-4.578m-2.715,1.867a2.634,2.634,0,1,0-1.867.777h0a2.632,2.632,0,0,0,1.867-.773" transform="translate(454.57 167.221)" fill="#231f20"/>
      <path id="Path_54" data-name="Path 54" d="M112.477,253.92l-8.69-8.691a4.8,4.8,0,0,0-4.444-1.289l-2.811-2.81-.2-.206a17.23,17.23,0,0,0,2-14.864,24.488,24.488,0,0,0-4.192-6.383,17.53,17.53,0,0,0-13.21-4.194l-1.221.176a16.243,16.243,0,0,0-4.111,1.375c-6.517,3.024-9.852,9.884-8.958,17.158a16.315,16.315,0,0,0,13.07,13.535,18.018,18.018,0,0,0,3.052.288,16.057,16.057,0,0,0,9.971-3.387l2.578,2.578a5.647,5.647,0,0,0,1.668,4.832l8.69,8.689a4.814,4.814,0,1,0,6.808-6.807M72.43,242.02a14.612,14.612,0,1,1,20.664,0,14.612,14.612,0,0,1-20.664,0m21.876,1.221a13.443,13.443,0,0,0,.911-1l2.432,2.433a4.421,4.421,0,0,0-.67.549,5.053,5.053,0,0,0-.55.663l-2.39-2.39c.1-.086.181-.172.267-.258m16.959,16.272a3.185,3.185,0,0,1-4.375,0l-8.69-8.69a3.048,3.048,0,0,1-.734-1.213l-.162-1.048a3.089,3.089,0,0,1,5.271-2.123l8.69,8.69a3.114,3.114,0,0,1,0,4.384M89.1,226.757,91.856,224l-1.215-1.216-2.358,2.358a6.114,6.114,0,0,0-11.07-.07l-1.9-1.9L74.1,224.39l2.286,2.287a13.054,13.054,0,0,0-.963,4.711H72.077v1.719h3.415a12.506,12.506,0,0,0,1.243,4.364l-2.244,2.244,1.215,1.216,1.957-1.958a6.411,6.411,0,0,0,5.063,2.827c2.318,0,4.388-1.5,5.727-3.838l2.578,2.577,1.216-1.215-2.986-2.985-.077.077a12.874,12.874,0,0,0,.776-3.309h2.746v-1.719H90.028a13.1,13.1,0,0,0-.929-4.631m-6.373-3.448c2.058,0,3.858,1.678,4.828,4.17H77.9c.97-2.492,2.771-4.17,4.828-4.17m0,16.772c-3.08,0-5.586-3.762-5.586-8.386a12.22,12.22,0,0,1,.253-2.5H88.059a12.22,12.22,0,0,1,.253,2.5c0,4.624-2.506,8.386-5.586,8.386" transform="translate(454.57 167.221)" fill="#231f20"/>
      <path id="Path_55" data-name="Path 55" d="M74.285,246.853a2.619,2.619,0,0,1-1.647.591h0a2.633,2.633,0,0,1-2.408-3.712,16.219,16.219,0,0,1-1.315-1.584,4.573,4.573,0,0,0,3.723,7.231h0a4.561,4.561,0,0,0,3.239-1.343,4.427,4.427,0,0,0,.289-.349,15.8,15.8,0,0,1-1.881-.842" transform="translate(454.57 167.221)" fill="#231f20"/>
      <rect id="Rectangle_7" data-name="Rectangle 7" width="15.492" height="1.942" transform="translate(503.927 419.127)" fill="#231f20"/>
    </g>
    <g id="Group_8" data-name="Group 8">
      <text id="Container_" data-name="Container " transform="translate(1253.864 445.314)" font-size="12" font-family="OpenSans-Bold, Open Sans" font-weight="700"><tspan x="0" y="0">Container</tspan></text>
      <text id="security" transform="translate(1259.491 459.714)" font-size="12" font-family="OpenSans-Bold, Open Sans" font-weight="700"><tspan x="0" y="0">security</tspan></text>
      <path id="Path_56" data-name="Path 56" d="M789.9,221.154a2.993,2.993,0,0,0-2.233,4.938v1.692a2.233,2.233,0,1,0,4.466,0v-1.692a3.011,3.011,0,0,0,.716-1.944,2.976,2.976,0,0,0-2.949-2.994m.9,4-.265.242v2.383a.633.633,0,1,1-1.265,0V225.4l-.264-.242a1.348,1.348,0,1,1,1.794,0" transform="translate(496.57 155.221)" fill="#231f20"/>
      <path id="Path_57" data-name="Path 57" d="M799.208,217.519H797.86v-4.5a7.964,7.964,0,1,0-15.927,0v4.5h-1.349a2.252,2.252,0,0,0-2.233,2.266v12.361a2.252,2.252,0,0,0,2.233,2.266h18.624a2.252,2.252,0,0,0,2.234-2.266V219.785a2.252,2.252,0,0,0-2.234-2.266m-15.675-4.5a6.364,6.364,0,1,1,12.727,0v4.5h-1.981v-4.692a4.4,4.4,0,0,0-8.764,0v4.692h-1.981Zm9.144-.188v4.692h-5.562v-4.692a2.808,2.808,0,0,1,5.562,0m7.163,19.319a.637.637,0,0,1-.632.641H780.584a.637.637,0,0,1-.632-.641V219.785a.637.637,0,0,1,.632-.641h18.624a.637.637,0,0,1,.632.641Z" transform="translate(496.57 155.221)" fill="#231f20"/>
      <path id="Path_58" data-name="Path 58" d="M807.609,237.665a1.778,1.778,0,0,0-.505-.225l-7.1-2.461a2.631,2.631,0,0,1-1,.2h-3.677L802.9,237.8c.408.142.408.495,0,.637l-21.388,7.417a3.712,3.712,0,0,1-2.325,0l-21.309-7.39c-.443-.153-.443-.538,0-.691l10.077-3.5,9.734-3.375v-1.825l-11.044,3.83-13.05,4.526a1.559,1.559,0,0,0-.563.263.469.469,0,0,0-.1.422v18.1a.965.965,0,0,0,.136.422c.083.139.53.263.53.263l13.05,4.525,13.049,4.526a1.924,1.924,0,0,0,.691.149,1.846,1.846,0,0,0,.62-.149l13.049-4.526,13.05-4.525a1.263,1.263,0,0,0,.5-.243.7.7,0,0,0,.161-.442v-18.1a.465.465,0,0,0-.161-.46m-28.078,25.522c0,.4-.726.654-1.307.453l-10.269-3.574-12.146-4.177c-.72-.25-1.163-.711-1.163-1.21V239.832c0-.277.5-.45.9-.312l22.652,7.833c.827.287,1.336.817,1.336,1.391Zm26.77-16.265v7.79c0,.5-.443.96-1.163,1.21l-12.4,4.144-9.909,3.436c-.516.179-1.164-.044-1.164-.4v-14.66c0-.5.444-.96,1.163-1.21l22.865-7.775c.268-.093.6.023.6.209Z" transform="translate(497.57 155.221)" fill="#231f20"/>
      <path id="Path_59" data-name="Path 59" d="M785.57,248.837V259.79l-1.9.667V249.5Zm1-1.41-3.9,1.368v13.072l3.9-1.368Z" transform="translate(497.57 155.221)" fill="#231f20"/>
      <path id="Path_60" data-name="Path 60" d="M790.322,247.262v10.953l-1.905.667V247.93Zm1-1.41-3.9,1.368v13.072l3.905-1.368Z" transform="translate(497.57 155.221)" fill="#231f20"/>
      <path id="Path_61" data-name="Path 61" d="M795.088,245.655v10.953l-1.905.667V246.323Zm1-1.41-3.905,1.368v13.072l3.905-1.368Z" transform="translate(497.57 155.221)" fill="#231f20"/>
      <path id="Path_62" data-name="Path 62" d="M799.8,243.992v10.953l-1.9.667V244.66Zm1-1.41-3.9,1.368v13.072l3.9-1.368Z" transform="translate(497.57 155.221)" fill="#231f20"/>
      <path id="Path_63" data-name="Path 63" d="M804.455,242.329v10.952l-1.9.668V243Zm1-1.41-3.9,1.368v13.072l3.9-1.368Z" transform="translate(497.57 155.221)" fill="#231f20"/>
    </g>
    <g id="Group_7" data-name="Group 7" transform="translate(81 51)">
      <path id="Path_64" data-name="Path 64" d="M923.342,396.361c1.109-.011,2.219,0,3.328-.006.3.6.511,1.231.755,1.85q1.609,4.029,3.217,8.061a7.732,7.732,0,0,0,.348.835,1.254,1.254,0,0,0,.51-.086c.436-.139.866-.3,1.312-.4.252.614.428,1.255.638,1.884-.6.243-1.225.406-1.837.608-.707.2-1.39.478-2.1.647-.077-.159-.152-.317-.219-.48-.531-1.388-1.1-2.761-1.637-4.146-.248-.561-.428-1.15-.706-1.7-.735,1.054-1.442,2.127-2.173,3.186-.462.72-.985,1.4-1.439,2.124-.1.145-.209.344-.412.347-.816.036-1.629-.057-2.443-.063.9-1.321,1.739-2.686,2.609-4.028.859-1.278,1.657-2.594,2.509-3.876.088-.156.237-.314.188-.505-.07-.356-.222-.688-.324-1.034a8.815,8.815,0,0,0-.37-1.087c-.584,0-1.168.008-1.752-.006,0-.71-.006-1.42,0-2.131" transform="translate(454.57 167.221)" fill="#231f20"/>
      <rect id="Rectangle_9" data-name="Rectangle 9" width="41.726" height="1.311" transform="translate(1328.953 571.238)" fill="#231f20"/>
      <rect id="Rectangle_10" data-name="Rectangle 10" width="12.37" height="1.311" transform="translate(1349.044 586.12)" fill="#231f20"/>
      <rect id="Rectangle_11" data-name="Rectangle 11" width="12.37" height="1.311" transform="translate(1349.044 556.37)" fill="#231f20"/>
      <rect id="Rectangle_12" data-name="Rectangle 12" width="1.312" height="30.717" transform="translate(1349.06 556.357)" fill="#231f20"/>
      <path id="Path_65" data-name="Path 65" d="M806.424,422.778h59.4V384.555h-59.4Zm1.5-36.72h56.4v35.219h-56.4ZM868.79,424.75V384.32a2.946,2.946,0,0,0-2.933-3.021H806.029a2.946,2.946,0,0,0-2.932,3.021v40.43h-9.2v1.873a2.98,2.98,0,0,0,2.93,3.02h78.236a2.979,2.979,0,0,0,2.93-3.02V424.75ZM804.6,384.32a1.444,1.444,0,0,1,1.43-1.519h59.828a1.444,1.444,0,0,1,1.431,1.519v40.423H804.6Zm71.891,42.3a1.478,1.478,0,0,1-1.429,1.518H796.825a1.477,1.477,0,0,1-1.428-1.518v-.371H876.49Z" transform="translate(454.57 167.221)" fill="#231f20"/>
      <path id="Path_66" data-name="Path 66" d="M847.279,397.75l-5.408-3.122-5.407-3.122a.455.455,0,0,0-.271-.116.468.468,0,0,0-.273.116l-5.408,3.122L825.1,397.75a.59.59,0,0,0-.234.183.5.5,0,0,0-.043.291v12.489a1.075,1.075,0,0,0,.056.292c.035.1.221.181.221.181l5.408,3.122,5.408,3.123a.41.41,0,0,0,.544,0l5.407-3.123,5.408-3.122a.469.469,0,0,0,.211-.168.722.722,0,0,0,.066-.3V398.224a.476.476,0,0,0-.066-.318.649.649,0,0,0-.211-.156m-16.224-2.177,4.656-2.687a.961.961,0,0,1,.962,0l4.655,2.687L845.537,398a.253.253,0,0,1,0,.439l-8.864,5.118a.961.961,0,0,1-.962,0l-8.833-5.1a.275.275,0,0,1,0-.477ZM826.4,410.678a.965.965,0,0,1-.481-.835V399.6a.247.247,0,0,1,.371-.215l8.8,5.078a1.107,1.107,0,0,1,.554.959v9.966a.36.36,0,0,1-.541.312l-4.048-2.336Zm20.057-.835a.966.966,0,0,1-.482.835l-4.651,2.685-4.106,2.371a.322.322,0,0,1-.482-.279V405.338a.964.964,0,0,1,.481-.835l8.99-5.189a.166.166,0,0,1,.25.143Z" transform="translate(454.57 167.221)" fill="#231f20"/>
      <path id="Path_67" data-name="Path 67" d="M919.383,386.768a1.553,1.553,0,0,0-1.54,1.563,1.575,1.575,0,0,0,.374,1.014v.882a1.166,1.166,0,1,0,2.331,0v-.882a1.569,1.569,0,0,0,.374-1.014,1.553,1.553,0,0,0-1.539-1.563m.468,2.09-.139.126v1.243a.33.33,0,1,1-.659,0v-1.243l-.139-.126a.7.7,0,1,1,.937,0" transform="translate(454.57 167.221)" fill="#231f20"/>
      <path id="Path_68" data-name="Path 68" d="M924.243,384.87h-.7v-2.35a4.156,4.156,0,0,0-8.312,0v2.35h-.7a1.175,1.175,0,0,0-1.165,1.183V392.5a1.176,1.176,0,0,0,1.165,1.183h9.72a1.176,1.176,0,0,0,1.165-1.183v-6.451a1.175,1.175,0,0,0-1.165-1.183m-8.181-2.35a3.322,3.322,0,0,1,6.642,0v2.35H921.67v-2.449a2.294,2.294,0,0,0-4.574,0v2.449h-1.034Zm4.773-.1v2.449h-2.9v-2.449a1.466,1.466,0,0,1,2.9,0m3.738,10.083a.332.332,0,0,1-.33.334h-9.72a.332.332,0,0,1-.33-.334v-6.451a.333.333,0,0,1,.33-.335h9.72a.333.333,0,0,1,.33.335Z" transform="translate(454.57 167.221)" fill="#231f20"/>
      <path id="Path_69" data-name="Path 69" d="M915.7,406.229l1.68-1.679-1.68-1.679.923-.923,2.14,2.14.462.462-.462.461-2.14,2.141Z" transform="translate(454.57 167.221)" fill="#231f20"/>
      <path id="Path_70" data-name="Path 70" d="M906.62,421.324l1.679-1.68-1.679-1.678.922-.923,2.141,2.14.461.461-.461.462-2.141,2.141Z" transform="translate(454.57 167.221)" fill="#231f20"/>
      <path id="Path_71" data-name="Path 71" d="M906.536,391.455l1.68-1.68-1.68-1.678.923-.923,2.14,2.14.462.461-.462.462-2.14,2.141Z" transform="translate(454.57 167.221)" fill="#231f20"/>
      <path id="Path_72" data-name="Path 72" d="M919.493,412.241c1.734,0,3.47-.005,5.206,0l-1.258,1.894c-.724,1.081-1.427,2.176-2.156,3.252,1.179.006,2.357,0,3.536,0-2.432,3.385-4.842,6.786-7.286,10.161a7.686,7.686,0,0,1,.421-1.374c.713-2.073,1.434-4.143,2.144-6.217-1.125-.006-2.251,0-3.376,0,.914-2.576,1.858-5.142,2.769-7.72" transform="translate(454.57 167.221)" fill="#231f20"/>
      <path id="Path_73" data-name="Path 73" d="M923.711,415.292c.074-.231.345-.277.535-.378,1.589,1.513,3.179,3.026,4.747,4.559-.005.171-.009.342-.014.515-.735.611-1.358,1.338-2.077,1.967-.891.881-1.77,1.773-2.683,2.629-.2-.066-.5-.06-.574-.308-.1-.344.249-.564.446-.786,1.126-1.145,2.308-2.234,3.433-3.383a.92.92,0,0,0,.257-.4c-.052-.242-.265-.394-.426-.561-1.094-1.072-2.2-2.13-3.306-3.19-.158-.185-.45-.382-.338-.664" transform="translate(454.57 167.221)" fill="#231f20"/>
      <path id="Path_74" data-name="Path 74" d="M916.763,415.038c.362-.271.915.349.543.65-1.173,1.214-2.392,2.381-3.6,3.561-.212.176-.414.5-.175.742,1.243,1.293,2.552,2.522,3.8,3.809a.5.5,0,0,1,.081.6c-.145.151-.368.131-.557.156-.758-.679-1.471-1.4-2.221-2.09-.742-.713-1.522-1.387-2.2-2.166-.145-.18-.38-.342-.343-.6-.022-.221.181-.357.309-.506.972-.967,1.983-1.9,2.964-2.857.493-.4.877-.921,1.391-1.294" transform="translate(454.57 167.221)" fill="#231f20"/>
    </g>
  </g>
</svg>
