<svg id="user" xmlns="http://www.w3.org/2000/svg" width="24.776" height="24" viewBox="0 0 24.776 24">
  <g id="Сгруппировать_1" data-name="Сгруппировать 1" transform="translate(0)">
    <path id="Контур_1" data-name="Контур 1" d="M21.148,15.515a12.4,12.4,0,0,0-4.708-2.86,6.877,6.877,0,0,0,3.11-5.717A7.06,7.06,0,0,0,12.388,0,7.06,7.06,0,0,0,5.226,6.938a6.877,6.877,0,0,0,3.11,5.717,12.4,12.4,0,0,0-4.708,2.86A11.736,11.736,0,0,0,0,24H1.936A10.3,10.3,0,0,1,12.388,13.875,10.3,10.3,0,0,1,22.841,24h1.936A11.736,11.736,0,0,0,21.148,15.515ZM12.388,12A5.152,5.152,0,0,1,7.162,6.938a5.152,5.152,0,0,1,5.226-5.062,5.152,5.152,0,0,1,5.226,5.063A5.152,5.152,0,0,1,12.388,12Z" transform="translate(0)" fill="#fff"/>
  </g>
</svg>
