<svg xmlns="http://www.w3.org/2000/svg" xmlns:xlink="http://www.w3.org/1999/xlink" width="268" height="182" viewBox="0 0 268 182">
  <defs>
    <clipPath id="clip-path">
      <rect id="Rectangle_155" data-name="Rectangle 155" width="268" height="182" transform="translate(0 104)" fill="none"/>
    </clipPath>
  </defs>
  <g id="Group_662" data-name="Group 662" transform="translate(0 -104)">
    <g id="Group_661" data-name="Group 661" clip-path="url(#clip-path)">
      <g id="Group_620" data-name="Group 620">
        <g id="Group_619" data-name="Group 619">
          <g id="Group_613" data-name="Group 613">
            <path id="Path_1947" data-name="Path 1947" d="M102.222,121.339l-.8,7.077L91.206,111.29l.8-7.077Z" fill="#27393d"/>
          </g>
          <g id="Group_614" data-name="Group 614">
            <path id="Path_1948" data-name="Path 1948" d="M125.524,160.426l-.8,7.077-10.212-17.126.8-7.077Z" fill="#27393d"/>
          </g>
          <g id="Group_615" data-name="Group 615">
            <path id="Path_1949" data-name="Path 1949" d="M158.583,112.52l-.8,7.077L124.72,167.5l.8-7.077Z" fill="#27393d"/>
          </g>
          <g id="Group_616" data-name="Group 616">
            <path id="Path_1950" data-name="Path 1950" d="M-125.429,239.482l-.8,7.077-13.1-21.956.8-7.077Z" fill="#6e6e6e"/>
          </g>
          <g id="Group_617" data-name="Group 617">
            <path id="Path_1951" data-name="Path 1951" d="M115.312,143.3l-.8,7.077L-126.23,246.559l.8-7.077Z" fill="#27393d"/>
          </g>
          <g id="Group_618" data-name="Group 618">
            <path id="Path_1952" data-name="Path 1952" d="M92.01,104.213l66.573,8.307-33.058,47.907L115.312,143.3-125.43,239.481l-13.1-21.956,240.748-96.187Z" fill="#59c0af"/>
          </g>
        </g>
      </g>
      <g id="Group_628" data-name="Group 628">
        <g id="Group_627" data-name="Group 627">
          <g id="Group_621" data-name="Group 621">
            <path id="Path_1953" data-name="Path 1953" d="M117.817,224.925l-.5,4.427-6.388-10.712.5-4.427Z" fill="#27393d"/>
          </g>
          <g id="Group_622" data-name="Group 622">
            <path id="Path_1954" data-name="Path 1954" d="M132.392,249.375l-.5,4.427L125.5,243.089l.5-4.427Z" fill="#27393d"/>
          </g>
          <g id="Group_623" data-name="Group 623">
            <path id="Path_1955" data-name="Path 1955" d="M153.071,219.409l-.5,4.427L131.889,253.8l.5-4.427Z" fill="#27393d"/>
          </g>
          <g id="Group_624" data-name="Group 624">
            <path id="Path_1956" data-name="Path 1956" d="M-24.583,298.825l-.5,4.427-8.192-13.734.5-4.427Z" fill="#6e6e6e"/>
          </g>
          <g id="Group_625" data-name="Group 625">
            <path id="Path_1957" data-name="Path 1957" d="M126,238.663l-.5,4.427L-25.086,303.252l.5-4.427Z" fill="#27393d"/>
          </g>
          <g id="Group_626" data-name="Group 626">
            <path id="Path_1958" data-name="Path 1958" d="M111.429,214.212l41.642,5.2-20.678,29.966L126,238.663-24.583,298.825l-8.192-13.734,150.591-60.167Z" fill="#59c0af"/>
          </g>
        </g>
      </g>
      <g id="Group_636" data-name="Group 636">
        <g id="Group_635" data-name="Group 635">
          <g id="Group_629" data-name="Group 629">
            <path id="Path_1959" data-name="Path 1959" d="M199.613,233.183l-.785,6.909-9.969-16.719.785-6.909Z" fill="#27393d"/>
          </g>
          <g id="Group_630" data-name="Group 630">
            <path id="Path_1960" data-name="Path 1960" d="M222.361,271.341l-.785,6.909-9.969-16.719.785-6.909Z" fill="#27393d"/>
          </g>
          <g id="Group_631" data-name="Group 631">
            <path id="Path_1961" data-name="Path 1961" d="M254.633,224.574l-.785,6.909L221.576,278.25l.785-6.909Z" fill="#27393d"/>
          </g>
          <g id="Group_632" data-name="Group 632">
            <path id="Path_1962" data-name="Path 1962" d="M-22.624,348.516l-.785,6.909-12.785-21.434.785-6.909Z" fill="#6e6e6e"/>
          </g>
          <g id="Group_633" data-name="Group 633">
            <path id="Path_1963" data-name="Path 1963" d="M212.391,254.623l-.785,6.909L-23.409,355.425l.785-6.909Z" fill="#27393d"/>
          </g>
          <g id="Group_634" data-name="Group 634">
            <path id="Path_1964" data-name="Path 1964" d="M189.644,216.464l64.989,8.11-32.272,46.767-9.969-16.719L-22.624,348.516l-12.785-21.434,235.021-93.9Z" fill="#59c0af"/>
          </g>
        </g>
      </g>
      <g id="Group_644" data-name="Group 644">
        <g id="Group_643" data-name="Group 643">
          <g id="Group_637" data-name="Group 637">
            <path id="Path_1965" data-name="Path 1965" d="M159.568,246.35l-.418,3.681-5.312-8.909.418-3.681Z" fill="#27393d"/>
          </g>
          <g id="Group_638" data-name="Group 638">
            <path id="Path_1966" data-name="Path 1966" d="M171.69,266.682l-.418,3.681-5.312-8.909.418-3.681Z" fill="#27393d"/>
          </g>
          <g id="Group_639" data-name="Group 639">
            <path id="Path_1967" data-name="Path 1967" d="M188.886,241.762l-.418,3.681-17.2,24.92.418-3.681Z" fill="#27393d"/>
          </g>
          <g id="Group_640" data-name="Group 640">
            <path id="Path_1968" data-name="Path 1968" d="M41.148,307.806l-.418,3.681-6.812-11.421.418-3.681Z" fill="#6e6e6e"/>
          </g>
          <g id="Group_641" data-name="Group 641">
            <path id="Path_1969" data-name="Path 1969" d="M166.378,257.774l-.418,3.681L40.729,311.487l.418-3.681Z" fill="#27393d"/>
          </g>
          <g id="Group_642" data-name="Group 642">
            <path id="Path_1970" data-name="Path 1970" d="M154.256,237.441l34.63,4.321-17.2,24.92-5.312-8.909L41.148,307.806l-6.812-11.421L159.568,246.35Z" fill="#54a2c5"/>
          </g>
        </g>
      </g>
      <g id="Group_652" data-name="Group 652">
        <g id="Group_651" data-name="Group 651">
          <g id="Group_645" data-name="Group 645">
            <path id="Path_1971" data-name="Path 1971" d="M35.283,134.815l-.678,5.963L26,126.348l.677-5.963Z" fill="#27393d"/>
          </g>
          <g id="Group_646" data-name="Group 646">
            <path id="Path_1972" data-name="Path 1972" d="M54.917,167.749l-.677,5.963-8.6-14.43.677-5.963Z" fill="#27393d"/>
          </g>
          <g id="Group_647" data-name="Group 647">
            <path id="Path_1973" data-name="Path 1973" d="M82.772,127.384l-.677,5.963L54.24,173.712l.677-5.963Z" fill="#27393d"/>
          </g>
          <g id="Group_648" data-name="Group 648">
            <path id="Path_1974" data-name="Path 1974" d="M-156.531,234.36l-.677,5.963-11.035-18.5.677-5.963Z" fill="#6e6e6e"/>
          </g>
          <g id="Group_649" data-name="Group 649">
            <path id="Path_1975" data-name="Path 1975" d="M46.313,153.32l-.677,5.963-202.844,81.04.677-5.963Z" fill="#27393d"/>
          </g>
          <g id="Group_650" data-name="Group 650">
            <path id="Path_1976" data-name="Path 1976" d="M26.679,120.385l56.093,7L54.917,167.749l-8.6-14.43-202.844,81.04-11.035-18.5L35.283,134.815Z" fill="#54a2c5"/>
          </g>
        </g>
      </g>
      <g id="Group_660" data-name="Group 660">
        <g id="Group_659" data-name="Group 659">
          <g id="Group_653" data-name="Group 653">
            <path id="Path_1977" data-name="Path 1977" d="M195.075,129.32l-1.046,9.206-13.285-22.279,1.046-9.206Z" fill="#27393d"/>
          </g>
          <g id="Group_654" data-name="Group 654">
            <path id="Path_1978" data-name="Path 1978" d="M225.388,180.169l-1.046,9.206L211.057,167.1l1.046-9.206Z" fill="#27393d"/>
          </g>
          <g id="Group_655" data-name="Group 655">
            <path id="Path_1979" data-name="Path 1979" d="M268.393,117.848l-1.046,9.206-43.005,62.321,1.046-9.206Z" fill="#27393d"/>
          </g>
          <g id="Group_656" data-name="Group 656">
            <path id="Path_1980" data-name="Path 1980" d="M-101.074,283.011l-1.046,9.207-17.037-28.562,1.046-9.206Z" fill="#d66707"/>
          </g>
          <g id="Group_657" data-name="Group 657">
            <path id="Path_1981" data-name="Path 1981" d="M212.1,157.89l-1.046,9.206L-102.119,292.217l1.046-9.207Z" fill="#27393d"/>
          </g>
          <g id="Group_658" data-name="Group 658">
            <path id="Path_1982" data-name="Path 1982" d="M181.79,107.041l86.6,10.807-43.005,62.321L212.1,157.89-101.074,283.011l-17.037-28.562L195.075,129.32Z" fill="#54a2c5"/>
          </g>
        </g>
      </g>
    </g>
  </g>
</svg>
