<svg id="Group_612" data-name="Group 612" xmlns="http://www.w3.org/2000/svg" xmlns:xlink="http://www.w3.org/1999/xlink" width="500" height="500" viewBox="0 0 500 500">
  <defs>
    <clipPath id="clip-path">
      <rect id="Rectangle_154" data-name="Rectangle 154" width="500" height="500" fill="none" opacity="0.36"/>
    </clipPath>
  </defs>
  <g id="Group_611" data-name="Group 611" clip-path="url(#clip-path)">
    <path id="Path_1873" data-name="Path 1873" d="M494.833,390.361l-85.939,5.213-.576,5.307-15.632.791-1.1,10.835c-4.814-2.045-12.9-5.5-21.967-9.439-14.569-6.334-15.2-12.035-34.2-10.768s-43.073,7.6-60.175,15.836-30.4,5.7-40.538,10.134c-4.8,2.1-10.016,4.624-13.85,8.043-5.8-3.749-14.65-9.123-20.887-10.338a20.5,20.5,0,0,0-9.31.327c-4.526-3.729-9.764-7.545-14.016-9.078a20.386,20.386,0,0,0-10.069-.985,37.417,37.417,0,0,0-7.878-5.388c-8.234-3.8-16.785-1.267-17.735,1.9-.64,2.133,1.737,7.714,3.357,11.13-4.059,3.3-3.194,8.651.915,14.845.037.057.074.113.112.169q.4.6.844,1.209l.155.211c.305.416.619.834.951,1.256,6.967,8.868,34.838,26.6,56.374,33.571s54.473,6.967,68.408,5.7,52.574-11.4,70.943-9.5c11.483,1.188,30.393,4.357,42.956,6.565l-.861,8.5L399.627,481l-.373,3.437L414.612,500.8l110.7,16.084Z" fill="#bfbfbf" opacity="0.36"/>
    <g id="Group_600" data-name="Group 600" opacity="0.16">
      <path id="Path_1874" data-name="Path 1874" d="M246.844,54.9s8.885,1.307,12.02,2.352,33.971,39.98,35.277,44.161-2.112,33.815-5.237,40.687S246.844,54.9,246.844,54.9Z"/>
      <path id="Path_1875" data-name="Path 1875" d="M229.337,84.947,210.7,96.1l15.33,26.654,47.558,18.118V104.981L254.074,79.2Z"/>
      <path id="Path_1876" data-name="Path 1876" d="M230.643,86.515s15.417,18.03,20.9,25.347,7.316,24.04,7.316,24.04l-35.015-22.211L210.7,91.218l5.836-8.362Z"/>
      <path id="Path_1877" data-name="Path 1877" d="M74.118,95.4s64.805-23.518,76.825-26.131,81.007-18.292,90.936-18.292,46.514,46.514,49.127,53.83-3.136,55.921-8.362,60.1-16.2-11.5-17.247-23-1.045-30.312-2.09-35.538-16.937-20.741-18.815-20.9c-12.02-1.045-28.221,9.93-28.221,9.93"/>
      <path id="Path_1878" data-name="Path 1878" d="M281.629,146.57c-9.638-10.173-8.031-36.946-9.638-41.23S252.715,77.5,247.36,77.5s-13.386,0-22.489,3.748-22.489,13.387-22.489,13.387l-.143.768h14.032s16.2-10.975,28.221-9.93c1.878.164,17.77,15.679,18.815,20.9s1.045,24.041,2.09,35.538,12.021,27.177,17.247,23c1.177-.942,2.381-4.152,3.51-8.625A18.936,18.936,0,0,0,281.629,146.57Z"/>
      <path id="Path_1879" data-name="Path 1879" d="M98.159,157.591s33.447-20.9,43.377-23.518,26.131,4.7,42.332,5.749,35.016.523,45.991,6.271,30.835,23.518,40.764,23,16-7.436,8.362-21.95c-10.452-19.86-44.863-36.181-50.171-39.719-9.407-6.272-9.93-14.111-19.337-18.815s-90.413,0-90.413,0L80.39,93.831,67.324,99.058Z"/>
      <path id="Path_1880" data-name="Path 1880" d="M270.623,169.089c-19.859-8.362-32.925-29.79-41.809-32.4s-32.925-10.975-44.946-12.02-41.809-10.975-48.081-9.407c-5.942,1.485-45.17,18.443-49.276,20.221l11.648,22.111s33.447-20.9,43.377-23.518,26.131,4.7,42.332,5.749,35.016.523,45.991,6.271S260.694,169.611,270.623,169.089Z"/>
      <path id="Path_1881" data-name="Path 1881" d="M56.349,95.4l18.814-4.181,27.176,70.031L83,173.792Z"/>
      <path id="Path_1882" data-name="Path 1882" d="M69.108,117.895,86.28,171.666l16.059-10.417L81.8,108.33Z"/>
      <path id="Path_1883" data-name="Path 1883" d="M-17.863,104.806,57.917,89.65l32.925,83.1L80.39,192.607-22.044,237.552Z"/>
      <path id="Path_1884" data-name="Path 1884" d="M90.842,172.747,69.108,117.895,44.5,160.378l-64.7,18.489-1.848,58.684L80.39,192.607Z"/>
      <circle id="Ellipse_66" data-name="Ellipse 66" cx="8.362" cy="8.362" r="8.362" transform="translate(61.183 167.532)"/>
      <path id="Path_1885" data-name="Path 1885" d="M74.886,169.509a8.275,8.275,0,0,1,.408,2.454,8.318,8.318,0,0,1-13.7,6.385,8.337,8.337,0,1,0,13.294-8.839Z"/>
      <path id="Path_1886" data-name="Path 1886" d="M210.508,89.154l-8.126,5.477s-1.964,1.291-2.138,1.813,20.9,6.795,28.57,10.976C220.731,102.031,222.717,95.748,210.508,89.154Z"/>
      <path id="Path_1887" data-name="Path 1887" d="M260.432,141.912c-4.62.3-9.929,5.488-8.362,12.282s12.8,12.8,15.94,12.8,11.5-5.226,10.453-10.975S268.533,141.39,260.432,141.912Z"/>
      <path id="Path_1888" data-name="Path 1888" d="M268.01,167a9.946,9.946,0,0,0,4.42-1.628c-.906-.435-1.7-.817-2.172-1.113-4.21-2.612-9.25-6.6-10.824-11.618-1.184-3.771-.2-8.867,3.592-10.57a11.563,11.563,0,0,0-2.594-.157c-4.62.3-9.929,5.488-8.362,12.282S264.875,167,268.01,167Z"/>
    </g>
    <g id="Group_604" data-name="Group 604" opacity="0.16">
      <g id="Group_601" data-name="Group 601">
        <path id="Path_1889" data-name="Path 1889" d="M252.148,237.206v67.136l11.989,7.847,11.117-8.5v-6.321l-6.539-6.539,7.3-7.3-7.847-7.847,7.575-7.575-7.629-7.629,7.411-7.411V237.206Z"/>
        <path id="Path_1890" data-name="Path 1890" d="M252.148,247a37.073,37.073,0,0,0,23.378.166v-9.961H252.148Z"/>
        <path id="Path_1891" data-name="Path 1891" d="M264.082,168.326a37.055,37.055,0,1,0,37.056,37.055A37.055,37.055,0,0,0,264.082,168.326Zm0,31.824a10.9,10.9,0,1,1,10.9-10.9A10.9,10.9,0,0,1,264.082,200.15Z"/>
        <path id="Path_1892" data-name="Path 1892" d="M264.082,173.775a15.476,15.476,0,1,0,15.476,15.476A15.476,15.476,0,0,0,264.082,173.775Zm0,26.375a10.9,10.9,0,1,1,10.9-10.9A10.9,10.9,0,0,1,264.082,200.15Z"/>
        <path id="Path_1893" data-name="Path 1893" d="M274.981,217.152h-21.8a5.886,5.886,0,0,0,0,11.771h21.8a5.886,5.886,0,0,0,0-11.771Z"/>
        <path id="Path_1894" data-name="Path 1894" d="M254.927,306.161l3.052,2v-63.65h-3.052Z"/>
        <path id="Path_1895" data-name="Path 1895" d="M260.1,309.549l2.071,1.355v-66.4H260.1Z"/>
      </g>
      <g id="Group_602" data-name="Group 602">
        <path id="Path_1896" data-name="Path 1896" d="M277.794,170.949a36.806,36.806,0,0,1,5.567,2.794,22.653,22.653,0,0,0,1.29-16.968c-1.749.041-4.068-.013-6.76-.152a16.39,16.39,0,0,1-.1,14.326Z"/>
        <path id="Path_1897" data-name="Path 1897" d="M268.423,179.282a16.537,16.537,0,1,1-5.475-32.14c.33,0,.653.03.978.049a7.061,7.061,0,0,0,3.287-5.87,22.773,22.773,0,1,0,6.313,42.527A10.9,10.9,0,0,0,268.423,179.282Z"/>
      </g>
      <g id="Group_603" data-name="Group 603">
        <path id="Path_1898" data-name="Path 1898" d="M277.794,238.1c.733.292,1.45.613,2.159.95a18.681,18.681,0,0,0,.487-15.169c-.81-.027-1.649-.06-2.549-.107a16.39,16.39,0,0,1-.1,14.326Z"/>
        <path id="Path_1899" data-name="Path 1899" d="M268.423,246.437a16.537,16.537,0,1,1-5.475-32.14c.33,0,.653.03.978.049a7.385,7.385,0,0,0,2-1.987,18.811,18.811,0,1,0-2.927,37.392,18.709,18.709,0,0,0,7.949-1.779A10.88,10.88,0,0,0,268.423,246.437Z"/>
      </g>
    </g>
    <g id="Group_608" data-name="Group 608">
      <g id="Group_605" data-name="Group 605">
        <path id="Path_1900" data-name="Path 1900" d="M250.7,217.079v67.136l11.989,7.847,11.117-8.5V277.24l-6.539-6.539,7.3-7.3-7.847-7.847,7.575-7.575-7.629-7.629,7.411-7.411V217.079Z" fill="#ffca05"/>
        <path id="Path_1901" data-name="Path 1901" d="M250.7,226.874a37.053,37.053,0,0,0,23.378.166v-9.961H250.7Z" fill="#f6921e"/>
        <path id="Path_1902" data-name="Path 1902" d="M262.636,148.2a37.056,37.056,0,1,0,37.056,37.056A37.056,37.056,0,0,0,262.636,148.2Zm0,31.825a10.9,10.9,0,1,1,10.9-10.9A10.9,10.9,0,0,1,262.636,180.024Z" fill="#ffca05"/>
        <path id="Path_1903" data-name="Path 1903" d="M262.636,153.649a15.476,15.476,0,1,0,15.477,15.476A15.476,15.476,0,0,0,262.636,153.649Zm0,26.375a10.9,10.9,0,1,1,10.9-10.9A10.9,10.9,0,0,1,262.636,180.024Z" fill="#f6921e"/>
        <path id="Path_1904" data-name="Path 1904" d="M273.535,197.026h-21.8a5.885,5.885,0,1,0,0,11.77h21.8a5.885,5.885,0,1,0,0-11.77Z" fill="#f6921e"/>
        <path id="Path_1905" data-name="Path 1905" d="M253.481,286.035l3.052,2v-63.65h-3.052Z" fill="#f6921e"/>
        <path id="Path_1906" data-name="Path 1906" d="M258.658,289.423l2.071,1.355v-66.4h-2.071Z" fill="#f6921e"/>
      </g>
      <g id="Group_606" data-name="Group 606">
        <path id="Path_1907" data-name="Path 1907" d="M276.348,150.823a36.9,36.9,0,0,1,5.567,2.793,22.651,22.651,0,0,0,1.29-16.967c-1.749.041-4.068-.013-6.76-.152a16.39,16.39,0,0,1-.1,14.326Z" fill="#c6cbd9"/>
        <path id="Path_1908" data-name="Path 1908" d="M266.977,159.155a16.537,16.537,0,1,1-5.475-32.139c.33,0,.653.03.978.049a7.059,7.059,0,0,0,3.287-5.87,22.773,22.773,0,1,0,6.313,42.527A10.905,10.905,0,0,0,266.977,159.155Z" fill="#c6cbd9"/>
      </g>
      <g id="Group_607" data-name="Group 607">
        <path id="Path_1909" data-name="Path 1909" d="M277.809,151.491c.732.292,1.45.613,2.158.95a18.67,18.67,0,0,0,.487-15.169c-.809-.027-1.648-.061-2.548-.107a16.39,16.39,0,0,1-.1,14.326Z" fill="#a4b3c3"/>
        <path id="Path_1910" data-name="Path 1910" d="M265.426,160.712a16.537,16.537,0,1,1-5.475-32.14c.33,0,.653.03.978.05a7.4,7.4,0,0,0,2-1.987,18.813,18.813,0,1,0,5.022,35.612A10.88,10.88,0,0,0,265.426,160.712Z" fill="#a4b3c3"/>
      </g>
    </g>
    <g id="Group_609" data-name="Group 609">
      <path id="Path_1911" data-name="Path 1911" d="M245.4,34.77s8.885,1.306,12.021,2.352S291.389,77.1,292.7,81.283s-2.113,33.814-5.237,40.686S245.4,34.77,245.4,34.77Z" fill="#fbbd81"/>
      <path id="Path_1912" data-name="Path 1912" d="M227.891,64.821,209.25,75.97l15.33,26.654,47.559,18.118V84.854L252.628,59.072Z" fill="#f7a06c"/>
      <path id="Path_1913" data-name="Path 1913" d="M229.2,66.388s15.417,18.031,20.9,25.347,7.317,24.041,7.317,24.041L222.4,93.565,209.25,71.092l5.836-8.362Z" fill="#f79861"/>
      <path id="Path_1914" data-name="Path 1914" d="M72.672,75.273S137.477,51.755,149.5,49.142,230.5,30.85,240.434,30.85s46.513,46.513,49.126,53.83-3.136,55.921-8.362,60.1-16.2-11.5-17.247-23-1.045-30.312-2.09-35.538-16.937-20.742-18.814-20.9c-12.021-1.045-28.222,9.93-28.222,9.93" fill="#ffd8a3"/>
      <path id="Path_1915" data-name="Path 1915" d="M280.184,126.444c-9.639-10.174-8.032-36.947-9.639-41.23S251.269,57.37,245.914,57.37s-13.386,0-22.489,3.748S200.936,74.5,200.936,74.5l-.143.768h14.032s16.2-10.975,28.222-9.93c1.877.163,17.769,15.679,18.814,20.9s1.045,24.041,2.09,35.538,12.021,27.176,17.247,23c1.178-.942,2.381-4.152,3.51-8.625A18.935,18.935,0,0,0,280.184,126.444Z" fill="#fbbd81"/>
      <path id="Path_1916" data-name="Path 1916" d="M96.713,137.465s33.448-20.9,43.377-23.518,26.131,4.7,42.333,5.749,35.015.522,45.99,6.271,30.835,23.518,40.765,23,16-7.435,8.362-21.95c-10.453-19.859-44.864-36.18-50.172-39.719-9.407-6.271-9.93-14.111-19.337-18.814s-90.413,0-90.413,0L78.944,73.705,65.878,78.931Z" fill="#ffd8a3"/>
      <path id="Path_1917" data-name="Path 1917" d="M269.178,148.962c-19.86-8.361-32.925-29.789-41.81-32.4s-32.925-10.975-44.945-12.02-41.81-10.975-48.081-9.408c-5.943,1.486-45.171,18.443-49.277,20.221l11.648,22.112s33.448-20.9,43.377-23.518,26.131,4.7,42.333,5.749,35.015.522,45.99,6.271S259.248,149.485,269.178,148.962Z" fill="#fbbd81"/>
      <path id="Path_1918" data-name="Path 1918" d="M54.9,75.273l18.814-4.181,27.176,70.031L81.557,153.666Z" fill="#fff"/>
      <path id="Path_1919" data-name="Path 1919" d="M67.662,97.768,84.835,151.54l16.059-10.417L80.358,88.2Z" fill="#c3d8e3"/>
      <path id="Path_1920" data-name="Path 1920" d="M-19.309,84.68l75.78-15.156,32.925,83.1L78.944,172.48-23.49,217.426Z" fill="#3e535c"/>
      <path id="Path_1921" data-name="Path 1921" d="M89.4,152.621,67.662,97.768,43.057,140.252l-64.7,18.489-1.848,58.684L78.944,172.48Z" fill="#374b53"/>
      <circle id="Ellipse_67" data-name="Ellipse 67" cx="8.362" cy="8.362" r="8.362" transform="translate(59.737 147.406)" fill="#ffca05"/>
      <path id="Path_1922" data-name="Path 1922" d="M73.44,149.383a8.275,8.275,0,0,1,.408,2.454,8.318,8.318,0,0,1-13.7,6.385,8.337,8.337,0,1,0,13.294-8.839Z" fill="#f6921e"/>
      <path id="Path_1923" data-name="Path 1923" d="M209.062,69.028,200.936,74.5s-1.964,1.291-2.138,1.813,20.9,6.794,28.57,10.975C219.285,81.9,221.271,75.621,209.062,69.028Z" fill="#fbbd81"/>
      <path id="Path_1924" data-name="Path 1924" d="M258.987,121.786c-4.621.3-9.93,5.488-8.362,12.282s12.8,12.8,15.94,12.8,11.5-5.226,10.452-10.975S267.087,121.263,258.987,121.786Z" fill="#fffce4"/>
      <path id="Path_1925" data-name="Path 1925" d="M266.565,146.872a9.96,9.96,0,0,0,4.419-1.628c-.906-.436-1.7-.818-2.172-1.113-4.21-2.612-9.249-6.6-10.824-11.619-1.183-3.771-.205-8.866,3.592-10.569a11.5,11.5,0,0,0-2.593-.157c-4.621.3-9.93,5.488-8.362,12.282S263.429,146.872,266.565,146.872Z" fill="#ffe9c8"/>
    </g>
    <path id="Path_1926" data-name="Path 1926" d="M375.637,260.094h-32.6a2.142,2.142,0,0,1-2.142-2.142h0a2.142,2.142,0,0,1,2.142-2.142h32.6a2.142,2.142,0,0,1,2.142,2.142h0A2.142,2.142,0,0,1,375.637,260.094Z" fill="#54a2c5"/>
    <path id="Path_1927" data-name="Path 1927" d="M178.689,260.094h-32.6a2.142,2.142,0,0,1-2.142-2.142h0a2.142,2.142,0,0,1,2.142-2.142h32.6a2.142,2.142,0,0,1,2.142,2.142h0A2.142,2.142,0,0,1,178.689,260.094Z" fill="#54a2c5"/>
    <path id="Path_1928" data-name="Path 1928" d="M340.506,340.624l-23.052-23.052a2.143,2.143,0,0,1,0-3.029h0a2.143,2.143,0,0,1,3.029,0L343.535,337.6a2.143,2.143,0,0,1,0,3.029h0A2.143,2.143,0,0,1,340.506,340.624Z" fill="#54a2c5"/>
    <path id="Path_1929" data-name="Path 1929" d="M201.243,201.361l-23.052-23.052a2.143,2.143,0,0,1,0-3.029h0a2.143,2.143,0,0,1,3.029,0l23.052,23.052a2.143,2.143,0,0,1,0,3.029h0A2.143,2.143,0,0,1,201.243,201.361Z" fill="#54a2c5"/>
    <path id="Path_1930" data-name="Path 1930" d="M343.535,178.309l-23.052,23.052a2.143,2.143,0,0,1-3.029,0h0a2.143,2.143,0,0,1,0-3.029l23.052-23.052a2.143,2.143,0,0,1,3.029,0h0A2.143,2.143,0,0,1,343.535,178.309Z" fill="#54a2c5"/>
    <path id="Path_1931" data-name="Path 1931" d="M204.272,317.572,181.22,340.624a2.143,2.143,0,0,1-3.029,0h0a2.143,2.143,0,0,1,0-3.029l23.052-23.052a2.143,2.143,0,0,1,3.029,0h0A2.143,2.143,0,0,1,204.272,317.572Z" fill="#54a2c5"/>
    <g id="Group_610" data-name="Group 610">
      <path id="Path_1932" data-name="Path 1932" d="M199.619,418.943s-8.1-9.1-7.928-12.406,7.874-7.8,16.776-6.062,23.138,11.944,26.2,13.8,22.637,4.567,26.172,4.354,26.593-3.248,26.593-3.248l1.091,12.449-29.457,7.536-19.191-2.477Z" fill="#f79861"/>
      <path id="Path_1933" data-name="Path 1933" d="M173.57,408.62s-6.608-10.236-5.935-13.474,8.975-6.5,17.506-3.422,21.037,15.345,23.78,17.651,21.671,7.979,25.2,8.31,26.777.861,26.777.861l-.828,12.47L229.8,433.953l-18.586-5.385Z" fill="#f7a06c"/>
      <path id="Path_1934" data-name="Path 1934" d="M154.209,401.187s-5.7-10.768-4.75-13.935,9.5-5.7,17.735-1.9,19.636,17.1,22.17,19.636,20.9,9.818,24.386,10.451,26.6,3.167,26.6,3.167l-1.9,12.352-30.4.317L190,424.306Z" fill="#fbbd81"/>
      <path id="Path_1935" data-name="Path 1935" d="M232.436,420.506a180.2,180.2,0,0,0-19-1.267c-8.867,0-17.735-8.868-26.6-12.035s-21.536-13.935-30.4-10.768-7.6,10.768-.633,19.636,34.838,26.6,56.374,33.571,54.473,6.967,68.408,5.7,52.574-11.4,70.943-9.5,55.74,8.868,55.74,8.868l1.9-35.471L297.044,406.571Z" fill="#ffd8a3"/>
      <path id="Path_1936" data-name="Path 1936" d="M404.724,398.97s-12.035-5.068-26.6-11.4-15.2-12.035-34.2-10.768-43.073,7.6-60.175,15.836-30.4,5.7-40.538,10.134-22.17,10.768-19,23.436,25.97,15.2,41.172,8.868,44.413-12.7,53.207-11.4c17.1,2.533,86.778,13.935,86.778,13.935" fill="#ffd8a3"/>
      <path id="Path_1937" data-name="Path 1937" d="M305.278,417.972c-13.3,2.534-45.605,12.035-58.274,15.2-7.959,1.99-16.665-1.77-22.04-4.841,5.065,10.806,26.1,12.7,40.409,6.741,15.2-6.334,44.413-12.7,53.207-11.4,4.085.605,11.174,1.717,19.593,3.058C329.618,422.6,314.443,416.226,305.278,417.972Z" fill="#fbbd81"/>
      <path id="Path_1938" data-name="Path 1938" d="M408.446,432.536c-18.708,3.338-60.379,1.271-68.963,1.271-9.5,0-49.407,9.5-63.342,12.035s-58.274-1.9-63.341-3.167-32.937-15.835-39.9-20.9c-5.321-3.869-15.835-4.856-19.925-23.487-4.836,3.782-3.035,10.331,2.823,17.787,6.967,8.868,34.838,26.6,56.374,33.571s54.473,6.967,68.408,5.7,52.574-11.4,70.943-9.5,55.74,8.868,55.74,8.868Z" fill="#fbbd81"/>
      <path id="Path_1939" data-name="Path 1939" d="M254.509,411.58c4.217,2.21,7.038,9.3,2.727,15.033s-17.379,6.683-20.325,5.374-8.621-9.713-5.238-14.678S247.115,407.706,254.509,411.58Z" fill="#fffce4"/>
      <path id="Path_1940" data-name="Path 1940" d="M236.911,431.987a10.237,10.237,0,0,1-3.473-3.376c1.033-.031,1.935-.06,2.506-.139,5.046-.7,11.448-2.34,15.023-6.4,2.687-3.049,3.9-8.245,1.039-11.432a11.918,11.918,0,0,1,2.5.936c4.217,2.21,7.038,9.3,2.727,15.033S239.857,433.3,236.911,431.987Z" fill="#ffe9c8"/>
      <path id="Path_1941" data-name="Path 1941" d="M420.435,385.2l-19.249.973-7.573,74.737,21.976,6.949Z" fill="#fff"/>
      <path id="Path_1942" data-name="Path 1942" d="M414.118,410.277l-2.253,56.4-18.251-5.771,5.722-56.475Z" fill="#c3d8e3"/>
      <path id="Path_1943" data-name="Path 1943" d="M503.333,374.861l-85.939,5.212-9.64,88.861L423.112,485.3l110.7,16.084Z" fill="#3e535c"/>
      <path id="Path_1944" data-name="Path 1944" d="M407.754,468.934l6.363-58.657,35.018,34.41,67.286.617,17.389,56.079L423.112,485.3Z" fill="#374b53"/>
      <path id="Path_1945" data-name="Path 1945" d="M421.06,468.528a8.362,8.362,0,1,0,5.837-10.285A8.363,8.363,0,0,0,421.06,468.528Z" fill="#ffca05"/>
      <path id="Path_1946" data-name="Path 1946" d="M422.275,461.569a8.252,8.252,0,0,0,.259,2.474,8.319,8.319,0,0,0,14.907,2.512,8.337,8.337,0,1,1-15.166-4.986Z" fill="#f6921e"/>
    </g>
  </g>
</svg>
