<svg xmlns="http://www.w3.org/2000/svg" width="89" height="89" viewBox="0 0 89 89"><defs><style>.a{opacity:0.45;}.b{fill:#27393d;}.c{fill:#54a2c5;}.d{fill:#fff;}.e{fill:#59c0af;}.f{opacity:0.11;}.g{fill:#2f4a50;}.h{fill:#1b1f20;}</style></defs><g class="a" transform="translate(-1282.292 -1005.181)"><g transform="translate(1282.292 1007.583)"><path class="b" d="M1325.442,1159.518c-.386,0-.777-.005-1.163-.016l.016-.591c.779.02,1.57.02,2.345,0l.016.591C1326.255,1159.513,1325.846,1159.518,1325.442,1159.518Zm-3.536-.144c-.787-.064-1.582-.151-2.363-.258l.08-.586c.77.105,1.554.191,2.331.254Zm7.124,0-.048-.589c.777-.064,1.561-.151,2.331-.257l.08.586C1330.613,1159.218,1329.818,1159.306,1329.03,1159.371Zm-11.833-.642c-.775-.15-1.556-.325-2.321-.518l.144-.573c.754.191,1.524.363,2.289.511Zm16.541-.01-.113-.581c.764-.149,1.534-.322,2.288-.513l.144.573C1335.293,1158.392,1334.513,1158.567,1333.738,1158.719Zm-21.15-1.154c-.755-.236-1.514-.5-2.254-.775l.206-.554c.73.274,1.478.531,2.223.764Zm25.758-.016-.176-.564c.743-.234,1.489-.491,2.217-.765l.207.553C1339.855,1157.051,1339.1,1157.312,1338.346,1157.548Zm-30.219-1.658c-.723-.318-1.448-.661-2.153-1.021l.266-.527c.7.354,1.41.692,2.124,1.006Zm34.665-.015-.237-.541c.712-.314,1.424-.652,2.116-1l.267.527C1344.235,1155.214,1343.513,1155.557,1342.792,1155.876Zm-38.911-2.143c-.683-.4-1.365-.818-2.026-1.251l.323-.495c.652.428,1.324.843,2,1.234Zm43.144-.012-.3-.512c.673-.391,1.344-.806,1.995-1.233l.322.495C1348.387,1152.9,1347.707,1153.324,1347.025,1153.72Zm-47.125-2.6c-.636-.47-1.267-.963-1.877-1.467l.375-.456c.6.5,1.224.983,1.851,1.447Zm51.1-.01-.349-.476c.626-.462,1.248-.949,1.849-1.446l.375.456C1352.263,1150.148,1351.633,1150.641,1351,1151.11Zm-54.768-3.025c-.58-.536-1.154-1.1-1.7-1.663l.422-.412c.544.56,1.109,1.112,1.682,1.641Zm58.434-.009-.4-.435c.573-.53,1.139-1.082,1.681-1.641l.422.412C1355.819,1146.98,1355.245,1147.54,1354.664,1148.077Zm-61.75-3.409c-.519-.6-1.028-1.216-1.513-1.84l.464-.364c.478.615.98,1.226,1.492,1.815Zm65.065-.01-.444-.389c.512-.589,1.014-1.2,1.493-1.816l.465.364C1359.007,1143.441,1358.5,1144.061,1357.979,1144.658Zm-67.987-3.749c-.45-.649-.888-1.32-1.3-1.994l.5-.31c.408.664.84,1.326,1.284,1.967Zm70.911-.015-.484-.337c.445-.643.877-1.306,1.286-1.971l.5.31C1361.793,1139.571,1361.354,1140.243,1360.9,1140.894Zm-73.4-4.041c-.376-.7-.738-1.41-1.075-2.124l.532-.253c.333.7.69,1.409,1.06,2.1Zm75.9-.024-.518-.282c.371-.688.729-1.395,1.062-2.1l.533.253C1364.137,1135.415,1363.775,1136.132,1363.4,1136.829Zm-77.93-4.28c-.3-.733-.579-1.484-.836-2.233l.557-.193c.253.739.531,1.48.824,2.2Zm79.965-.039-.546-.222c.294-.726.571-1.469.824-2.208l.557.192C1366.012,1131.021,1365.731,1131.774,1365.433,1132.51Zm-81.512-4.471c-.215-.762-.411-1.54-.584-2.313l.575-.129c.17.762.364,1.529.576,2.281Zm83.056-.045-.567-.161c.211-.752.4-1.52.573-2.281l.575.129C1367.387,1126.452,1367.191,1127.231,1366.977,1127.993Zm-84.1-4.609c-.13-.78-.239-1.575-.326-2.363l.585-.065c.086.777.194,1.562.322,2.331Zm85.13-.046-.581-.1c.127-.77.234-1.555.319-2.331l.586.064C1368.249,1121.762,1368.14,1122.557,1368.011,1123.338Zm-85.652-4.694c-.043-.789-.066-1.592-.067-2.385h.589c0,.783.023,1.574.066,2.353Zm86.17-.047-.588-.032c.042-.778.064-1.57.064-2.353v-.091h.589v.092C1368.593,1117.006,1368.571,1117.808,1368.529,1118.6Zm-85.586-4.691-.588-.031c.042-.792.106-1.592.191-2.378l.586.064C1283.047,1112.335,1282.984,1113.124,1282.942,1113.905Zm84.993-.137c-.044-.78-.11-1.569-.2-2.345l.586-.066c.088.786.154,1.586.2,2.377Zm-84.488-4.54-.581-.1c.128-.782.28-1.57.45-2.343l.575.128C1283.723,1107.68,1283.573,1108.457,1283.447,1109.228Zm83.968-.135c-.129-.771-.281-1.548-.452-2.309l.574-.13c.173.772.328,1.56.458,2.341Zm-82.952-4.457-.567-.16c.213-.762.451-1.529.706-2.278l.557.191C1284.907,1103.128,1284.673,1103.884,1284.463,1104.635Zm81.922-.132c-.213-.751-.45-1.506-.7-2.245l.557-.193c.258.749.5,1.515.713,2.276Zm-80.4-4.324-.546-.222c.3-.735.618-1.471.955-2.189l.533.252C1286.59,1098.728,1286.273,1099.455,1285.981,1100.179Zm78.873-.123c-.294-.722-.612-1.444-.945-2.149l.532-.254c.338.714.661,1.448.959,2.179Zm-76.872-4.14-.518-.281c.376-.7.776-1.393,1.19-2.068l.5.31C1288.748,1094.543,1288.353,1095.23,1287.983,1095.917Zm74.864-.1c-.372-.685-.768-1.369-1.177-2.033l.5-.311c.415.674.817,1.367,1.193,2.061Zm-72.407-3.909-.484-.337c.45-.651.923-1.3,1.409-1.924l.465.363C1291.35,1090.624,1290.883,1091.263,1290.44,1091.9Zm69.944-.089c-.444-.639-.913-1.276-1.392-1.892l.464-.364c.486.624.961,1.27,1.412,1.918Zm-67.064-3.626-.444-.388c.518-.6,1.06-1.189,1.609-1.757l.423.412C1294.365,1087.016,1293.831,1087.6,1293.32,1088.189Zm64.177-.079c-.512-.588-1.047-1.169-1.591-1.729l.422-.413c.551.567,1.094,1.156,1.613,1.752Zm-60.91-3.3-.4-.434c.58-.537,1.182-1.065,1.79-1.569l.375.456C1297.752,1083.763,1297.158,1084.284,1296.586,1084.813Zm57.636-.07c-.573-.528-1.169-1.048-1.77-1.544l.374-.457c.61.5,1.214,1.03,1.795,1.566Zm-54.023-2.926-.349-.476c.635-.47,1.291-.928,1.95-1.363l.323.494C1301.473,1080.9,1300.826,1081.354,1300.2,1081.817Zm50.4-.064c-.628-.462-1.277-.913-1.929-1.341l.322-.5c.661.433,1.319.891,1.956,1.36Zm-46.483-2.515-.3-.512c.682-.4,1.383-.78,2.086-1.139l.267.527C1305.481,1078.469,1304.788,1078.846,1304.116,1079.239Zm42.554-.058c-.676-.391-1.37-.768-2.066-1.12l.266-.528c.7.357,1.409.739,2.094,1.135Zm-38.381-2.072-.238-.541c.72-.319,1.459-.622,2.2-.9l.208.553C1309.727,1076.5,1309,1076.794,1308.288,1077.108Zm34.191-.052c-.714-.313-1.447-.611-2.177-.884l.205-.554c.741.277,1.484.579,2.208.9Zm-29.808-1.6-.177-.564c.753-.237,1.522-.457,2.287-.651l.145.573C1314.173,1075,1313.414,1075.219,1312.671,1075.453Zm25.406-.042c-.743-.232-1.5-.445-2.258-.635l.143-.573c.765.192,1.536.409,2.289.644Zm-20.863-1.116-.114-.58c.774-.152,1.563-.284,2.345-.394l.081.586C1318.756,1074.014,1317.978,1074.145,1317.215,1074.295Zm16.316-.027c-.764-.148-1.543-.276-2.314-.381l.079-.586c.782.106,1.571.236,2.346.386Zm-11.674-.621-.049-.589c.786-.066,1.584-.111,2.374-.133l.017.591C1323.42,1073.537,1322.632,1073.582,1321.857,1073.646Zm7.029-.011c-.774-.062-1.562-.1-2.341-.124l.015-.591c.79.02,1.589.062,2.374.125Z" transform="translate(-1282.292 -1072.92)"/></g><path class="c" d="M1568.916,1321.932q0,.232,0,.463-.009.695-.044,1.382a35.884,35.884,0,0,1-22.983,31.7l-.409.153q-.615.227-1.241.43-.208.068-.418.134-1.258.393-2.555.694c-.288.067-.577.13-.868.19q-1.089.225-2.2.381c-.148.021-.3.041-.446.06q-.447.057-.9.1-.225.023-.451.043-.452.04-.907.069-1.138.072-2.294.073t-2.294-.073q-.455-.029-.907-.069-.226-.02-.451-.043-.45-.046-.9-.1c-.149-.019-.3-.039-.446-.06q-1.113-.157-2.2-.381-.437-.09-.868-.19-1.3-.3-2.556-.694l-.418-.134q-.626-.2-1.241-.43l-.409-.153a35.884,35.884,0,0,1-22.984-31.7q-.029-.571-.04-1.149,0-.117,0-.234c0-.056,0-.113,0-.169,0-.1,0-.2,0-.294q0-.639.022-1.274c0-.133.01-.266.016-.4,0-.058.005-.116.008-.174q.023-.458.058-.915.018-.227.037-.455.04-.453.091-.9t.114-.9q.093-.67.211-1.333a35.728,35.728,0,0,1,3.868-10.96q.092-.167.186-.333a35.95,35.95,0,0,1,2.418-3.731l.149-.2a36.126,36.126,0,0,1,2.676-3.167l.019-.02a36.027,36.027,0,0,1,4.132-3.725q1.022-.787,2.1-1.5t2.209-1.348q.376-.212.759-.414t.77-.4c.171-.086.343-.169.515-.251q.463-.222.934-.431l.243-.107q.338-.147.681-.288.4-.165.811-.321c.136-.053.272-.1.409-.154q.258-.095.518-.185.361-.126.724-.245l.418-.134q.42-.131.843-.252,1.06-.3,2.145-.54.434-.095.872-.179t.879-.158q.663-.11,1.333-.2.447-.057.9-.1.225-.023.451-.043.452-.041.907-.07,1.138-.073,2.294-.073t2.294.073q.455.029.907.07c.15.013.3.027.451.043q.451.046.9.1.67.085,1.333.2.442.073.88.158c.291.056.583.116.872.179q1.085.238,2.145.54.424.121.843.252.21.066.418.134.363.118.724.245c.173.061.346.122.517.185.137.05.273.1.409.154q.408.155.811.321.343.14.681.288l.242.107q.471.209.935.431.259.124.515.251.388.194.77.4t.759.414q1.131.634,2.21,1.348t2.1,1.5a35.968,35.968,0,0,1,4.132,3.725l.019.02a36.1,36.1,0,0,1,2.676,3.167l.15.2a36.011,36.011,0,0,1,2.418,3.731l.186.333a35.747,35.747,0,0,1,3.868,10.96q.118.662.212,1.333.062.448.113.9t.092.9q.02.227.037.455.034.456.058.915Q1568.916,1321,1568.916,1321.932Z" transform="translate(-207.551 -270.914)"/><circle class="d" cx="29.719" cy="29.719" r="29.719" transform="translate(1295.924 1021.454)"/><circle class="e" cx="23.535" cy="23.535" r="23.535" transform="translate(1302.108 1027.492)"/><circle class="d" cx="17.846" cy="17.846" r="17.846" transform="translate(1307.797 1033.18)"/><circle class="c" cx="12.452" cy="12.452" r="12.452" transform="translate(1308.033 1051.126) rotate(-45)"/><circle class="d" cx="5.978" cy="5.978" r="5.978" transform="translate(1319.665 1044.751)"/><path class="f" d="M2418.2,2160.022a12.462,12.462,0,0,1-7.063,9.667l-8.929-6.927v0a5.978,5.978,0,0,0,7.33-9.447l.005-.007Z" transform="translate(-1080.211 -1107.241)"/><path class="f" d="M2236.117,1924.817a23.536,23.536,0,0,1-22.351,23.506l-11.966-9.284a17.846,17.846,0,0,0,22.35-27.81l11.5,8.927A23.64,23.64,0,0,1,2236.117,1924.817Z" transform="translate(-886.906 -873.73)"/><path class="f" d="M2027.07,1641.008q0,.23,0,.461-.009.692-.044,1.376a35.742,35.742,0,0,1-22.983,31.563q-.2.078-.409.153-.616.226-1.242.429c-.139.045-.279.09-.419.133q-1.257.391-2.554.691-.432.1-.869.189-1.09.224-2.2.38l-.446.06q-.448.056-.9.1-.225.023-.451.043-.452.04-.907.069-1.137.072-2.294.072t-2.294-.072l-.344-.024-16.241-12.6.034-.044a29.72,29.72,0,1,0,36.423-46.945l.017-.021,16.285,12.635a35.5,35.5,0,0,1,1.284,5.029q.118.66.212,1.327.062.445.114.894t.091.9q.02.226.038.453.034.453.057.91Q2027.071,1640.083,2027.07,1641.008Z" transform="translate(-665.706 -589.835)"/><path class="g" d="M2529.526,1005.181l.01,6.9,6.822-.041-10.488,10.488-5.315-.131-28.7,28.7a.937.937,0,0,1-1.321,0l-.076-.075a.938.938,0,0,1,0-1.321l28.714-28.715L2519,1015.7Z" transform="translate(-1165.066 0)"/><g transform="translate(1325.43 1012.014)"><path class="h" d="M2537.97,1197.969l6.822-.041-10.488,10.487-5.316-.131-28.7,28.7a.936.936,0,0,1-1.321,0l-.038-.037,39.041-39.041Z" transform="translate(-2498.929 -1197.906)"/></g></g></svg>