<svg xmlns="http://www.w3.org/2000/svg" viewBox="0 0 1436.51 919.1"><defs><style>.cls-1{fill:#fff;}</style></defs><title>DevSecOps white</title><g id="Layer_2" data-name="Layer 2"><g id="Layer_1-2" data-name="Layer 1"><path class="cls-1" d="M913.8,103.68V0H522.71V103.68H345.37V226.76L540.92,426.48l87.87-89.74,89.46,89.46,89.47-89.46,87.87,89.74,195.55-199.72V103.68ZM559.13,36.42H877.38v67.26H559.13Zm-18.21,338L381.79,211.9V140.1H522.71v90.56L603,311Zm177.33.28-64-64,64-65.35,64,65.35Zm0-181.4L628.51,285l-69.38-69.39V140.1H877.38v75.47L808,285Zm336.47,18.6L895.59,374.42,833.48,311l80.32-80.32V140.1h140.92Z"/><path class="cls-1" d="M165.09,632.89c.79,46.76-27.73,94-92.45,94H0V542H72.64C136,542,164.29,587.2,165.09,632.89ZM34.61,693.38h38c42,0,58.64-30.63,57.84-60.75-.79-28.78-17.7-57.59-57.84-57.59h-38Z"/><path class="cls-1" d="M218.56,673.32c2.12,16.11,16.12,27.73,38.84,27.73,11.87,0,27.47-4.49,34.86-12.16l20.6,20.34c-13.73,14.26-36.18,21.14-56,21.14-44.9,0-71.58-27.73-71.58-69.47,0-39.63,26.93-68.16,69.2-68.16,43.58,0,70.78,26.94,65.77,80.58Zm70.8-26.68c-2.12-16.91-15.33-25.37-33.81-25.37-17.44,0-31.71,8.46-36.45,25.37Z"/><path class="cls-1" d="M477.05,596.43l-55.47,131H386.71L331,596.43h35.14l17.95,43.08,20.08,54.92L424,640l18-43.59Z"/><path class="cls-1" d="M609,586.66c-6.35-10.57-23.78-20.6-43.85-20.6-25.88,0-38.3,10.83-38.3,24.58,0,16.11,19,20.6,41.21,23.24,38.56,4.74,74.48,14.8,74.48,58.9,0,41.19-36.45,58.9-77.66,58.9-37.76,0-66.82-11.63-80.56-45.44l29.06-15c8.19,20.34,29.58,29.32,52,29.32,21.92,0,42.52-7.65,42.52-27.73,0-17.42-18.23-24.55-42.79-27.19-37.77-4.49-72.64-14.55-72.64-56,0-38.05,37.51-53.64,71.59-53.9,28.78,0,58.63,8.18,72.63,36.71Z"/><path class="cls-1" d="M702.93,673.32c2.1,16.11,16.1,27.73,38.82,27.73,11.89,0,27.47-4.49,34.86-12.16l20.6,20.34c-13.72,14.26-36.18,21.14-56,21.14-44.9,0-71.58-27.73-71.58-69.47,0-39.63,26.93-68.16,69.2-68.16,43.58,0,70.79,26.94,65.77,80.58Zm70.78-26.68c-2.11-16.91-15.32-25.37-33.81-25.37-17.44,0-31.7,8.46-36.45,25.37Z"/><path class="cls-1" d="M941.07,710.28c-15.05,14.8-30.91,20.6-50.19,20.6-37.77,0-69.19-22.7-69.19-68.93s31.42-69,69.19-69c18.5,0,32.76,5.28,47,19.29l-20.35,21.39a39.5,39.5,0,0,0-26.15-10.28c-21.65,0-37.5,15.82-37.5,38.55,0,24.83,16.9,38,37,38,10.3,0,20.6-2.93,28.53-10.83Z"/><path class="cls-1" d="M1139.35,635.53c-.54,47.82-29.85,95.63-94.84,95.63s-95.08-46.76-95.08-95.35,31.16-97.48,95.08-97.48C1108.18,538.33,1139.87,587.2,1139.35,635.53Zm-155.59.8c.8,30.37,17.16,62.87,60.75,62.87s60-32.76,60.49-63.13c.54-31.17-16.91-66-60.49-66S983,605.16,983.76,636.33Z"/><path class="cls-1" d="M1162.45,781.34V596.72h30.1l2.11,18c10-14.55,27.48-20.89,42.27-20.89,40.14,0,66.82,29.86,66.82,68.16,0,38-24,68.16-65.76,68.16-13.73,0-34.08-4.23-43.33-18.49v69.72ZM1271.53,662c0-20.34-13.73-37-37-37s-37,16.65-37,37,15.05,37,37,37S1271.53,682.3,1271.53,662Z"/><path class="cls-1" d="M1412.47,631.32c-9.25-8.72-19.82-11.64-32.23-11.64-15.32,0-23.77,4.77-23.77,13,0,8.47,7.66,13.21,24.31,14.26,24.56,1.6,55.73,7.14,55.73,41.74,0,23-18.76,42.79-56,42.79-20.6,0-41.21-3.44-60.22-23.24l15.84-23c9.25,10.32,30.38,18,44.9,18.24,12.16.26,23.51-6.08,23.51-15.59,0-9-7.4-12.68-25.88-13.73-24.56-1.84-53.88-10.85-53.88-40.43,0-30.11,31.16-40.68,54.93-40.68,20.34,0,35.66,4,50.72,17.19Z"/><path class="cls-1" d="M473.26,820.47h16.51V890H473.54l-.84-10.16c-4,8.19-14.82,12.13-22.58,12.27-20.61.15-35.85-12.55-35.85-37,0-24,16-36.55,36.27-36.41,9.31,0,18.2,4.37,22.16,11.29Zm-41.77,34.71c0,13.26,9.17,21.16,20.6,21.16,27.1,0,27.1-42.2,0-42.2C440.66,834.14,431.49,841.91,431.49,855.18Z"/><path class="cls-1" d="M565.48,881.13c-8,7.91-16.51,11-26.81,11-20.18,0-37-12.13-37-36.82s16.79-36.84,37-36.84c9.88,0,17.5,2.82,25.12,10.3l-10.87,11.43a21.1,21.1,0,0,0-14-5.49c-11.56,0-20,8.45-20,20.6,0,13.26,9,20.32,19.75,20.32,5.5,0,11-1.56,15.24-5.78Z"/><path class="cls-1" d="M628.22,820.47h16.51V890H628.51l-.85-10.16c-3.95,8.19-14.82,12.13-22.57,12.27-20.61.15-35.85-12.55-35.85-37,0-24,16-36.55,36.26-36.41,9.32,0,18.21,4.37,22.16,11.29Zm-41.77,34.71c0,13.26,9.18,21.16,20.61,21.16,27.09,0,27.09-42.2,0-42.2C595.63,834.14,586.45,841.91,586.45,855.18Z"/><path class="cls-1" d="M731.46,791.38V890H715.37l-1.13-9.59c-5.36,8.31-14,11.14-22.43,11.14-20.46,0-35.85-13.54-35.85-36.4,0-24,15.11-36.41,35.42-36.41,7.34,0,18.77,3.94,22.86,11.15V791.38Zm-58.28,63.8c0,12.13,8.75,20.46,19.76,20.46,10.86,0,20.18-7.91,20.18-20.46a19.86,19.86,0,0,0-20.18-20.33C681.93,834.85,673.18,842.61,673.18,855.18Z"/><path class="cls-1" d="M762.59,861.39c1.12,8.6,8.6,14.81,20.74,14.81,6.35,0,14.68-2.4,18.62-6.5l11,10.87c-7.33,7.62-19.33,11.3-29.91,11.3-24,0-38.25-14.82-38.25-37.12,0-21.17,14.39-36.41,37-36.41,23.29,0,37.82,14.39,35.14,43Zm37.81-14.26c-1.13-9-8.19-13.55-18.06-13.55-9.32,0-16.94,4.52-19.47,13.55Z"/><path class="cls-1" d="M875,890V852.78c0-9.18-4.8-17.5-14.25-17.5s-14.83,8.32-14.83,17.5V890H828.71V820.31h15.95l1.26,8.47c3.68-7,11.71-9.59,18.35-9.59,8.32,0,16.65,3.39,20.6,13,6.21-9.88,14.26-12.69,23.29-12.69,19.75,0,29.49,12.13,29.49,33V890H920.44V852.49c0-9.17-3.81-16.94-13.13-16.94s-15.1,8.05-15.1,17.23V890Z"/><path class="cls-1" d="M1022.23,820.47,979.75,919.1h-18.9l13-30.19L946,820.47h20l10.58,30,6.63,19.61,7.2-19.19,12.7-30.47Z"/></g></g></svg>