<svg id="Layer_1" data-name="Layer 1" xmlns="http://www.w3.org/2000/svg" xmlns:xlink="http://www.w3.org/1999/xlink" viewBox="0 0 3000 2532.17"><defs><style>.cls-1{fill:url(#linear-gradient);}.cls-2{fill:#283a3e;}</style><linearGradient id="linear-gradient" x1="113.44" y1="1266.09" x2="2677.88" y2="1266.09" gradientUnits="userSpaceOnUse"><stop offset="0" stop-color="#5294d1"/><stop offset="1" stop-color="#5bc8aa"/></linearGradient></defs><title>Araido symbol color</title><path class="cls-1" d="M2036.73,1266.17l-641-1110.59L754.59,1266.17,567.47,1590.1,454.08,1786.73,113.44,2376.59H794.57L908.12,2180l113.39-196.62h975.25l-601-1041.28-374.07,648H1248.6l147.14-254.79,147,254.79,113.55,196.62H908.12L681,2180H453.92L794.57,1590.1,1395.74,548.82,2337.4,2180H1883.2l113.55,196.62h681.13Z"/><path class="cls-2" d="M2815.42,2376.59a69.09,69.09,0,0,1-49.88-20.7,73,73,0,0,1-15.25-23.34,83.14,83.14,0,0,1,0-60.23,73.1,73.1,0,0,1,15.25-23.34,69.09,69.09,0,0,1,49.88-20.7,70.77,70.77,0,0,1,27.67,5.46,68.46,68.46,0,0,1,22.59,15.25,73.06,73.06,0,0,1,15.25,23.34,83.12,83.12,0,0,1,0,60.23,73,73,0,0,1-15.25,23.34,68.28,68.28,0,0,1-22.59,15.25A70.66,70.66,0,0,1,2815.42,2376.59Zm0-13.93a56.49,56.49,0,0,0,22-4.33,52.19,52.19,0,0,0,17.88-12.23,57.48,57.48,0,0,0,11.86-19,67.4,67.4,0,0,0,4.33-24.66,66.35,66.35,0,0,0-4.33-24.28,59.78,59.78,0,0,0-11.86-19.2,53.25,53.25,0,0,0-17.88-12.61,56.39,56.39,0,0,0-44.23,0A51.72,51.72,0,0,0,2775.7,2259a61.51,61.51,0,0,0-11.67,19.2,66.27,66.27,0,0,0-4.33,24.28,67.32,67.32,0,0,0,4.33,24.66,59.09,59.09,0,0,0,11.67,19,50.66,50.66,0,0,0,17.51,12.23A56,56,0,0,0,2815.42,2362.66Zm-27.1-23v-76.42h28.61q12,0,20.7,5.46t8.66,19a22.85,22.85,0,0,1-3.77,12.61,19.57,19.57,0,0,1-10.16,8.09l17.32,31.24h-17.32l-13.18-26.35h-15.43v26.35Zm15.43-38.4h9.79q16.18,0,16.19-12.8a12.21,12.21,0,0,0-3.39-9q-3.39-3.39-12-3.39h-10.54Z"/></svg>