<svg xmlns="http://www.w3.org/2000/svg" width="67" height="66" viewBox="0 0 67 66"><defs><style>.a{fill:#fff;}</style></defs><g transform="translate(0 0)"><g transform="translate(0 0)"><path class="a" d="M82.151,46.6a1.092,1.092,0,0,0,.254-1.9,1.127,1.127,0,0,0-1.121-.122,20.157,20.157,0,0,0-6.377,4.243,1.089,1.089,0,0,0-.3,1.069,1.107,1.107,0,0,0,.8.785,1.125,1.125,0,0,0,1.084-.3A17.977,17.977,0,0,1,82.151,46.6Z" transform="translate(-64.503 -38.56)"/><path class="a" d="M37.116,120.954h0a1.094,1.094,0,0,0-.6-1.419,1.121,1.121,0,0,0-1.451.564,19.5,19.5,0,0,0,0,15.389,1.12,1.12,0,0,0,1.458.577,1.094,1.094,0,0,0,.6-1.433A17.329,17.329,0,0,1,37.116,120.954Z" transform="translate(-28.962 -103.577)"/><path class="a" d="M65.3,56.566,50.325,41.815a2.253,2.253,0,0,0-3.152,0L44.111,38.8A23.93,23.93,0,0,0,40.682,5.959,24.82,24.82,0,0,0,7.19,7.087,23.921,23.921,0,0,0,6.045,40.08a24.812,24.812,0,0,0,33.336,3.378l3.063,3.017a2.173,2.173,0,0,0,0,3.1L57.419,64.328a5.629,5.629,0,0,0,5.419,1.5,5.532,5.532,0,0,0,3.98-3.92A5.435,5.435,0,0,0,65.3,56.566ZM24.581,46.175A22.15,22.15,0,0,1,2.292,24.218,22.125,22.125,0,0,1,24.581,2.261,22.125,22.125,0,0,1,46.87,24.218,22.125,22.125,0,0,1,24.581,46.175ZM41.1,42.047q.825-.741,1.578-1.554l2.914,2.872-1.577,1.553Zm22.62,20.728v0a3.461,3.461,0,0,1-4.728,0L44.021,48.027l4.73-4.659L63.722,58.118A3.259,3.259,0,0,1,63.722,62.775Z" transform="translate(0.001 -0.004)"/><path class="a" d="M114.713,99.563H92.423a1.107,1.107,0,0,0-1.114,1.1v9.446c0,.043,0,.176.012.386,0,.022-.012.04-.012.061a1.029,1.029,0,0,0,.025.118c.163,2.368,1.458,11.5,11.677,17.323a1.128,1.128,0,0,0,1.114,0c10.22-5.826,11.515-14.95,11.677-17.323a1.062,1.062,0,0,0,.025-.118c0-.022-.011-.04-.012-.061.011-.21.012-.343.012-.386v-9.446A1.107,1.107,0,0,0,114.713,99.563Zm-21.175,2.2h8.916v7.695H93.538v-7.695Zm10.03,24a20,20,0,0,1-9.882-14.111h8.767v8.794a1.115,1.115,0,0,0,2.229,0v-8.794h8.756A20.229,20.229,0,0,1,103.568,125.765Zm10.03-16.309h-8.916v-7.695H113.6Z" transform="translate(-78.986 -86.34)"/></g></g></svg>