<svg xmlns="http://www.w3.org/2000/svg" width="1354.38" height="108.333" viewBox="0 0 1354.38 108.333">
  <g id="Group_140" data-name="Group 140" transform="translate(4339 1864.305)">
    <line id="Line_26" data-name="Line 26" x2="1354.38" transform="translate(-4339 -1863.805)" fill="none" stroke="#03306b" stroke-miterlimit="10" stroke-width="1"/>
    <path id="Path_322" data-name="Path 322" d="M40.694-22.066q0,10.439-6,16.253T17.44,0H5.063V-44.069H17.44q11.252,0,17.253,5.813T40.694-22.066ZM17.315-2.563q10.127,0,15.315-5.126t5.188-14.377q0-9.251-5.22-14.377T17.315-41.569H7.876V-2.563ZM64.385-34.38a17.621,17.621,0,0,1,8.626,2.094,14.862,14.862,0,0,1,5.97,6.032A18.968,18.968,0,0,1,81.138-17a19.1,19.1,0,0,1-2.157,9.314,14.861,14.861,0,0,1-5.97,6.032A17.621,17.621,0,0,1,64.385.438a17.493,17.493,0,0,1-8.564-2.094,15.014,15.014,0,0,1-6-6.063A18.928,18.928,0,0,1,47.633-17a18.748,18.748,0,0,1,2.188-9.251,15.064,15.064,0,0,1,6-6.032A17.493,17.493,0,0,1,64.385-34.38Zm0,2.5a14.734,14.734,0,0,0-6.845,1.625,12.42,12.42,0,0,0-5.095,4.97A16.294,16.294,0,0,0,50.508-17a16.47,16.47,0,0,0,1.938,8.314,12.372,12.372,0,0,0,5.095,5,14.734,14.734,0,0,0,6.845,1.625A14.734,14.734,0,0,0,71.23-3.688a12.372,12.372,0,0,0,5.095-5A16.47,16.47,0,0,0,78.262-17a16.51,16.51,0,0,0-1.907-8.283,12.227,12.227,0,0,0-5.063-4.97A14.866,14.866,0,0,0,64.385-31.88Zm65.76-2.75a12.361,12.361,0,0,1,9.345,3.751q3.594,3.751,3.594,11.064V0h-2.75V-19.691q0-6.063-2.875-9.251a10.071,10.071,0,0,0-7.876-3.188,11.017,11.017,0,0,0-8.6,3.563q-3.219,3.563-3.219,10.5V0h-2.75V-19.691q0-6.063-2.907-9.251A10.169,10.169,0,0,0,104.2-32.13a10.943,10.943,0,0,0-8.533,3.563Q92.452-25,92.452-18.065V0H89.639V-33.943h2.813v8.814a11.882,11.882,0,0,1,4.594-7.095,13.255,13.255,0,0,1,7.845-2.407,12.825,12.825,0,0,1,7.97,2.532,12.207,12.207,0,0,1,4.407,7.532,12.368,12.368,0,0,1,4.719-7.532A13.642,13.642,0,0,1,130.146-34.63ZM151.9-44.194a2.245,2.245,0,0,1,.656-1.657,2.325,2.325,0,0,1,1.719-.656,2.432,2.432,0,0,1,1.75.656,2.193,2.193,0,0,1,.688,1.657,2.268,2.268,0,0,1-.688,1.719,2.432,2.432,0,0,1-1.75.656,2.325,2.325,0,0,1-1.719-.656A2.325,2.325,0,0,1,151.9-44.194Zm3.813,10.252V0H152.9V-33.943Zm25.879-.688a13.192,13.192,0,0,1,9.752,3.751q3.751,3.751,3.751,11.064V0H192.28V-19.691q0-6.126-3.063-9.345a11.011,11.011,0,0,0-8.376-3.219A11.511,11.511,0,0,0,172-28.661q-3.344,3.594-3.344,10.6V0h-2.813V-33.943h2.813V-25a12.1,12.1,0,0,1,4.782-7.189A14.008,14.008,0,0,1,181.591-34.63Zm22.254-9.564a2.245,2.245,0,0,1,.656-1.657,2.325,2.325,0,0,1,1.719-.656,2.432,2.432,0,0,1,1.75.656,2.193,2.193,0,0,1,.688,1.657,2.268,2.268,0,0,1-.688,1.719,2.432,2.432,0,0,1-1.75.656,2.325,2.325,0,0,1-1.719-.656A2.325,2.325,0,0,1,203.845-44.194Zm3.813,10.252V0h-2.813V-33.943ZM235.287,0,220.6-15.627V0h-2.813V-46.257H220.6V-18.69l14.377-15.252h3.688L222.535-17.128,239.038,0Zm41.132-34.38a15.013,15.013,0,0,1,9.376,2.907,14.394,14.394,0,0,1,5.188,7.657V-46.257H293.8V0h-2.813V-10.127A14.394,14.394,0,0,1,285.8-2.469,15.013,15.013,0,0,1,276.419.438a16.617,16.617,0,0,1-8.408-2.094,14.5,14.5,0,0,1-5.72-6.063A19.861,19.861,0,0,1,260.229-17a19.672,19.672,0,0,1,2.063-9.251,14.545,14.545,0,0,1,5.72-6.032A16.617,16.617,0,0,1,276.419-34.38Zm.625,2.5a13.315,13.315,0,0,0-10.158,4Q263.1-23.879,263.1-17q0,6.939,3.751,10.939t10.189,4a14.093,14.093,0,0,0,7.189-1.844,12.731,12.731,0,0,0,4.97-5.251A16.684,16.684,0,0,0,290.983-17a16.5,16.5,0,0,0-1.782-7.814,12.776,12.776,0,0,0-4.97-5.22A14.093,14.093,0,0,0,277.044-31.88ZM318.613-1.938a14.085,14.085,0,0,0,8.626-2.594,10.658,10.658,0,0,0,4.251-7.095h2.938a13.792,13.792,0,0,1-5.095,8.751,16.472,16.472,0,0,1-10.6,3.313,17.091,17.091,0,0,1-8.533-2.094,14.829,14.829,0,0,1-5.845-6.032A19.333,19.333,0,0,1,302.235-17a19.2,19.2,0,0,1,2.125-9.251,14.829,14.829,0,0,1,5.845-6.032,17.091,17.091,0,0,1,8.533-2.094,16.656,16.656,0,0,1,8.533,2.094,14.068,14.068,0,0,1,5.438,5.5,15.068,15.068,0,0,1,1.844,7.282,18.878,18.878,0,0,1-.313,3.313H305.048a15.828,15.828,0,0,0,1.969,7.97,12,12,0,0,0,4.938,4.751A14.552,14.552,0,0,0,318.613-1.938Zm.125-30.13a14.637,14.637,0,0,0-6.751,1.563,12.214,12.214,0,0,0-4.97,4.751,15.521,15.521,0,0,0-1.969,7.876H331.8a14.3,14.3,0,0,0-1.563-7.907,11.389,11.389,0,0,0-4.876-4.751A14.609,14.609,0,0,0,318.738-32.068Zm67.136,21.191a11.955,11.955,0,0,1-1.313,5.47,10.16,10.16,0,0,1-4.126,4.219A13.95,13.95,0,0,1,373.371.438a16.263,16.263,0,0,1-7.251-1.563,13.239,13.239,0,0,1-5.063-4.188A11.7,11.7,0,0,1,358.869-11h2.938A11.466,11.466,0,0,0,363.4-6.876a10.252,10.252,0,0,0,3.782,3.563,12.113,12.113,0,0,0,6.126,1.438q4.626,0,7.126-2.563a8.769,8.769,0,0,0,2.5-6.376,8.4,8.4,0,0,0-1.563-5.313,10.374,10.374,0,0,0-3.844-3.063,48.384,48.384,0,0,0-6.22-2.25,51.67,51.67,0,0,1-6.689-2.407,10.717,10.717,0,0,1-4.219-3.532,10.425,10.425,0,0,1-1.719-6.251,10.172,10.172,0,0,1,3.313-7.814q3.313-3.063,9.189-3.063,5.938,0,9.408,2.969a12.308,12.308,0,0,1,4.282,7.095h-3a9.954,9.954,0,0,0-3.313-5.345,10.659,10.659,0,0,0-7.376-2.407,10.264,10.264,0,0,0-6.907,2.219,7.816,7.816,0,0,0-2.594,6.282,7.906,7.906,0,0,0,1.5,5.032,10.061,10.061,0,0,0,3.719,2.938,45.171,45.171,0,0,0,6.032,2.157,47.613,47.613,0,0,1,6.814,2.469,11.407,11.407,0,0,1,4.344,3.657A10.9,10.9,0,0,1,385.873-10.877Zm49.07-23.754a12.361,12.361,0,0,1,9.345,3.751q3.594,3.751,3.594,11.064V0h-2.75V-19.691q0-6.063-2.875-9.251a10.071,10.071,0,0,0-7.876-3.188,11.017,11.017,0,0,0-8.6,3.563q-3.219,3.563-3.219,10.5V0h-2.75V-19.691q0-6.063-2.907-9.251A10.169,10.169,0,0,0,409-32.13a10.943,10.943,0,0,0-8.533,3.563Q397.25-25,397.25-18.065V0h-2.813V-33.943h2.813v8.814a11.882,11.882,0,0,1,4.594-7.095,13.255,13.255,0,0,1,7.845-2.407,12.825,12.825,0,0,1,7.97,2.532,12.207,12.207,0,0,1,4.407,7.532,12.368,12.368,0,0,1,4.719-7.532A13.642,13.642,0,0,1,434.944-34.63ZM456.7-44.194a2.246,2.246,0,0,1,.656-1.657,2.325,2.325,0,0,1,1.719-.656,2.432,2.432,0,0,1,1.75.656,2.193,2.193,0,0,1,.688,1.657,2.268,2.268,0,0,1-.688,1.719,2.432,2.432,0,0,1-1.75.656,2.325,2.325,0,0,1-1.719-.656A2.325,2.325,0,0,1,456.7-44.194Zm3.813,10.252V0H457.7V-33.943Zm14.44,2.563V-9.564q0,4.063,1.438,5.532t5.063,1.469h3.563V0h-3.876q-4.688,0-6.845-2.188t-2.157-7.376V-31.38h-5.376v-2.563h5.376v-8.626h2.813v8.626h10.064v2.563ZM493.828-2.75a15.609,15.609,0,0,1,.313,3.188,6.813,6.813,0,0,1-1.25,4.407,4.409,4.409,0,0,1-3.626,1.531V4.751a2.566,2.566,0,0,0,2.157-.844,4.206,4.206,0,0,0,.656-2.594V.875H489.7V-2.75Zm43.757-41.757q7.751,0,12.877,3.719a20.546,20.546,0,0,1,7.376,10.22H554.9a16.835,16.835,0,0,0-6.313-8.22,18.77,18.77,0,0,0-11-3.094,17.285,17.285,0,0,0-9.033,2.407,16.932,16.932,0,0,0-6.376,6.907A22.568,22.568,0,0,0,519.832-22a22.425,22.425,0,0,0,2.344,10.5,16.932,16.932,0,0,0,6.376,6.907,17.285,17.285,0,0,0,9.033,2.407,18.77,18.77,0,0,0,11-3.094A16.865,16.865,0,0,0,554.9-13.44h2.938a20.371,20.371,0,0,1-7.376,10.189Q545.336.438,537.585.438a20.36,20.36,0,0,1-10.72-2.844,19.415,19.415,0,0,1-7.345-7.97A25.138,25.138,0,0,1,516.894-22a25.138,25.138,0,0,1,2.625-11.627,19.629,19.629,0,0,1,7.345-8A20.19,20.19,0,0,1,537.585-44.507Zm31.63,2.813v18.5H587.03v2.25H569.215V-2.375h19.691V0H566.4V-44.069h22.5v2.375Zm47.445-2.75A21.14,21.14,0,0,1,627.568-41.6a19.784,19.784,0,0,1,7.564,7.97A24.425,24.425,0,0,1,637.851-22a24.425,24.425,0,0,1-2.719,11.627,20,20,0,0,1-7.564,8A20.962,20.962,0,0,1,616.66.5a20.962,20.962,0,0,1-10.908-2.875,20.216,20.216,0,0,1-7.595-8A24.2,24.2,0,0,1,595.406-22a24.2,24.2,0,0,1,2.75-11.627,20,20,0,0,1,7.595-7.97A21.14,21.14,0,0,1,616.66-44.445Zm0,2.563a18.126,18.126,0,0,0-9.345,2.438,17.294,17.294,0,0,0-6.564,6.939A21.945,21.945,0,0,0,598.344-22a21.945,21.945,0,0,0,2.407,10.5,17.294,17.294,0,0,0,6.564,6.939,18.126,18.126,0,0,0,9.345,2.438,18.175,18.175,0,0,0,9.314-2.438,17.228,17.228,0,0,0,6.595-6.939A21.945,21.945,0,0,0,634.975-22a21.945,21.945,0,0,0-2.407-10.5,17.228,17.228,0,0,0-6.595-6.939A18.175,18.175,0,0,0,616.66-41.882ZM699.3-22.066q0,10.439-6,16.253T676.044,0H663.667V-44.069h12.377q11.252,0,17.253,5.813T699.3-22.066Zm-23.379,19.5q10.127,0,15.315-5.126t5.188-14.377q0-9.251-5.22-14.377t-15.284-5.126H666.48V-2.563Zm46.695.625a14.085,14.085,0,0,0,8.626-2.594,10.658,10.658,0,0,0,4.251-7.095h2.938a13.792,13.792,0,0,1-5.095,8.751,16.472,16.472,0,0,1-10.6,3.313,17.091,17.091,0,0,1-8.533-2.094,14.83,14.83,0,0,1-5.845-6.032A19.334,19.334,0,0,1,706.236-17a19.2,19.2,0,0,1,2.125-9.251,14.83,14.83,0,0,1,5.845-6.032,17.091,17.091,0,0,1,8.533-2.094,16.656,16.656,0,0,1,8.533,2.094,14.069,14.069,0,0,1,5.438,5.5,15.068,15.068,0,0,1,1.844,7.282,18.883,18.883,0,0,1-.312,3.313H709.049a15.828,15.828,0,0,0,1.969,7.97,12,12,0,0,0,4.938,4.751A14.552,14.552,0,0,0,722.614-1.938Zm.125-30.13a14.637,14.637,0,0,0-6.751,1.563,12.215,12.215,0,0,0-4.97,4.751,15.52,15.52,0,0,0-1.969,7.876H735.8a14.3,14.3,0,0,0-1.563-7.907,11.389,11.389,0,0,0-4.876-4.751A14.609,14.609,0,0,0,722.739-32.068Zm36.006,28.5,12.439-30.38h3.063L760.182,0h-3l-14-33.943h3Zm47.382-7.314a11.955,11.955,0,0,1-1.313,5.47,10.16,10.16,0,0,1-4.126,4.219A13.95,13.95,0,0,1,793.625.438a16.263,16.263,0,0,1-7.251-1.563,13.239,13.239,0,0,1-5.063-4.188A11.7,11.7,0,0,1,779.123-11h2.938a11.466,11.466,0,0,0,1.594,4.126,10.253,10.253,0,0,0,3.782,3.563,12.113,12.113,0,0,0,6.126,1.438q4.626,0,7.126-2.563a8.769,8.769,0,0,0,2.5-6.376,8.4,8.4,0,0,0-1.563-5.313,10.374,10.374,0,0,0-3.844-3.063,48.382,48.382,0,0,0-6.22-2.25,51.67,51.67,0,0,1-6.689-2.407,10.717,10.717,0,0,1-4.219-3.532,10.425,10.425,0,0,1-1.719-6.251,10.172,10.172,0,0,1,3.313-7.814q3.313-3.063,9.189-3.063,5.938,0,9.408,2.969a12.308,12.308,0,0,1,4.282,7.095h-3a9.954,9.954,0,0,0-3.313-5.345,10.659,10.659,0,0,0-7.376-2.407,10.263,10.263,0,0,0-6.907,2.219,7.816,7.816,0,0,0-2.594,6.282,7.906,7.906,0,0,0,1.5,5.032,10.062,10.062,0,0,0,3.719,2.938,45.175,45.175,0,0,0,6.032,2.157A47.609,47.609,0,0,1,800-21.1a11.406,11.406,0,0,1,4.344,3.657A10.9,10.9,0,0,1,806.127-10.877Zm23.316,8.939a14.085,14.085,0,0,0,8.626-2.594,10.658,10.658,0,0,0,4.251-7.095h2.938a13.792,13.792,0,0,1-5.095,8.751,16.472,16.472,0,0,1-10.6,3.313,17.091,17.091,0,0,1-8.533-2.094,14.83,14.83,0,0,1-5.845-6.032A19.334,19.334,0,0,1,813.066-17a19.2,19.2,0,0,1,2.125-9.251,14.83,14.83,0,0,1,5.845-6.032,17.091,17.091,0,0,1,8.533-2.094,16.656,16.656,0,0,1,8.533,2.094,14.069,14.069,0,0,1,5.438,5.5,15.068,15.068,0,0,1,1.844,7.282,18.883,18.883,0,0,1-.312,3.313H815.879a15.828,15.828,0,0,0,1.969,7.97,12,12,0,0,0,4.938,4.751A14.552,14.552,0,0,0,829.443-1.938Zm.125-30.13a14.637,14.637,0,0,0-6.751,1.563,12.215,12.215,0,0,0-4.97,4.751,15.52,15.52,0,0,0-1.969,7.876h26.754a14.3,14.3,0,0,0-1.563-7.907,11.389,11.389,0,0,0-4.876-4.751A14.609,14.609,0,0,0,829.568-32.068Zm39.194-2.313a16.5,16.5,0,0,1,10.627,3.344,13.905,13.905,0,0,1,5.126,8.845h-2.938a10.774,10.774,0,0,0-4.251-7.126,13.968,13.968,0,0,0-8.626-2.625,14.177,14.177,0,0,0-6.751,1.625,12.152,12.152,0,0,0-4.938,5A16.915,16.915,0,0,0,855.135-17a16.915,16.915,0,0,0,1.875,8.314,12.152,12.152,0,0,0,4.938,5A14.177,14.177,0,0,0,868.7-2.063a13.968,13.968,0,0,0,8.626-2.625,10.774,10.774,0,0,0,4.251-7.126h2.938a13.945,13.945,0,0,1-5.126,8.908A16.5,16.5,0,0,1,868.762.438a17.091,17.091,0,0,1-8.533-2.094,14.83,14.83,0,0,1-5.845-6.032A19.334,19.334,0,0,1,852.259-17a19.2,19.2,0,0,1,2.125-9.251,14.83,14.83,0,0,1,5.845-6.032A17.091,17.091,0,0,1,868.762-34.38Zm43.944-10.064A21.14,21.14,0,0,1,923.614-41.6a19.784,19.784,0,0,1,7.564,7.97A24.425,24.425,0,0,1,933.9-22a24.425,24.425,0,0,1-2.719,11.627,20,20,0,0,1-7.564,8A20.962,20.962,0,0,1,912.706.5,20.962,20.962,0,0,1,901.8-2.375a20.216,20.216,0,0,1-7.595-8A24.2,24.2,0,0,1,891.453-22,24.2,24.2,0,0,1,894.2-33.63,20,20,0,0,1,901.8-41.6,21.14,21.14,0,0,1,912.706-44.445Zm0,2.563a18.126,18.126,0,0,0-9.345,2.438,17.294,17.294,0,0,0-6.564,6.939A21.945,21.945,0,0,0,894.391-22,21.945,21.945,0,0,0,896.8-11.5a17.294,17.294,0,0,0,6.564,6.939,18.126,18.126,0,0,0,9.345,2.438,18.175,18.175,0,0,0,9.314-2.438,17.228,17.228,0,0,0,6.595-6.939A21.945,21.945,0,0,0,931.022-22a21.945,21.945,0,0,0-2.407-10.5,17.228,17.228,0,0,0-6.595-6.939A18.175,18.175,0,0,0,912.706-41.882Zm47.132,7.5a16.617,16.617,0,0,1,8.408,2.094,14.545,14.545,0,0,1,5.72,6.032A19.671,19.671,0,0,1,976.029-17a19.861,19.861,0,0,1-2.063,9.283,14.5,14.5,0,0,1-5.72,6.063A16.617,16.617,0,0,1,959.839.438a15.046,15.046,0,0,1-9.345-2.907,14.331,14.331,0,0,1-5.22-7.657V16h-2.75V-33.943h2.75v10.127a14.331,14.331,0,0,1,5.22-7.657A15.046,15.046,0,0,1,959.839-34.38Zm-.563,2.5a14.093,14.093,0,0,0-7.189,1.844,12.984,12.984,0,0,0-5,5.22A16.263,16.263,0,0,0,945.274-17a16.448,16.448,0,0,0,1.813,7.845,12.936,12.936,0,0,0,5,5.251,14.093,14.093,0,0,0,7.189,1.844,13.315,13.315,0,0,0,10.158-4q3.782-4,3.782-10.939,0-6.876-3.782-10.877A13.315,13.315,0,0,0,959.276-31.88Zm34.881-2.5a12.535,12.535,0,0,1,8.564,2.844,11.9,11.9,0,0,1,3.876,7.782h-2.688A9.377,9.377,0,0,0,1001-29.786a9.526,9.526,0,0,0-6.845-2.407,8.8,8.8,0,0,0-5.97,1.875,6.3,6.3,0,0,0-2.157,5,5.194,5.194,0,0,0,1.281,3.688,7.754,7.754,0,0,0,3.125,2.032q1.844.656,5.157,1.469a41.6,41.6,0,0,1,5.938,1.688,9.26,9.26,0,0,1,3.813,2.75,7.765,7.765,0,0,1,1.563,5.126,8.21,8.21,0,0,1-2.875,6.5,11.115,11.115,0,0,1-7.564,2.5,14.407,14.407,0,0,1-9.22-2.844,11.532,11.532,0,0,1-4.282-7.782h2.813a8.929,8.929,0,0,0,3.157,6.032,11.219,11.219,0,0,0,7.595,2.407,7.944,7.944,0,0,0,5.657-1.907,6.5,6.5,0,0,0,2.032-4.97,5.645,5.645,0,0,0-1.313-3.907,7.734,7.734,0,0,0-3.282-2.157,51.67,51.67,0,0,0-5.22-1.438,45.515,45.515,0,0,1-5.845-1.719,9.238,9.238,0,0,1-3.688-2.625,7.184,7.184,0,0,1-1.531-4.845,8.178,8.178,0,0,1,2.938-6.595A11.845,11.845,0,0,1,994.157-34.38Zm63.385,22.941h-20.878L1032.35,0h-3.125l16.315-42.882h3.125L1064.855,0h-3.063Zm-.875-2.313L1047.1-39.444l-9.626,25.692Zm29.817-20.628a16.5,16.5,0,0,1,10.627,3.344,13.905,13.905,0,0,1,5.126,8.845H1099.3a10.775,10.775,0,0,0-4.251-7.126,13.968,13.968,0,0,0-8.626-2.625,14.177,14.177,0,0,0-6.751,1.625,12.152,12.152,0,0,0-4.938,5A16.914,16.914,0,0,0,1072.857-17a16.914,16.914,0,0,0,1.875,8.314,12.152,12.152,0,0,0,4.938,5,14.177,14.177,0,0,0,6.751,1.625,13.968,13.968,0,0,0,8.626-2.625,10.775,10.775,0,0,0,4.251-7.126h2.938a13.946,13.946,0,0,1-5.126,8.908A16.5,16.5,0,0,1,1086.484.438a17.091,17.091,0,0,1-8.533-2.094,14.829,14.829,0,0,1-5.845-6.032A19.334,19.334,0,0,1,1069.981-17a19.2,19.2,0,0,1,2.125-9.251,14.829,14.829,0,0,1,5.845-6.032A17.091,17.091,0,0,1,1086.484-34.38Zm38.819,0a15.013,15.013,0,0,1,9.376,2.907,14.394,14.394,0,0,1,5.188,7.657V-33.943h2.813V0h-2.813V-10.127a14.394,14.394,0,0,1-5.188,7.657A15.013,15.013,0,0,1,1125.3.438a16.616,16.616,0,0,1-8.407-2.094,14.5,14.5,0,0,1-5.72-6.063A19.861,19.861,0,0,1,1109.112-17a19.671,19.671,0,0,1,2.063-9.251,14.546,14.546,0,0,1,5.72-6.032A16.616,16.616,0,0,1,1125.3-34.38Zm.625,2.5a13.315,13.315,0,0,0-10.158,4q-3.782,4-3.782,10.877,0,6.939,3.751,10.939t10.189,4a14.093,14.093,0,0,0,7.189-1.844,12.73,12.73,0,0,0,4.97-5.251A16.685,16.685,0,0,0,1139.867-17a16.5,16.5,0,0,0-1.781-7.814,12.776,12.776,0,0,0-4.97-5.22A14.093,14.093,0,0,0,1125.927-31.88Zm41.381-2.5a15.013,15.013,0,0,1,9.376,2.907,14.394,14.394,0,0,1,5.188,7.657V-46.257h2.813V0h-2.813V-10.127a14.394,14.394,0,0,1-5.188,7.657,15.013,15.013,0,0,1-9.376,2.907,16.616,16.616,0,0,1-8.407-2.094,14.5,14.5,0,0,1-5.72-6.063A19.861,19.861,0,0,1,1151.119-17a19.671,19.671,0,0,1,2.063-9.251,14.546,14.546,0,0,1,5.72-6.032A16.616,16.616,0,0,1,1167.309-34.38Zm.625,2.5a13.315,13.315,0,0,0-10.158,4q-3.782,4-3.782,10.877,0,6.939,3.751,10.939t10.189,4a14.093,14.093,0,0,0,7.189-1.844,12.73,12.73,0,0,0,4.97-5.251A16.685,16.685,0,0,0,1181.874-17a16.5,16.5,0,0,0-1.781-7.814,12.776,12.776,0,0,0-4.97-5.22A14.093,14.093,0,0,0,1167.934-31.88ZM1209.5-1.938a14.085,14.085,0,0,0,8.626-2.594,10.659,10.659,0,0,0,4.251-7.095h2.938a13.792,13.792,0,0,1-5.095,8.751,16.471,16.471,0,0,1-10.6,3.313,17.091,17.091,0,0,1-8.533-2.094,14.829,14.829,0,0,1-5.845-6.032A19.334,19.334,0,0,1,1193.125-17a19.2,19.2,0,0,1,2.125-9.251,14.829,14.829,0,0,1,5.845-6.032,17.091,17.091,0,0,1,8.533-2.094,16.656,16.656,0,0,1,8.533,2.094,14.069,14.069,0,0,1,5.438,5.5,15.068,15.068,0,0,1,1.844,7.282,18.877,18.877,0,0,1-.312,3.313h-29.192a15.827,15.827,0,0,0,1.969,7.97,12,12,0,0,0,4.938,4.751A14.552,14.552,0,0,0,1209.5-1.938Zm.125-30.13a14.637,14.637,0,0,0-6.751,1.563,12.214,12.214,0,0,0-4.969,4.751,15.519,15.519,0,0,0-1.969,7.876h26.754a14.305,14.305,0,0,0-1.563-7.907,11.389,11.389,0,0,0-4.876-4.751A14.609,14.609,0,0,0,1209.628-32.068Zm64.823-2.563a12.361,12.361,0,0,1,9.345,3.751q3.594,3.751,3.594,11.064V0h-2.75V-19.691q0-6.063-2.875-9.251a10.071,10.071,0,0,0-7.876-3.188,11.017,11.017,0,0,0-8.6,3.563q-3.219,3.563-3.219,10.5V0h-2.75V-19.691q0-6.063-2.907-9.251a10.169,10.169,0,0,0-7.908-3.188,10.944,10.944,0,0,0-8.533,3.563q-3.219,3.563-3.219,10.5V0h-2.813V-33.943h2.813v8.814a11.883,11.883,0,0,1,4.594-7.095,13.255,13.255,0,0,1,7.845-2.407,12.826,12.826,0,0,1,7.97,2.532,12.207,12.207,0,0,1,4.407,7.532,12.368,12.368,0,0,1,4.719-7.532A13.642,13.642,0,0,1,1274.451-34.63Zm21.816.688,12.752,30.192,11.814-30.192h3.125L1304.268,16h-3.251l6.5-16.19-14.377-33.755Z" transform="translate(-4324.605 -1771.975)" fill="#03306b"/>
  </g>
</svg>
