<svg xmlns="http://www.w3.org/2000/svg" width="53" height="41" viewBox="0 0 53 41"><defs><style>.a{fill:#ec972f;}.b{fill:#e68300;}.c{fill:#ff5a51;}.d{fill:#ff1e11;}.e{fill:#ffa537;}.f{fill:#ff9100;}</style></defs><path class="a" d="M91,300v9.462h34.16V300Zm0,0" transform="translate(-81.58 -268.462)"/><path class="b" d="M256,300h17.08v9.462H256Zm0,0" transform="translate(-229.5 -268.462)"/><path class="c" d="M123.971,98.326l-2.516,4.983H92.016L89.5,98.326C93.2,93.122,99.624,90,106.736,90s13.54,3.122,17.235,8.326Zm0,0" transform="translate(-80.236 -80.538)"/><path class="d" d="M273.235,98.326l-2.516,4.983H256V90c7.111,0,13.54,3.122,17.235,8.326Zm0,0" transform="translate(-229.5 -80.538)"/><path class="e" d="M80.674,78.526,74.866,98.584H40.706L34.9,78.526l3.913-1.514a10.951,10.951,0,0,0,7.919,5.8h1.615c3.571-.568,6.242-6.118,7.329-11.417H59.9c1.087,5.3,3.758,10.85,7.329,11.417h1.615a10.951,10.951,0,0,0,7.919-5.8Zm0,0" transform="translate(-31.286 -63.892)"/><path class="f" d="M278.888,78.526,273.08,98.584H256V71.4h2.112c1.087,5.3,3.758,10.85,7.329,11.417h1.615a10.951,10.951,0,0,0,7.919-5.8Zm0,0" transform="translate(-229.5 -63.892)"/><path class="e" d="M4.762,69.462a4.731,4.731,0,1,1,0-9.462,4.731,4.731,0,0,1,0,9.462Zm0,0" transform="translate(0 -53.692)"/><path class="f" d="M425.658,69.462a4.731,4.731,0,0,1,0-9.462,4.731,4.731,0,1,1,0,9.462Zm0,0" transform="translate(-377.42 -53.692)"/><path class="e" d="M215.658,0A4.688,4.688,0,0,0,211,4.731a4.659,4.659,0,1,0,9.316,0A4.688,4.688,0,0,0,215.658,0Zm0,0" transform="translate(-189.158)"/><path class="c" d="M210.01,173.7l-5.31,5.393,5.31,5.393,5.31-5.393Zm0,0" transform="translate(-183.51 -155.438)"/><path class="d" d="M326.985,233.785l2.2,2.23-2.2,2.23-2.2-2.23Zm0,0" transform="translate(-291.168 -209.208)"/><path class="c" d="M146.985,233.785l2.2,2.23-2.2,2.23-2.2-2.23Zm0,0" transform="translate(-129.801 -209.208)"/><path class="f" d="M256,9.462V0a4.688,4.688,0,0,1,4.658,4.731A4.689,4.689,0,0,1,256,9.462Zm0,0" transform="translate(-229.5)"/><path class="d" d="M261.311,179.092,256,184.485V173.7Zm0,0" transform="translate(-229.5 -155.438)"/></svg>