<svg xmlns="http://www.w3.org/2000/svg" width="30" height="40" viewBox="0 0 30 40"><defs><style>.a{fill:#5a6470;}.b{fill:#7d8d9c;}.c{fill:#e1462b;}.d{fill:#394d5c;}.e{fill:#fcf05a;}.f{fill:#55b56a;}</style></defs><g transform="translate(-10 -3)"><path class="a" d="M12,12H39.586V38.207H12Z" transform="translate(-0.621 -2.793)"/><rect class="b" width="30" height="9" rx="2" transform="translate(10 13)"/><circle class="c" cx="1.5" cy="1.5" r="1.5" transform="translate(35 16)"/><g transform="translate(12.069 15.414)"><path class="d" d="M13,21h1.379v4.138H13Z" transform="translate(-13 -21)"/><path class="d" d="M17,21h1.379v4.138H17Z" transform="translate(-14.241 -21)"/><path class="d" d="M21,21h1.379v4.138H21Z" transform="translate(-15.483 -21)"/><path class="d" d="M25,21h1.379v4.138H25Z" transform="translate(-16.724 -21)"/><path class="d" d="M41,23h1.379v1.379H41Z" transform="translate(-21.69 -21.621)"/><path class="d" d="M37,23h1.379v1.379H37Z" transform="translate(-20.448 -21.621)"/><path class="d" d="M33,23h1.379v1.379H33Z" transform="translate(-19.207 -21.621)"/></g><rect class="b" width="30" height="7" rx="2" transform="translate(10 24)"/><path class="d" d="M13,37h1.379v2.759H13Z" transform="translate(-0.931 -10.552)"/><path class="d" d="M17,37h1.379v2.759H17Z" transform="translate(-2.172 -10.552)"/><path class="d" d="M21,37h1.379v2.759H21Z" transform="translate(-3.414 -10.552)"/><path class="d" d="M25,37h1.379v2.759H25Z" transform="translate(-4.655 -10.552)"/><path class="d" d="M41,38h1.379v1.379H41Z" transform="translate(-9.621 -10.862)"/><path class="d" d="M37,38h1.379v1.379H37Z" transform="translate(-8.379 -10.862)"/><path class="d" d="M33,38h1.379v1.379H33Z" transform="translate(-7.138 -10.862)"/><ellipse class="e" cx="0.5" cy="1" rx="0.5" ry="1" transform="translate(36 27)"/><rect class="b" width="30" height="7" rx="2" transform="translate(10 3)"/><path class="d" d="M13,6h1.379V8.759H13Z" transform="translate(-0.931 -0.931)"/><path class="d" d="M17,6h1.379V8.759H17Z" transform="translate(-2.172 -0.931)"/><path class="d" d="M21,6h1.379V8.759H21Z" transform="translate(-3.414 -0.931)"/><path class="d" d="M25,6h1.379V8.759H25Z" transform="translate(-4.655 -0.931)"/><path class="d" d="M37,7h1.379V8.379H37Z" transform="translate(-8.379 -1.241)"/><path class="d" d="M41,7h1.379V8.379H41Z" transform="translate(-9.621 -1.241)"/><path class="d" d="M33,7h1.379V8.379H33Z" transform="translate(-7.138 -1.241)"/><circle class="e" cx="0.5" cy="0.5" r="0.5" transform="translate(36 6)"/><rect class="b" width="30" height="8" rx="2" transform="translate(10 35)"/><circle class="f" cx="1.5" cy="1.5" r="1.5" transform="translate(35 37)"/><path class="d" d="M13,52h1.379v4.138H13Z" transform="translate(-0.931 -15.207)"/><path class="d" d="M17,52h1.379v4.138H17Z" transform="translate(-2.172 -15.207)"/><path class="d" d="M21,52h1.379v4.138H21Z" transform="translate(-3.414 -15.207)"/><path class="d" d="M25,52h1.379v4.138H25Z" transform="translate(-4.655 -15.207)"/><path class="d" d="M41,54h1.379v1.379H41Z" transform="translate(-9.621 -15.828)"/><path class="d" d="M37,54h1.379v1.379H37Z" transform="translate(-8.379 -15.828)"/><path class="d" d="M33,54h1.379v1.379H33Z" transform="translate(-7.138 -15.828)"/></g></svg>