<svg xmlns="http://www.w3.org/2000/svg" width="45" height="38.57" viewBox="0 0 45 38.57"><defs><style>.a{fill:#27393d;}.b{fill:#fcb156;}.c{fill:#fff9f2;}.d{fill:#ffa42c;}</style></defs><g transform="translate(0 -30.897)"><path class="a" d="M0,30.9V64.173H32.586V61.188a7.082,7.082,0,0,0,6.207,0v2.985H45V30.9Z"/><path class="b" d="M340.586,240.737a6.985,6.985,0,1,0-6.983,6.806,6.9,6.9,0,0,0,6.983-6.806" transform="translate(-297.914 -185.64)"/><g transform="translate(31.034 50.56)"><path class="c" d="M398.017,309.845a.757.757,0,1,1,0-1.513,3.068,3.068,0,0,0,3.1-3.025.776.776,0,0,1,1.552,0,4.6,4.6,0,0,1-4.655,4.538" transform="translate(-393.362 -300.77)"/><path class="c" d="M353.879,265.707a.766.766,0,0,1-.776-.756,4.6,4.6,0,0,1,4.655-4.538.757.757,0,1,1,0,1.513,3.068,3.068,0,0,0-3.1,3.025.766.766,0,0,1-.776.756" transform="translate(-353.103 -260.413)"/></g><path class="c" d="M60.914,87.382A6.9,6.9,0,0,1,67.9,80.576a7,7,0,0,1,6.207,3.7V69.232A3.065,3.065,0,0,1,71,66.207H38.414a3.065,3.065,0,0,1-3.1,3.025V90.408a3.065,3.065,0,0,1,3.1,3.025H64.708a6.784,6.784,0,0,1-3.793-6.05" transform="translate(-32.207 -32.285)"/><path class="d" d="M373.862,385.184a7.081,7.081,0,0,1-3.1-.716v8.279l3.1-3.025,3.1,3.025v-8.279a7.082,7.082,0,0,1-3.1.716" transform="translate(-338.173 -323.28)"/><g transform="translate(9.31 37.703)"><path class="a" d="M204.292,111.857h-9.31a.757.757,0,1,1,0-1.513h9.31a.757.757,0,1,1,0,1.513" transform="translate(-186.447 -110.344)"/><path class="a" d="M131.534,155.995H106.707a.757.757,0,1,1,0-1.513h24.828a.757.757,0,1,1,0,1.513" transform="translate(-105.931 -150.701)"/><path class="a" d="M131.534,200.133H106.707a.757.757,0,1,1,0-1.513h24.828a.757.757,0,1,1,0,1.513" transform="translate(-105.931 -191.057)"/><path class="a" d="M170.534,244.271H159.672a.757.757,0,1,1,0-1.513h10.862a.757.757,0,1,1,0,1.513" transform="translate(-154.241 -231.414)"/><path class="a" d="M108.259,244.271h-1.552a.757.757,0,1,1,0-1.513h1.552a.757.757,0,1,1,0,1.513" transform="translate(-105.931 -231.414)"/><path class="a" d="M112.913,288.409h-6.207a.757.757,0,1,1,0-1.513h6.207a.757.757,0,1,1,0,1.513" transform="translate(-105.93 -271.771)"/><path class="a" d="M218.845,288.409h-6.207a.757.757,0,1,1,0-1.513h6.207a.757.757,0,1,1,0,1.513" transform="translate(-202.552 -271.771)"/></g></g></svg>