<svg xmlns="http://www.w3.org/2000/svg" width="53" height="41" viewBox="0 0 53 41"><defs><style>.a{fill:#1890ff;}.b{fill:#157ad8;}.c{fill:#27393d;}.d{fill:#fcb156;}.e{fill:#ffa42c;}.f{fill:#ff5a51;}.g{fill:#fcc787;}</style></defs><g transform="translate(0 -57.5)"><ellipse class="a" cx="19.771" cy="19.724" rx="19.771" ry="19.724" transform="translate(6.729 58.276)"/><path class="b" d="M242.116,65q-.81,0-1.6.065a19.72,19.72,0,0,1,0,39.318q.793.064,1.6.065a19.724,19.724,0,1,0,0-39.447Z" transform="translate(-215.616 -6.724)"/><path class="c" d="M93.983,90.927a20.42,20.42,0,0,0-.006-25.86.766.766,0,0,0-.095-.116,20.553,20.553,0,0,0-31.67,0,.774.774,0,0,0-.095.116,20.42,20.42,0,0,0,0,25.867.766.766,0,0,0,.095.117,20.554,20.554,0,0,0,31.677-.008A.76.76,0,0,0,93.983,90.927ZM59.07,78.775h5.342A28.443,28.443,0,0,0,66.3,88.466a26.217,26.217,0,0,0-3.292,1.092A18.823,18.823,0,0,1,59.07,78.775Zm3.935-12.332A26.2,26.2,0,0,0,66.3,67.534a28.445,28.445,0,0,0-1.886,9.692H59.07A18.823,18.823,0,0,1,63.005,66.442ZM97.026,77.225H91.684A28.444,28.444,0,0,0,89.8,67.534a26.217,26.217,0,0,0,3.292-1.092A18.823,18.823,0,0,1,97.026,77.225Zm-23.728,0H65.965A26.753,26.753,0,0,1,67.822,67.9a45.411,45.411,0,0,0,5.542.83l.387.031C73.476,71.359,73.32,74.235,73.3,77.225Zm2-8.363c.911.045,1.829.069,2.746.069s1.835-.024,2.746-.069c.273,2.556.428,5.4.451,8.363h-6.4C74.873,74.263,75.028,71.419,75.3,68.862Zm-2,9.912c.023,2.991.179,5.867.454,8.463l-.39.032a45.4,45.4,0,0,0-5.539.83,26.754,26.754,0,0,1-1.857-9.324Zm1.553,0h6.4c-.023,2.963-.178,5.807-.451,8.363-1.82-.09-3.671-.09-5.493,0C75.028,84.581,74.873,81.738,74.85,78.775Zm7.948,0h7.332A26.753,26.753,0,0,1,88.274,88.1a45.411,45.411,0,0,0-5.542-.83l-.387-.031C82.62,84.641,82.775,81.765,82.8,78.775Zm0-1.549c-.023-2.991-.179-5.867-.454-8.463l.39-.032a45.4,45.4,0,0,0,5.539-.83,26.754,26.754,0,0,1,1.857,9.324Zm-.2-10.037-.434.035c-.155-1.186-.335-2.3-.542-3.324a18.684,18.684,0,0,0-1.391-4.538A11.6,11.6,0,0,1,86.5,64.475a19.269,19.269,0,0,1,1.126,1.98A44.331,44.331,0,0,1,82.6,67.188ZM80.1,64.2c.194.96.364,2,.511,3.115-1.7.081-3.427.081-5.125,0,.147-1.111.317-2.155.511-3.115.863-4.281,1.838-5.156,2.051-5.156S79.236,59.924,80.1,64.2Zm-4.234-4.844A18.688,18.688,0,0,0,74.474,63.9c-.206,1.023-.387,2.138-.542,3.324l-.431-.035a44.317,44.317,0,0,1-5.029-.734,19.235,19.235,0,0,1,1.126-1.98A11.593,11.593,0,0,1,75.865,59.361ZM73.5,88.812l.434-.035c.155,1.186.335,2.3.542,3.324a18.685,18.685,0,0,0,1.391,4.538A11.594,11.594,0,0,1,69.6,91.525a19.267,19.267,0,0,1-1.126-1.98A44.333,44.333,0,0,1,73.5,88.812ZM76,91.8c-.194-.96-.364-2-.511-3.115,1.7-.081,3.427-.081,5.125,0-.147,1.111-.317,2.155-.511,3.115-.863,4.281-1.838,5.156-2.051,5.156S76.86,96.076,76,91.8Zm4.234,4.844A18.686,18.686,0,0,0,81.621,92.1c.206-1.023.387-2.138.542-3.324l.431.035a44.321,44.321,0,0,1,5.029.734,19.236,19.236,0,0,1-1.126,1.98A11.593,11.593,0,0,1,80.23,96.639ZM91.684,78.775h5.342a18.823,18.823,0,0,1-3.935,10.783A26.2,26.2,0,0,0,89.8,88.466,28.446,28.446,0,0,0,91.684,78.775Zm.354-13.58a26.284,26.284,0,0,1-2.863.9A20.939,20.939,0,0,0,87.8,63.629a16.384,16.384,0,0,0-2.731-3.238A19.072,19.072,0,0,1,92.037,65.195Zm-21.01-4.8A16.377,16.377,0,0,0,68.3,63.629,20.955,20.955,0,0,0,66.922,66.1a26.277,26.277,0,0,1-2.863-.9A19.072,19.072,0,0,1,71.027,60.391ZM64.058,90.805a26.282,26.282,0,0,1,2.863-.9A20.94,20.94,0,0,0,68.3,92.371a16.384,16.384,0,0,0,2.731,3.238A19.072,19.072,0,0,1,64.058,90.805Zm21.01,4.8A16.377,16.377,0,0,0,87.8,92.371,20.954,20.954,0,0,0,89.174,89.9a26.277,26.277,0,0,1,2.863.9A19.072,19.072,0,0,1,85.068,95.609Z" transform="translate(-51.548 0)"/><path class="d" d="M52.379,209.117H.621A.621.621,0,0,1,0,208.5V198.168a.621.621,0,0,1,.621-.621H52.379a.621.621,0,0,1,.621.621V208.5A.621.621,0,0,1,52.379,209.117Z" transform="translate(0 -125.597)"/><path class="e" d="M482,197.547v11.57h2.484a.621.621,0,0,0,.621-.621V198.168a.621.621,0,0,0-.621-.621Z" transform="translate(-432.105 -125.597)"/><path class="f" d="M11.314,209.117H.621A.621.621,0,0,1,0,208.5V198.168a.621.621,0,0,1,.621-.621H11.314Z" transform="translate(0 -125.597)"/><path class="g" d="M26.2,217.845l.8,1.622a.289.289,0,0,0,.218.158l1.789.26a.29.29,0,0,1,.16.494l-1.295,1.262a.29.29,0,0,0-.083.256l.306,1.782a.29.29,0,0,1-.42.305l-1.6-.841a.29.29,0,0,0-.269,0l-1.6.841a.29.29,0,0,1-.42-.305l.306-1.782a.29.29,0,0,0-.083-.256l-1.295-1.262a.29.29,0,0,1,.16-.494l1.789-.26a.29.29,0,0,0,.218-.158l.8-1.622A.29.29,0,0,1,26.2,217.845Z" transform="translate(-20.279 -143.648)"/><g transform="translate(18.255 75.212)"><path class="c" d="M182.508,234.159a.776.776,0,0,1-.692-.425l-1.1-2.172-1.1,2.172a.776.776,0,0,1-1.385,0l-1.8-3.545a.776.776,0,1,1,1.385-.7l1.1,2.179,1.06-2.09a.779.779,0,0,1,1.4-.144.794.794,0,0,1,.06.12l1.072,2.114,1.1-2.179a.776.776,0,0,1,1.385.7l-1.8,3.545A.777.777,0,0,1,182.508,234.159Z" transform="translate(-176.347 -229.061)"/><path class="c" d="M271.9,234.16a.776.776,0,0,1-.692-.425l-1.1-2.172-1.1,2.172a.776.776,0,0,1-1.385,0l-1.8-3.545a.776.776,0,1,1,1.385-.7l1.1,2.179,1.06-2.09a.779.779,0,0,1,1.4-.144.792.792,0,0,1,.06.12l1.072,2.114,1.1-2.179a.776.776,0,1,1,1.385.7l-1.8,3.545A.777.777,0,0,1,271.9,234.16Z" transform="translate(-256.489 -229.062)"/><path class="c" d="M361.3,234.157a.776.776,0,0,1-.692-.425l-1.1-2.172-1.1,2.172a.776.776,0,0,1-1.385,0l-1.8-3.545a.776.776,0,0,1,1.385-.7l1.1,2.179,1.06-2.09a.779.779,0,0,1,1.4-.144.792.792,0,0,1,.06.12l1.072,2.114,1.1-2.179a.776.776,0,1,1,1.385.7l-1.8,3.545A.776.776,0,0,1,361.3,234.157Z" transform="translate(-336.631 -229.059)"/></g></g></svg>