<svg xmlns="http://www.w3.org/2000/svg" xmlns:xlink="http://www.w3.org/1999/xlink" width="56" height="56" viewBox="0 0 56 56"><defs><style>.a{fill:#0E76A8;}.b{fill:#f1f2f2;}</style><radialGradient id="a" cx="0.5" cy="0.5" r="2.513" gradientTransform="translate(0 0.012) scale(1 0.977)" gradientUnits="objectBoundingBox"><stop offset="0" stop-color="#54a2c5"/><stop offset="1" stop-color="#59c0af"/></radialGradient></defs><g transform="translate(0 0.001)"><ellipse class="a" cx="28" cy="28" rx="28" ry="28" transform="translate(0 -0.001)"/><g transform="translate(13.51 11.963)"><path class="b" d="M58.287,42.258V53.8H51.595V43.032c0-2.7-.966-4.551-3.39-4.551a3.661,3.661,0,0,0-3.433,2.447,4.581,4.581,0,0,0-.222,1.631V53.8H37.857s.09-18.241,0-20.129h6.694v2.853c-.013.022-.032.044-.044.066h.044v-.066A6.645,6.645,0,0,1,50.583,33.2c4.4,0,7.7,2.877,7.7,9.059ZM30.855,23.969a3.488,3.488,0,1,0-.088,6.956h.043a3.489,3.489,0,1,0,.044-6.956ZM27.466,53.8h6.691V33.672H27.466Z" transform="translate(-27.068 -23.969)"/></g></g></svg>
