<svg xmlns="http://www.w3.org/2000/svg" width="12" height="16" viewBox="0 0 12 16"><defs><style>.a{fill:rgba(39,57,61,0.36);}</style></defs><g transform="translate(-62.919 0)"><g transform="translate(62.919 0)"><path class="a" d="M74.88,7.223l-.789-1.07a.2.2,0,0,1,0-.232l.773-1.079a.2.2,0,0,0-.069-.291l-1.179-.625a.2.2,0,0,1-.1-.209l.221-1.305a.2.2,0,0,0-.192-.232L72.2,2.123a.2.2,0,0,1-.185-.144L71.65.7a.2.2,0,0,0-.274-.128L70.147,1.1a.21.21,0,0,1-.231-.049L69.024.066a.2.2,0,0,0-.3,0l-.879,1a.2.2,0,0,1-.228.052l-1.235-.5a.2.2,0,0,0-.271.131l-.353,1.276a.2.2,0,0,1-.182.147l-1.334.075a.2.2,0,0,0-.188.235l.241,1.3a.2.2,0,0,1-.1.209l-1.169.641a.2.2,0,0,0-.066.291l.789,1.07a.2.2,0,0,1,0,.232L62.977,7.3a.2.2,0,0,0,.069.291l1.179.625a.2.2,0,0,1,.1.209l-.221,1.305a.2.2,0,0,0,.192.232l1.334.056a.2.2,0,0,1,.185.144l.373,1.272a.2.2,0,0,0,.274.128l1.229-.523a.21.21,0,0,1,.231.049l.892.984a.2.2,0,0,0,.3,0l.879-1a.2.2,0,0,1,.228-.052l1.235.5a.2.2,0,0,0,.271-.131l.353-1.276a.2.2,0,0,1,.182-.147L73.6,9.9a.2.2,0,0,0,.188-.235l-.241-1.3a.2.2,0,0,1,.1-.209l1.169-.641A.192.192,0,0,0,74.88,7.223ZM68.922,9.666a3.591,3.591,0,1,1,3.626-3.591A3.615,3.615,0,0,1,68.922,9.666Z" transform="translate(-62.919 0)"/><path class="a" d="M266.751,366.513a1.036,1.036,0,0,1-.739.307,1.13,1.13,0,0,1-.3-.043l-.844-.255-.651.6c-.023.02-.043.039-.065.056l1.047,3.245a.148.148,0,0,0,.258.046l.762-.978a.146.146,0,0,1,.157-.052l1.187.347a.148.148,0,0,0,.183-.186Z" transform="translate(-257.686 -354.525)"/><path class="a" d="M118.019,366.523l-.844.255a1.023,1.023,0,0,1-.3.043,1.041,1.041,0,0,1-.739-.307l-1,3.084a.148.148,0,0,0,.183.186l1.187-.347a.145.145,0,0,1,.157.052l.762.978a.148.148,0,0,0,.258-.046l1.047-3.245a.534.534,0,0,1-.065-.056Z" transform="translate(-113.195 -354.525)"/><path class="a" d="M176.1,113.144l-1.354-.1-.51-1.256a.285.285,0,0,0-.527,0l-.51,1.256-1.354.1a.285.285,0,0,0-.164.5l1.037.877-.324,1.318a.284.284,0,0,0,.425.311l1.151-.716,1.151.716a.284.284,0,0,0,.425-.311l-.324-1.318,1.037-.877A.283.283,0,0,0,176.1,113.144Z" transform="translate(-167.968 -107.962)"/></g></g></svg>