<svg xmlns="http://www.w3.org/2000/svg" width="32" height="32" viewBox="0 0 32 32"><defs><style>.a{fill:#27393d;}</style></defs><g transform="translate(-0.001)"><g transform="translate(0.001)"><path class="a" d="M16,0A16,16,0,1,0,32,16,16,16,0,0,0,16,0Zm7.606,11.514-1.52,1.52L18.993,9.941,17.82,11.114l3.093,3.093-7.587,7.587L10.233,18.7,9.059,19.875l3.093,3.093-.756.756-.014-.014a.6.6,0,0,1-.382.275l-2.885.643a.6.6,0,0,1-.716-.716l.643-2.884a.6.6,0,0,1,.275-.382L8.3,20.631,20.513,8.42a.459.459,0,0,1,.649,0l2.445,2.444A.459.459,0,0,1,23.606,11.514Z" transform="translate(-0.001)"/></g></g></svg>