<svg xmlns="http://www.w3.org/2000/svg" width="28" height="24" viewBox="0 0 28 24"><defs><style>.a{fill:rgba(39,57,61,0.36);}</style></defs><g transform="translate(0 -36.54)"><g transform="translate(0 36.54)"><path class="a" d="M26.907,41.314a3.617,3.617,0,0,0-2.64-1.082H21l-.744-1.961a2.685,2.685,0,0,0-1.014-1.219,2.616,2.616,0,0,0-1.509-.512H10.267a2.616,2.616,0,0,0-1.51.512,2.686,2.686,0,0,0-1.014,1.219L7,40.232H3.733a3.617,3.617,0,0,0-2.64,1.082A3.538,3.538,0,0,0,0,43.925V56.848a3.537,3.537,0,0,0,1.094,2.61,3.617,3.617,0,0,0,2.64,1.082H24.267a3.617,3.617,0,0,0,2.64-1.082A3.538,3.538,0,0,0,28,56.848V43.925A3.537,3.537,0,0,0,26.907,41.314ZM18.616,54.951A6.327,6.327,0,0,1,14,56.848a6.327,6.327,0,0,1-4.616-1.9,6.392,6.392,0,0,1,0-9.13A6.327,6.327,0,0,1,14,43.925a6.327,6.327,0,0,1,4.616,1.9,6.392,6.392,0,0,1,0,9.13Z" transform="translate(0 -36.54)"/><path class="a" d="M196.231,228.4a4.383,4.383,0,1,0,3.091,1.284A4.213,4.213,0,0,0,196.231,228.4Z" transform="translate(-182.231 -218.983)"/></g></g></svg>