<svg xmlns="http://www.w3.org/2000/svg" xmlns:xlink="http://www.w3.org/1999/xlink" width="1186" height="579" viewBox="0 0 1186 579"><defs><style>.a{fill:#27393d;}.a,.f{font-size:16px;font-family:OpenSans-Semibold, Open Sans;font-weight:600;}.b,.i{fill:none;}.b{stroke:#27393d;stroke-width:6px;}.c,.f{fill:#fff;}.d{fill:#7d91b8;}.e{fill:#54a2c5;}.g{fill:#59c0af;}.h{stroke:none;}.j{filter:url(#ac);}.k{filter:url(#aa);}.l{filter:url(#y);}.m{filter:url(#w);}.n{filter:url(#u);}.o{filter:url(#s);}.p{filter:url(#q);}.q{filter:url(#o);}.r{filter:url(#m);}.s{filter:url(#k);}.t{filter:url(#i);}.u{filter:url(#g);}.v{filter:url(#e);}.w{filter:url(#c);}.x{filter:url(#a);}</style><filter id="a" x="705" y="223" width="58" height="58" filterUnits="userSpaceOnUse"><feOffset input="SourceAlpha"/><feGaussianBlur stdDeviation="3" result="b"/><feFlood flood-opacity="0.361"/><feComposite operator="in" in2="b"/><feComposite in="SourceGraphic"/></filter><filter id="c" x="705" y="370" width="58" height="58" filterUnits="userSpaceOnUse"><feOffset input="SourceAlpha"/><feGaussianBlur stdDeviation="3" result="d"/><feFlood flood-opacity="0.361"/><feComposite operator="in" in2="d"/><feComposite in="SourceGraphic"/></filter><filter id="e" x="705" y="521" width="58" height="58" filterUnits="userSpaceOnUse"><feOffset input="SourceAlpha"/><feGaussianBlur stdDeviation="3" result="f"/><feFlood flood-opacity="0.361"/><feComposite operator="in" in2="f"/><feComposite in="SourceGraphic"/></filter><filter id="g" x="1073" y="223" width="58" height="58" filterUnits="userSpaceOnUse"><feOffset input="SourceAlpha"/><feGaussianBlur stdDeviation="3" result="h"/><feFlood flood-opacity="0.361"/><feComposite operator="in" in2="h"/><feComposite in="SourceGraphic"/></filter><filter id="i" x="1073" y="370" width="58" height="58" filterUnits="userSpaceOnUse"><feOffset input="SourceAlpha"/><feGaussianBlur stdDeviation="3" result="j"/><feFlood flood-opacity="0.361"/><feComposite operator="in" in2="j"/><feComposite in="SourceGraphic"/></filter><filter id="k" x="1073" y="521" width="58" height="58" filterUnits="userSpaceOnUse"><feOffset input="SourceAlpha"/><feGaussianBlur stdDeviation="3" result="l"/><feFlood flood-opacity="0.361"/><feComposite operator="in" in2="l"/><feComposite in="SourceGraphic"/></filter><filter id="m" x="705" y="71" width="58" height="58" filterUnits="userSpaceOnUse"><feOffset input="SourceAlpha"/><feGaussianBlur stdDeviation="3" result="n"/><feFlood flood-opacity="0.361"/><feComposite operator="in" in2="n"/><feComposite in="SourceGraphic"/></filter><filter id="o" x="1073" y="71" width="58" height="58" filterUnits="userSpaceOnUse"><feOffset input="SourceAlpha"/><feGaussianBlur stdDeviation="3" result="p"/><feFlood flood-opacity="0.361"/><feComposite operator="in" in2="p"/><feComposite in="SourceGraphic"/></filter><filter id="q" x="53" y="71" width="58" height="58" filterUnits="userSpaceOnUse"><feOffset input="SourceAlpha"/><feGaussianBlur stdDeviation="3" result="r"/><feFlood flood-opacity="0.361"/><feComposite operator="in" in2="r"/><feComposite in="SourceGraphic"/></filter><filter id="s" x="361" y="71" width="58" height="58" filterUnits="userSpaceOnUse"><feOffset input="SourceAlpha"/><feGaussianBlur stdDeviation="3" result="t"/><feFlood flood-opacity="0.361"/><feComposite operator="in" in2="t"/><feComposite in="SourceGraphic"/></filter><filter id="u" x="361" y="223" width="58" height="58" filterUnits="userSpaceOnUse"><feOffset input="SourceAlpha"/><feGaussianBlur stdDeviation="3" result="v"/><feFlood flood-opacity="0.361"/><feComposite operator="in" in2="v"/><feComposite in="SourceGraphic"/></filter><filter id="w" x="0" y="0" width="164.001" height="71.999" filterUnits="userSpaceOnUse"><feOffset dy="2" input="SourceAlpha"/><feGaussianBlur stdDeviation="2" result="x"/><feFlood flood-opacity="0.239"/><feComposite operator="in" in2="x"/><feComposite in="SourceGraphic"/></filter><filter id="y" x="308" y="0" width="164.001" height="71.999" filterUnits="userSpaceOnUse"><feOffset dy="2" input="SourceAlpha"/><feGaussianBlur stdDeviation="2" result="z"/><feFlood flood-opacity="0.239"/><feComposite operator="in" in2="z"/><feComposite in="SourceGraphic"/></filter><filter id="aa" x="652" y="0" width="164.001" height="71.999" filterUnits="userSpaceOnUse"><feOffset dy="2" input="SourceAlpha"/><feGaussianBlur stdDeviation="2" result="ab"/><feFlood flood-opacity="0.239"/><feComposite operator="in" in2="ab"/><feComposite in="SourceGraphic"/></filter><filter id="ac" x="1020" y="0" width="164.001" height="71.999" filterUnits="userSpaceOnUse"><feOffset dy="2" input="SourceAlpha"/><feGaussianBlur stdDeviation="2" result="ad"/><feFlood flood-opacity="0.239"/><feComposite operator="in" in2="ad"/><feComposite in="SourceGraphic"/></filter></defs><g transform="translate(-599 -295)"><text class="a" transform="translate(1313 514)"><tspan x="0" y="0">Build</tspan></text><text class="a" transform="translate(1674 517)"><tspan x="0" y="0">Review</tspan></text><g transform="translate(49 11)"><g class="b" transform="translate(1200 381)"><rect class="h" width="168" height="155"/><rect class="i" x="3" y="3" width="162" height="149"/></g><g class="b" transform="translate(1200 530)"><rect class="h" width="168" height="155"/><rect class="i" x="3" y="3" width="162" height="149"/></g><g class="b" transform="translate(1200 679)"><path class="h" d="M0,0H168a0,0,0,0,1,0,0V145a10,10,0,0,1-10,10H10A10,10,0,0,1,0,145V0A0,0,0,0,1,0,0Z"/><path class="i" d="M6,3H162a3,3,0,0,1,3,3V145a7,7,0,0,1-7,7H10a7,7,0,0,1-7-7V6A3,3,0,0,1,6,3Z"/></g><g transform="translate(588 152)"><g class="x" transform="matrix(1, 0, 0, 1, -38, 132)"><circle class="c" cx="20" cy="20" r="20" transform="translate(714 232)"/></g><circle class="d" cx="15" cy="15" r="15" transform="translate(681 369)"/></g><g transform="translate(588 299)"><g class="w" transform="matrix(1, 0, 0, 1, -38, -15)"><circle class="c" cx="20" cy="20" r="20" transform="translate(714 379)"/></g><circle class="d" cx="15" cy="15" r="15" transform="translate(681 369)"/></g><g transform="translate(588 450)"><g class="v" transform="matrix(1, 0, 0, 1, -38, -166)"><circle class="c" cx="20" cy="20" r="20" transform="translate(714 530)"/></g><circle class="d" cx="15" cy="15" r="15" transform="translate(681 369)"/></g><text class="a" transform="translate(1250 650)"><tspan x="0" y="0">Unit Test</tspan></text><text class="a" transform="translate(1284 779)"><tspan x="-45.23" y="0">Integration </tspan><tspan x="-16.176" y="22">Test</tspan></text></g><g transform="translate(417 11)"><g class="b" transform="translate(1200 381)"><rect class="h" width="168" height="155"/><rect class="i" x="3" y="3" width="162" height="149"/></g><g class="b" transform="translate(1200 530)"><rect class="h" width="168" height="155"/><rect class="i" x="3" y="3" width="162" height="149"/></g><g class="b" transform="translate(1200 679)"><path class="h" d="M0,0H168a0,0,0,0,1,0,0V145a10,10,0,0,1-10,10H10A10,10,0,0,1,0,145V0A0,0,0,0,1,0,0Z"/><path class="i" d="M6,3H162a3,3,0,0,1,3,3V145a7,7,0,0,1-7,7H10a7,7,0,0,1-7-7V6A3,3,0,0,1,6,3Z"/></g><g transform="translate(588 152)"><g class="u" transform="matrix(1, 0, 0, 1, -406, 132)"><circle class="c" cx="20" cy="20" r="20" transform="translate(1082 232)"/></g><circle class="d" cx="15" cy="15" r="15" transform="translate(681 369)"/></g><g transform="translate(588 299)"><g class="t" transform="matrix(1, 0, 0, 1, -406, -15)"><circle class="c" cx="20" cy="20" r="20" transform="translate(1082 379)"/></g><circle class="d" cx="15" cy="15" r="15" transform="translate(681 369)"/></g><g transform="translate(588 450)"><g class="s" transform="matrix(1, 0, 0, 1, -406, -166)"><circle class="c" cx="20" cy="20" r="20" transform="translate(1082 530)"/></g><circle class="d" cx="15" cy="15" r="15" transform="translate(681 369)"/></g><text class="a" transform="translate(1256 650)"><tspan x="0" y="0">Staging</tspan></text><text class="a" transform="translate(1284 801)"><tspan x="-42.621" y="0">Production</tspan></text></g><line class="b" x2="1104" transform="translate(681 395)"/><g transform="translate(637 11)"><g class="r" transform="matrix(1, 0, 0, 1, -38, 284)"><circle class="c" cx="20" cy="20" r="20" transform="translate(714 80)"/></g><circle class="d" cx="15" cy="15" r="15" transform="translate(681 369)"/></g><g transform="translate(1005 11)"><g class="q" transform="matrix(1, 0, 0, 1, -406, 284)"><circle class="c" cx="20" cy="20" r="20" transform="translate(1082 80)"/></g><circle class="d" cx="15" cy="15" r="15" transform="translate(681 369)"/></g><g transform="translate(-15 11)"><g class="p" transform="matrix(1, 0, 0, 1, 614, 284)"><circle class="c" cx="20" cy="20" r="20" transform="translate(62 80)"/></g><circle class="d" cx="15" cy="15" r="15" transform="translate(681 369)"/></g><g transform="translate(49 11)"><g class="b" transform="translate(856 381)"><path class="h" d="M0,0H168a0,0,0,0,1,0,0V145a10,10,0,0,1-10,10H10A10,10,0,0,1,0,145V0A0,0,0,0,1,0,0Z"/><path class="i" d="M6,3H162a3,3,0,0,1,3,3V145a7,7,0,0,1-7,7H10a7,7,0,0,1-7-7V6A3,3,0,0,1,6,3Z"/></g><g transform="translate(244)"><g class="o" transform="matrix(1, 0, 0, 1, 306, 284)"><circle class="c" cx="20" cy="20" r="20" transform="translate(370 80)"/></g><circle class="d" cx="15" cy="15" r="15" transform="translate(681 369)"/></g><g transform="translate(244 152)"><g class="n" transform="matrix(1, 0, 0, 1, 306, 132)"><circle class="c" cx="20" cy="20" r="20" transform="translate(370 232)"/></g><circle class="d" cx="15" cy="15" r="15" transform="translate(681 369)"/></g><text class="a" transform="translate(890 503)"><tspan x="0" y="0">Related code</tspan></text></g><g class="m" transform="matrix(1, 0, 0, 1, 599, 295)"><path class="e" d="M-8074.039-2306H-8128a10,10,0,0,1-10-10v-28a10,10,0,0,1,10-10h132a10,10,0,0,1,10,10v28a10,10,0,0,1-10,10h-54.962l-11.537,12Z" transform="translate(8144 2358)"/></g><text class="f" transform="translate(681 331)"><tspan x="-19.551" y="0">Code</tspan></text><g transform="translate(308 0)"><g class="l" transform="matrix(1, 0, 0, 1, 291, 295)"><path class="g" d="M-8074.039-2306H-8128a10,10,0,0,1-10-10v-28a10,10,0,0,1,10-10h132a10,10,0,0,1,10,10v28a10,10,0,0,1-10,10h-54.962l-11.537,12Z" transform="translate(8452 2358)"/></g><text class="f" transform="translate(681 331)"><tspan x="-30.629" y="0">Commit</tspan></text></g><g transform="translate(652 0)"><g class="k" transform="matrix(1, 0, 0, 1, -53, 295)"><path class="e" d="M-8074.039-2306H-8128a10,10,0,0,1-10-10v-28a10,10,0,0,1,10-10h132a10,10,0,0,1,10,10v28a10,10,0,0,1-10,10h-54.962l-11.537,12Z" transform="translate(8796 2358)"/></g><text class="f" transform="translate(681 331)"><tspan x="-43.848" y="0">CI PIPELINE</tspan></text></g><g transform="translate(1020 0)"><g class="j" transform="matrix(1, 0, 0, 1, -421, 295)"><path class="g" d="M-8074.039-2306H-8128a10,10,0,0,1-10-10v-28a10,10,0,0,1,10-10h132a10,10,0,0,1,10,10v28a10,10,0,0,1-10,10h-54.962l-11.537,12Z" transform="translate(9164 2358)"/></g><text class="f" transform="translate(681 331)"><tspan x="-47.277" y="0">CD PIPELINE</tspan></text></g></g></svg>