<svg xmlns="http://www.w3.org/2000/svg" width="30" height="40.001" viewBox="0 0 30 40.001"><defs><style>.a{fill:#eceff1;}.a,.b,.c,.f,.g{fill-rule:evenodd;}.b{fill:#909394;}.c,.e{fill:#59c0af;}.d{fill:#27393d;}.f{fill:#c4cccf;}.g{fill:#50ab9c;}</style></defs><g transform="translate(-0.499 0)"><g transform="translate(0.499 0)"><path class="a" d="M15.917,40H28.634A1.962,1.962,0,0,0,30.5,37.968V9.21c0-.256,0-.491,0-.7L23.429,0H2.364A1.96,1.96,0,0,0,.5,2.033V37.968A1.96,1.96,0,0,0,2.364,40Zm0,0" transform="translate(-0.499 0)"/><path class="b" d="M321.822,8.5h5.206a4.637,4.637,0,0,0-1.48-3.76l-2.422-2.87C321.893.417,321.782,0,319.959,0l0,6.473A1.957,1.957,0,0,0,321.822,8.5Zm0,0" transform="translate(-297.029 0)"/><path class="c" d="M238.126,329.064a4.451,4.451,0,1,0-4.433,4.832A4.648,4.648,0,0,0,238.126,329.064Zm0,0" transform="translate(-212.84 -298.899)"/></g><path class="d" d="M170.155,195.741h-9.628a.611.611,0,0,1,0-1.217h9.628a.611.611,0,0,1,0,1.217Zm0,0" transform="translate(-148.024 -179.327)"/><path class="d" d="M172.906,158.306H160.528a.61.61,0,0,1,0-1.216h12.378a.61.61,0,0,1,0,1.216Zm0,0" transform="translate(-148.024 -144.817)"/><path class="e" d="M59.773,152.8a.534.534,0,0,1-.379-.161l-1.551-1.56a.647.647,0,0,1-.031-.86.527.527,0,0,1,.789-.034l1.135,1.142,2.621-3.18a.527.527,0,0,1,.789-.046.647.647,0,0,1,.043.859l-3,3.639a.542.542,0,0,1-.389.2h-.026Zm0,0" transform="translate(-53.061 -136.389)"/><path class="e" d="M63.807,227.707H63.8a.541.541,0,0,1-.417-.211l-1.239-1.56a.647.647,0,0,1,.057-.858.528.528,0,0,1,.788.062l.824,1.038,2.576-3.125a.527.527,0,0,1,.789-.046.647.647,0,0,1,.042.859l-3,3.639a.54.54,0,0,1-.415.2Zm0,0" transform="translate(-57.095 -205.441)"/><path class="d" d="M170.155,270.647h-9.628a.611.611,0,0,1,0-1.217h9.628a.611.611,0,0,1,0,1.217Zm0,0" transform="translate(-148.024 -248.381)"/><path class="d" d="M172.906,233.209h-4.82a.611.611,0,0,1,0-1.217h4.82a.611.611,0,0,1,0,1.217Zm-7.378,0h-5a.611.611,0,0,1,0-1.217h5a.611.611,0,0,1,0,1.217Zm0,0" transform="translate(-148.024 -213.867)"/><path class="f" d="M358.21,109.573V138.33a1.964,1.964,0,0,1-1.859,2.033h2.6a1.962,1.962,0,0,0,1.865-2.033V109.573c0-.256,0-.491,0-.7h-2.6C358.21,109.082,358.21,109.317,358.21,109.573Zm0,0" transform="translate(-330.313 -100.362)"/><path class="g" d="M275.16,324.393a4.959,4.959,0,0,1,0,9.342,4.1,4.1,0,0,0,1.141.162,4.851,4.851,0,0,0,0-9.667A4.1,4.1,0,0,0,275.16,324.393Zm0,0" transform="translate(-254.948 -298.9)"/><path class="a" d="M265.951,356.7H264.61l-.146.429a2.052,2.052,0,0,1-.2.454.406.406,0,0,1-.356.169.476.476,0,0,1-.35-.155.525.525,0,0,1-.153-.37.776.776,0,0,1,.031-.219c.025-.089.057-.175.088-.262l.965-2.669c.033-.091.067-.182.1-.276a1.63,1.63,0,0,1,.138-.3.682.682,0,0,1,.22-.219.609.609,0,0,1,.331-.087.629.629,0,0,1,.337.087.671.671,0,0,1,.216.215,1.392,1.392,0,0,1,.126.251c.04.107.079.215.115.32l.986,2.653a1.637,1.637,0,0,1,.126.5.54.54,0,0,1-.149.37.481.481,0,0,1-.362.162.45.45,0,0,1-.218-.05.509.509,0,0,1-.155-.137,1.246,1.246,0,0,1-.111-.217c-.029-.073-.059-.148-.088-.224v0Zm-1.04-.926h.733l-.369-1.1Zm0,0" transform="translate(-244.038 -325.605)"/></g></svg>