<svg xmlns="http://www.w3.org/2000/svg" width="21.208" height="24" viewBox="0 0 21.208 24"><defs><style>.a{fill:#fff;}</style></defs><g transform="translate(0)"><g transform="translate(0 7.919)"><path class="a" d="M45.659,182.717a.469.469,0,0,0-.649-.137A9.248,9.248,0,0,1,32.3,169.66a.469.469,0,0,0-.777-.524,10.186,10.186,0,0,0,14,14.23A.469.469,0,0,0,45.659,182.717Z" transform="translate(-29.786 -168.929)"/></g><g transform="translate(16.633 20.151)"><g transform="translate(0)"><path class="a" d="M385.444,430.023a.469.469,0,0,0-.663.007l-.016.016a.469.469,0,1,0,.666.66l.019-.02A.469.469,0,0,0,385.444,430.023Z" transform="translate(-384.63 -429.889)"/></g></g><g transform="translate(4.374)"><g transform="translate(0)"><path class="a" d="M138.07,7.682a.469.469,0,0,0,.663,0l.781-.781a1.429,1.429,0,0,0,0-2.018L137.84,3.21a1.427,1.427,0,0,0-2.018,0l-.781.781a.469.469,0,0,0,0,.663l.222.222-.562.562a10.067,10.067,0,0,0-3.965-1.642V3h1.031a.469.469,0,0,0,.469-.469V.469A.469.469,0,0,0,131.768,0h-5.719a.469.469,0,0,0-.469.469V2.531a.469.469,0,0,0,.469.469h1.031v.8a10.123,10.123,0,0,0-3.772,1.512.469.469,0,1,0,.516.783,9.249,9.249,0,0,1,12.942,12.6.469.469,0,1,0,.8.5,10.195,10.195,0,0,0-.276-11.164l.562-.562ZM129.8,3.67c-.295-.025-.592-.039-.891-.039s-.6.013-.891.039V3H129.8v.67Zm-2.25-1.608h-1.031V.938H131.3V2.063h-3.75Zm9.163,5.209q-.286-.339-.6-.657t-.657-.6l.474-.474,1.26,1.26Zm-.454-2.728h0l-.221-.221.449-.449a.489.489,0,0,1,.692,0l1.673,1.673a.49.49,0,0,1,0,.692l-.449.449-.221-.221h0Z" transform="translate(-123.097)"/></g></g><g transform="translate(9.716 7.171)"><path class="a" d="M237.524,152.992a.469.469,0,0,0-.469.469v1.031a.469.469,0,1,0,.938,0v-1.031A.469.469,0,0,0,237.524,152.992Z" transform="translate(-237.055 -152.992)"/></g><g transform="translate(14.082 8.98)"><g transform="translate(0)"><path class="a" d="M331.008,191.715a.468.468,0,1,0,.137.331A.472.472,0,0,0,331.008,191.715Z" transform="translate(-330.208 -191.578)"/></g></g><g transform="translate(14.86 13.347)"><path class="a" d="M348.294,284.733h-1.031a.469.469,0,0,0,0,.938h1.031a.469.469,0,0,0,0-.937Z" transform="translate(-346.794 -284.733)"/></g><g transform="translate(14.082 17.713)"><g transform="translate(0)"><path class="a" d="M331.008,378.022a.469.469,0,1,0,.137.331A.472.472,0,0,0,331.008,378.022Z" transform="translate(-330.208 -377.885)"/></g></g><g transform="translate(9.716 18.491)"><path class="a" d="M237.524,394.473a.469.469,0,0,0-.469.469v1.031a.469.469,0,0,0,.938,0v-1.031A.469.469,0,0,0,237.524,394.473Z" transform="translate(-237.055 -394.473)"/></g><g transform="translate(5.349 17.713)"><g transform="translate(0)"><path class="a" d="M144.7,378.022a.469.469,0,1,0,.137.331A.473.473,0,0,0,144.7,378.022Z" transform="translate(-143.9 -377.885)"/></g></g><g transform="translate(3.54 13.347)"><g transform="translate(0)"><path class="a" d="M106.813,284.733h-1.031a.469.469,0,0,0,0,.938h1.031a.469.469,0,0,0,0-.937Z" transform="translate(-105.313 -284.733)"/></g></g><g transform="translate(5.349 8.98)"><g transform="translate(0)"><path class="a" d="M144.7,191.715a.469.469,0,1,0,.137.331A.472.472,0,0,0,144.7,191.715Z" transform="translate(-143.9 -191.578)"/></g></g><g transform="translate(8.591 10.018)"><g transform="translate(0)"><path class="a" d="M218.308,213.862a.469.469,0,0,0-.574-.07l-3.869,2.343a1.241,1.241,0,0,0-.14.089,1.593,1.593,0,1,0,2.218,2.226,1.12,1.12,0,0,0,.093-.146l2.342-3.869A.469.469,0,0,0,218.308,213.862Zm-3.08,3.967-.039.064a.656.656,0,1,1-.912-.912l.064-.038a.656.656,0,0,1,.887.886Zm.733-1.21a1.6,1.6,0,0,0-.409-.409l1.037-.628Z" transform="translate(-213.054 -213.725)"/></g></g><g transform="translate(2.064 5.695)"><g transform="translate(0)"><path class="a" d="M81.938,121.5a8.12,8.12,0,1,0,8.12,8.12A8.13,8.13,0,0,0,81.938,121.5Zm0,15.3a7.183,7.183,0,1,1,7.183-7.183A7.191,7.191,0,0,1,81.938,136.8Z" transform="translate(-73.818 -121.499)"/></g></g><g transform="translate(2.874 6.448)"><g transform="translate(0)"><path class="a" d="M91.908,137.7a.469.469,0,1,0,.137.331A.472.472,0,0,0,91.908,137.7Z" transform="translate(-91.108 -137.565)"/></g></g></g></svg>