<svg xmlns="http://www.w3.org/2000/svg" xmlns:xlink="http://www.w3.org/1999/xlink" width="56" height="56" viewBox="0 0 56 56"><defs><style>.a{fill:url(#a);}.b{fill:#f1f2f2;}</style><radialGradient id="a" cx="0.5" cy="0.5" r="1.211" gradientUnits="objectBoundingBox"><stop offset="0" stop-color="#5297ce"/><stop offset="1" stop-color="#58b8b5"/></radialGradient></defs><g transform="translate(-0.001)"><circle class="a" cx="28" cy="28" r="28" transform="translate(0.001 0)"/><g transform="translate(12.469 16.931)"><path class="b" d="M57.839,37.177a13.4,13.4,0,0,1-3.858,1.056,6.734,6.734,0,0,0,2.954-3.715,13.445,13.445,0,0,1-4.265,1.629,6.722,6.722,0,0,0-11.445,6.127,19.065,19.065,0,0,1-13.844-7.018,6.724,6.724,0,0,0,2.078,8.967,6.669,6.669,0,0,1-3.042-.841c0,.029,0,.057,0,.085a6.72,6.72,0,0,0,5.388,6.585,6.742,6.742,0,0,1-3.033.116,6.723,6.723,0,0,0,6.274,4.664A13.558,13.558,0,0,1,25.1,57.614,19,19,0,0,0,35.4,60.632c12.354,0,19.109-10.234,19.109-19.11,0-.291-.007-.581-.02-.869a13.619,13.619,0,0,0,3.352-3.476Z" transform="translate(-25.103 -34.028)"/></g></g></svg>