<svg xmlns="http://www.w3.org/2000/svg" width="36" height="29" viewBox="0 0 36 29">
  <g id="araido" transform="translate(-113.44 -155.58)">
    <path id="Path_34" data-name="Path 34" d="M138.4,170.081l-8.317-14.5-8.319,14.5-2.428,4.23-1.471,2.567-4.42,7.7h8.838l1.473-2.567,1.471-2.567h12.654l-7.8-13.6-4.854,8.461h2.944l1.909-3.327,1.907,3.327,1.473,2.567h-9.708l-2.947,5.135h-2.946l4.42-7.7,7.8-13.6,12.218,21.3H136.4l1.473,2.567h8.838Z" transform="translate(0)" fill="#fff"/>
    <path id="Path_35" data-name="Path 35" d="M2745.568,2230.215a.9.9,0,0,1-.651-.27.955.955,0,0,1-.2-.3,1.085,1.085,0,0,1,0-.787.955.955,0,0,1,.2-.3.9.9,0,0,1,.651-.27.929.929,0,0,1,.362.071.9.9,0,0,1,.295.2.949.949,0,0,1,.2.3,1.083,1.083,0,0,1,0,.787.949.949,0,0,1-.2.3.9.9,0,0,1-.295.2A.915.915,0,0,1,2745.568,2230.215Zm0-.182a.738.738,0,0,0,.287-.057.68.68,0,0,0,.234-.16.755.755,0,0,0,.155-.248.933.933,0,0,0,0-.639.779.779,0,0,0-.155-.251.7.7,0,0,0-.234-.165.737.737,0,0,0-.578,0,.678.678,0,0,0-.228.165.809.809,0,0,0-.153.251.862.862,0,0,0-.057.317.877.877,0,0,0,.057.322.79.79,0,0,0,.152.249.672.672,0,0,0,.229.16A.737.737,0,0,0,2745.568,2230.033Zm-.354-.3v-1h.374a.5.5,0,0,1,.271.072.268.268,0,0,1,.113.248.3.3,0,0,1-.049.165.254.254,0,0,1-.133.106l.227.408h-.227l-.172-.344h-.2v.344Zm.2-.5h.128c.141,0,.211-.055.211-.167a.157.157,0,0,0-.044-.118.219.219,0,0,0-.157-.044h-.138Z" transform="translate(-2597.058 -2045.635)" fill="#fff"/>
  </g>
</svg>
